<svg width="1280" height="720" xmlns="http://www.w3.org/2000/svg" xmlns:xlink="http://www.w3.org/1999/xlink" overflow="hidden"><g><rect x="0" y="0" width="1280" height="720" fill="#FFFFFF"/><text font-family="Arial,Arial_MSFontService,sans-serif" font-weight="400" font-size="43" transform="translate(9.6 704)">ICD</text><text font-family="Arial,Arial_MSFontService,sans-serif" font-weight="400" font-size="43" transform="translate(94.9333 704)">Post</text><text font-family="Arial,Arial_MSFontService,sans-serif" font-weight="400" font-size="43" transform="translate(180.267 704)">-</text><text font-family="Arial,Arial_MSFontService,sans-serif" font-weight="400" font-size="43" transform="translate(194.433 704)">processing</text><path d="M587.5 401.5 1041.5 401.5 1065.5 425.5 1065.5 449.5 1065.5 449.5 611.5 449.5 587.5 425.5 587.5 401.5Z" stroke="#595959" stroke-width="1.33333" stroke-miterlimit="8" fill="#C9C9C9" fill-rule="evenodd"/><text font-family="Calibri,Calibri_MSFontService,sans-serif" font-weight="400" font-size="24" transform="translate(615.963 432)">ukb_tnx_icd_combining_results_pub.ipynb</text><rect x="209.5" y="163.5" width="322" height="49" stroke="#595959" stroke-width="1.33333" stroke-miterlimit="8" fill="#5B9BD5"/><text fill="#FFFFFF" font-family="Calibri,Calibri_MSFontService,sans-serif" font-weight="400" font-size="24" transform="translate(226.559 195)">emp_results_01_17_2023.tsv</text><rect x="209.5" y="246.5" width="321" height="49" stroke="#595959" stroke-width="1.33333" stroke-miterlimit="8" fill="#F4B183"/><text font-family="Calibri,Calibri_MSFontService,sans-serif" font-weight="400" font-size="24" transform="translate(261.633 278)">tnx_icd_all_results.tsv</text><rect x="666.5" y="508.5" width="321" height="49" stroke="#595959" stroke-width="1.33333" stroke-miterlimit="8" fill="#C5E0B4"/><text font-family="Calibri,Calibri_MSFontService,sans-serif" font-weight="400" font-size="24" transform="translate(684.743 540)">supplemental_dataset_2.xlsx</text><path d="M531.5 187 543.5 187 543.5 190 531.5 190ZM552.5 187 564.5 187 564.5 190 552.5 190ZM573.5 187 585.5 187 585.5 190 573.5 190ZM594.5 187 606.5 187 606.5 190 594.5 190ZM615.5 187 627.5 187 627.5 190 615.5 190ZM636.5 187 648.5 187 648.5 190 636.5 190ZM657.5 187 669.5 187 669.5 190 657.5 190ZM678.5 187 690.5 187 690.5 190 678.5 190ZM699.5 187 711.5 187 711.5 190 699.5 190ZM720.5 187 732.5 187 732.5 190 720.5 190ZM741.5 187 753.5 187 753.5 190 741.5 190ZM762.5 187 774.5 187 774.5 190 762.5 190ZM783.5 187 795.5 187 795.5 190 783.5 190ZM804.5 187 816.5 187 816.5 190 804.5 190ZM825.5 187 828.086 187 828.086 199.414 825.086 199.414 825.086 188.5 826.586 190 825.5 190ZM828.086 208.414 828.086 220.414 825.086 220.414 825.086 208.414ZM828.086 229.414 828.086 241.414 825.086 241.414 825.086 229.414ZM828.086 250.414 828.086 262.414 825.086 262.414 825.086 250.414ZM828.086 271.414 828.086 283.414 825.086 283.414 825.086 271.414ZM828.086 292.414 828.086 304.414 825.086 304.414 825.086 292.414ZM828.086 313.414 828.086 325.414 825.086 325.414 825.086 313.414ZM828.086 334.414 828.086 346.414 825.086 346.414 825.086 334.414ZM828.086 355.414 828.086 367.414 825.086 367.414 825.086 355.414ZM828.086 376.414 828.086 388.414 825.086 388.414 825.086 376.414ZM831.086 392.292 826.586 401.292 822.086 392.292Z"/><path d="M530.5 269 542.5 269 542.5 272 530.5 272ZM551.5 269 563.5 269 563.5 272 551.5 272ZM572.5 269 584.5 269 584.5 272 572.5 272ZM593.5 269 605.5 269 605.5 272 593.5 272ZM614.5 269 626.5 269 626.5 272 614.5 272ZM635.5 269 647.5 269 647.5 272 635.5 272ZM656.5 269 668.5 269 668.5 272 656.5 272ZM677.5 269 689.5 269 689.5 272 677.5 272ZM698.5 269 710.5 269 710.5 272 698.5 272ZM719.5 269 731.5 269 731.5 272 719.5 272ZM740.5 269 752.5 269 752.5 272 740.5 272ZM761.5 269 773.5 269 773.5 272 761.5 272ZM782.5 269 794.5 269 794.5 272 782.5 272ZM803.5 269 815.5 269 815.5 272 803.5 272ZM824.5 269 827.788 269 827.788 280.712 824.788 280.712 824.788 270.5 826.288 272 824.5 272ZM827.788 289.712 827.788 301.712 824.788 301.712 824.788 289.712ZM827.788 310.712 827.788 322.712 824.788 322.712 824.788 310.712ZM827.788 331.712 827.788 343.712 824.788 343.712 824.788 331.712ZM827.788 352.712 827.788 364.712 824.788 364.712 824.788 352.712ZM827.788 373.712 827.788 385.712 824.788 385.712 824.788 373.712ZM830.788 391.998 826.288 400.998 821.788 391.998Z"/><path d="M828 449.5 828 461.5 825 461.5 825 449.5ZM828 470.5 828 482.5 825 482.5 825 470.5ZM828 491.5 828 500.978 825 500.978 825 491.5ZM831 499.478 826.5 508.478 822 499.478Z"/></g></svg>