<svg width="1280" height="720" xmlns="http://www.w3.org/2000/svg" xmlns:xlink="http://www.w3.org/1999/xlink" overflow="hidden"><g><rect x="0" y="0" width="1280" height="720" fill="#FFFFFF"/><text font-family="Arial,Arial_MSFontService,sans-serif" font-weight="400" font-size="43" transform="translate(9.6 704)">Phecode</text><text font-family="Arial,Arial_MSFontService,sans-serif" font-weight="400" font-size="43" transform="translate(189.6 704)">Post</text><text font-family="Arial,Arial_MSFontService,sans-serif" font-weight="400" font-size="43" transform="translate(274.933 704)">-</text><text font-family="Arial,Arial_MSFontService,sans-serif" font-weight="400" font-size="43" transform="translate(289.1 704)">processing</text><path d="M566.5 401.5 1069.5 401.5 1093.5 425.5 1093.5 449.5 1093.5 449.5 590.5 449.5 566.5 425.5 566.5 401.5Z" stroke="#595959" stroke-width="1.33333" stroke-miterlimit="8" fill="#C9C9C9" fill-rule="evenodd"/><text font-family="Calibri,Calibri_MSFontService,sans-serif" font-weight="400" font-size="24" transform="translate(590.982 432)">ukb_tnx_phecode_combining_results_pub.ipynb</text><rect x="188.5" y="163.5" width="544" height="49" stroke="#595959" stroke-width="1.33333" stroke-miterlimit="8" fill="#5B9BD5"/><text fill="#FFFFFF" font-family="Calibri,Calibri_MSFontService,sans-serif" font-weight="400" font-size="24" transform="translate(197.674 195)">ukb_phecode_results_MCC_of_ONE_2024_10_22.csv</text><rect x="187.5" y="246.5" width="322" height="49" stroke="#595959" stroke-width="1.33333" stroke-miterlimit="8" fill="#F4B183"/><text font-family="Calibri,Calibri_MSFontService,sans-serif" font-weight="400" font-size="24" transform="translate(211.747 278)">tnx_phecode_all_results.tsv</text><rect x="669.5" y="508.5" width="321" height="49" stroke="#595959" stroke-width="1.33333" stroke-miterlimit="8" fill="#C5E0B4"/><text font-family="Calibri,Calibri_MSFontService,sans-serif" font-weight="400" font-size="24" transform="translate(687.912 540)">supplemental_dataset_3.xlsx</text><path d="M732.5 187 744.5 187 744.5 190 732.5 190ZM753.5 187 765.5 187 765.5 190 753.5 190ZM774.5 187 786.5 187 786.5 190 774.5 190ZM795.5 187 807.5 187 807.5 190 795.5 190ZM816.5 187 828.5 187 828.5 190 816.5 190ZM831.474 196.026 831.474 208.026 828.474 208.026 828.474 196.026ZM831.474 217.026 831.474 229.026 828.474 229.026 828.474 217.026ZM831.474 238.026 831.474 250.026 828.474 250.026 828.474 238.026ZM831.474 259.026 831.474 271.026 828.474 271.026 828.474 259.026ZM831.474 280.026 831.474 292.026 828.474 292.026 828.474 280.026ZM831.474 301.026 831.474 313.026 828.474 313.026 828.474 301.026ZM831.474 322.026 831.474 334.026 828.474 334.026 828.474 322.026ZM831.474 343.026 831.474 355.026 828.474 355.026 828.474 343.026ZM831.474 364.026 831.474 376.026 828.474 376.026 828.474 364.026ZM831.474 385.026 831.474 393.792 828.474 393.792 828.474 385.026ZM834.474 392.292 829.974 401.292 825.474 392.292Z"/><path d="M509.5 269 521.5 269 521.5 272 509.5 272ZM530.5 269 542.5 269 542.5 272 530.5 272ZM551.5 269 563.5 269 563.5 272 551.5 272ZM572.5 269 584.5 269 584.5 272 572.5 272ZM593.5 269 605.5 269 605.5 272 593.5 272ZM614.5 269 626.5 269 626.5 272 614.5 272ZM635.5 269 647.5 269 647.5 272 635.5 272ZM656.5 269 668.5 269 668.5 272 656.5 272ZM677.5 269 689.5 269 689.5 272 677.5 272ZM698.5 269 710.5 269 710.5 272 698.5 272ZM719.5 269 731.5 269 731.5 272 719.5 272ZM740.5 269 752.5 269 752.5 272 740.5 272ZM761.5 269 773.5 269 773.5 272 761.5 272ZM782.5 269 794.5 269 794.5 272 782.5 272ZM803.5 269 815.5 269 815.5 272 803.5 272ZM824.5 269 831.694 269 831.694 276.806 828.694 276.806 828.694 270.5 830.194 272 824.5 272ZM831.694 285.806 831.694 297.806 828.694 297.806 828.694 285.806ZM831.694 306.806 831.694 318.806 828.694 318.806 828.694 306.806ZM831.694 327.806 831.694 339.806 828.694 339.806 828.694 327.806ZM831.694 348.806 831.694 360.806 828.694 360.806 828.694 348.806ZM831.694 369.806 831.694 381.806 828.694 381.806 828.694 369.806ZM831.694 390.806 831.694 393.498 828.694 393.498 828.694 390.806ZM834.694 391.998 830.194 400.998 825.694 391.998Z"/><path d="M831 449.5 831 461.5 828 461.5 828 449.5ZM831 470.5 831 482.5 828 482.5 828 470.5ZM831 491.5 831 500.978 828 500.978 828 491.5ZM834 499.478 829.5 508.478 825 499.478Z"/></g></svg>