<svg width="1280" height="720" xmlns="http://www.w3.org/2000/svg" xmlns:xlink="http://www.w3.org/1999/xlink" overflow="hidden"><g><rect x="0" y="0" width="1280" height="720" fill="#FFFFFF"/><text font-family="Arial,Arial_MSFontService,sans-serif" font-weight="400" font-size="43" transform="translate(9.6 704)">Post</text><text font-family="Arial,Arial_MSFontService,sans-serif" font-weight="400" font-size="43" transform="translate(94.9333 704)">-</text><text font-family="Arial,Arial_MSFontService,sans-serif" font-weight="400" font-size="43" transform="translate(109.1 704)">processing</text><path d="M382.5 242.5 792.5 242.5 816.5 266.5 816.5 290.5 816.5 290.5 406.5 290.5 382.5 266.5 382.5 242.5Z" stroke="#595959" stroke-width="1.33333" stroke-miterlimit="8" fill="#C9C9C9" fill-rule="evenodd"/><text font-family="Calibri,Calibri_MSFontService,sans-serif" font-weight="400" font-size="24" transform="translate(408.696 273)">combining_ukb_tnx_results_pub.ipynb</text><rect x="4.50005" y="4.50005" width="322" height="49" stroke="#595959" stroke-width="1.33333" stroke-miterlimit="8" fill="#5B9BD5"/><text fill="#FFFFFF" font-family="Calibri,Calibri_MSFontService,sans-serif" font-weight="400" font-size="24" transform="translate(20.9812 37)">emp_results_01_17_2023.tsv</text><rect x="3.50005" y="87.5001" width="322" height="49" stroke="#595959" stroke-width="1.33333" stroke-miterlimit="8" fill="#F4B183"/><text font-family="Calibri,Calibri_MSFontService,sans-serif" font-weight="400" font-size="24" transform="translate(76.2221 119)">tnx_all_results.tsv</text><rect x="354.5" y="349.5" width="490" height="49" stroke="#595959" stroke-width="1.33333" stroke-miterlimit="8" fill="#C5E0B4"/><text font-family="Calibri,Calibri_MSFontService,sans-serif" font-weight="400" font-size="24" transform="translate(363.85 381)">ukb_tnx_combined_results_03_08_23_final.xlsx</text><path d="M326.5 28.0001 338.5 28.0001 338.5 31.0001 326.5 31.0001ZM347.5 28.0001 359.5 28.0001 359.5 31.0001 347.5 31.0001ZM368.5 28.0001 380.5 28.0001 380.5 31.0001 368.5 31.0001ZM389.5 28.0001 401.5 28.0001 401.5 31.0001 389.5 31.0001ZM410.5 28.0001 422.5 28.0001 422.5 31.0001 410.5 31.0001ZM431.5 28.0001 443.5 28.0001 443.5 31.0001 431.5 31.0001ZM452.5 28.0001 464.5 28.0001 464.5 31.0001 452.5 31.0001ZM473.5 28.0001 485.5 28.0001 485.5 31.0001 473.5 31.0001ZM494.5 28.0001 506.5 28.0001 506.5 31.0001 494.5 31.0001ZM515.5 28.0001 527.5 28.0001 527.5 31.0001 515.5 31.0001ZM536.5 28.0001 548.5 28.0001 548.5 31.0001 536.5 31.0001ZM557.5 28.0001 569.5 28.0001 569.5 31.0001 557.5 31.0001ZM578.5 28.0001 590.5 28.0001 590.5 31.0001 578.5 31.0001ZM599.5 28.0001 601.23 28.0001 601.23 41.2697 598.23 41.2697 598.23 29.5001 599.73 31.0001 599.5 31.0001ZM601.23 50.2697 601.23 62.2697 598.23 62.2697 598.23 50.2697ZM601.23 71.2697 601.23 83.2697 598.23 83.2697 598.23 71.2697ZM601.23 92.2697 601.23 104.27 598.23 104.27 598.23 92.2697ZM601.23 113.27 601.23 125.27 598.23 125.27 598.23 113.27ZM601.23 134.27 601.23 146.27 598.23 146.27 598.23 134.27ZM601.23 155.27 601.23 167.27 598.23 167.27 598.23 155.27ZM601.23 176.27 601.23 188.27 598.23 188.27 598.23 176.27ZM601.23 197.27 601.23 209.27 598.23 209.27 598.23 197.27ZM601.23 218.27 601.23 230.27 598.23 230.27 598.23 218.27ZM604.23 233.292 599.73 242.292 595.23 233.292Z"/><path d="M325.5 110 337.5 110 337.5 113 325.5 113ZM346.5 110 358.5 110 358.5 113 346.5 113ZM367.5 110 379.5 110 379.5 113 367.5 113ZM388.5 110 400.5 110 400.5 113 388.5 113ZM409.5 110 421.5 110 421.5 113 409.5 113ZM430.5 110 442.5 110 442.5 113 430.5 113ZM451.5 110 463.5 110 463.5 113 451.5 113ZM472.5 110 484.5 110 484.5 113 472.5 113ZM493.5 110 505.5 110 505.5 113 493.5 113ZM514.5 110 526.5 110 526.5 113 514.5 113ZM535.5 110 547.5 110 547.5 113 535.5 113ZM556.5 110 568.5 110 568.5 113 556.5 113ZM577.5 110 589.5 110 589.5 113 577.5 113ZM598.5 110 600.933 110 600.933 122.567 597.933 122.567 597.933 111.5 599.433 113 598.5 113ZM600.933 131.567 600.933 143.567 597.933 143.567 597.933 131.567ZM600.933 152.567 600.933 164.567 597.933 164.567 597.933 152.567ZM600.933 173.567 600.933 185.567 597.933 185.567 597.933 173.567ZM600.933 194.567 600.933 206.567 597.933 206.567 597.933 194.567ZM600.933 215.567 600.933 227.567 597.933 227.567 597.933 215.567ZM603.933 232.998 599.433 241.998 594.933 232.998Z"/><path d="M601 290.5 601 302.5 598 302.5 598 290.5ZM601 311.5 601 323.5 598 323.5 598 311.5ZM601 332.5 601 341.978 598 341.978 598 332.5ZM604 340.478 599.5 349.478 595 340.478Z"/></g></svg>