<svg width="1280" height="720" xmlns="http://www.w3.org/2000/svg" xmlns:xlink="http://www.w3.org/1999/xlink" overflow="hidden"><g><rect x="0" y="0" width="1280" height="720" fill="#FFFFFF"/><text font-family="Arial,Arial_MSFontService,sans-serif" font-weight="400" font-size="43" transform="translate(9.6 704)">TNX</text><text font-family="Arial,Arial_MSFontService,sans-serif" font-weight="400" font-size="43" transform="translate(106.767 704)">ICD</text><text font-family="Arial,Arial_MSFontService,sans-serif" font-weight="400" font-size="43" transform="translate(192.1 704)">Data</text><text font-family="Arial,Arial_MSFontService,sans-serif" font-weight="400" font-size="43" transform="translate(293.933 704)">Prep</text><path d="M325 107.5 325 119.5 322 119.5 322 107.5ZM325 128.5 325 140.5 322 140.5 322 128.5ZM325 149.5 325 161.5 322 161.5 322 149.5ZM328 168.868 323.5 177.868 319 168.868Z"/><path d="M325.572 225.5 325.572 237.5 322.572 237.5 322.572 225.5ZM325.572 246.5 325.572 258.5 322.572 258.5 322.572 246.5ZM317.256 262.184 305.256 262.184 305.256 259.184 317.256 259.184ZM296.256 262.184 284.256 262.184 284.256 259.184 296.256 259.184ZM275.256 262.184 263.256 262.184 263.256 259.184 275.256 259.184ZM254.256 262.184 242.256 262.184 242.256 259.184 254.256 259.184ZM233.256 262.184 221.256 262.184 221.256 259.184 233.256 259.184ZM212.256 262.184 200.256 262.184 200.256 259.184 212.256 259.184ZM191.256 262.184 179.256 262.184 179.256 259.184 191.256 259.184ZM175 263.928 175 275.928 172 275.928 172 263.928ZM175 284.928 175 288.368 172 288.368 172 284.928ZM178 286.868 173.5 295.868 169 286.868Z"/><path d="M0-1.5 12-1.5 12 1.5 0 1.5ZM21-1.5 33-1.5 33 1.5 21 1.5ZM36.6841 6.81591 36.6841 18.8159 33.6841 18.8159 33.6841 6.81591ZM36.6841 27.8159 36.6841 39.8159 33.6841 39.8159 33.6841 27.8159ZM36.6841 48.8159 36.6841 60.8159 33.6841 60.8159 33.6841 48.8159ZM36.6841 69.8159 36.6841 81.8159 33.6841 81.8159 33.6841 69.8159ZM36.6841 90.8159 36.6841 102.816 33.6841 102.816 33.6841 90.8159ZM36.6841 111.816 36.6841 123.816 33.6841 123.816 33.6841 111.816ZM36.6841 132.816 36.6841 144.816 33.6841 144.816 33.6841 132.816ZM38.3235 149.177 50.3235 149.177 50.3235 152.177 38.3235 152.177ZM59.3235 149.177 62.8682 149.177 62.8682 152.177 59.3235 152.177ZM61.3682 146.177 70.3682 150.677 61.3682 155.177Z" transform="matrix(1.83697e-16 1 1 -1.83697e-16 323.5 225.5)"/><path d="M0-1.5 12-1.5 12 1.5 0 1.5ZM21-1.5 33-1.5 33 1.5 21 1.5ZM36.6841 6.81591 36.6841 18.8159 33.6841 18.8159 33.6841 6.81591ZM36.6841 27.8159 36.6841 39.8159 33.6841 39.8159 33.6841 27.8159ZM36.6841 48.8159 36.6841 60.8159 33.6841 60.8159 33.6841 48.8159ZM36.6841 69.8159 36.6841 81.8159 33.6841 81.8159 33.6841 69.8159ZM36.6841 90.8159 36.6841 102.816 33.6841 102.816 33.6841 90.8159ZM36.6841 111.816 36.6841 123.816 33.6841 123.816 33.6841 111.816ZM36.6841 132.816 36.6841 144.816 33.6841 144.816 33.6841 132.816ZM38.4278 149.072 50.4278 149.072 50.4278 152.072 38.4278 152.072ZM59.4278 149.072 62.8682 149.072 62.8682 152.072 59.4278 152.072ZM61.3682 146.072 70.3682 150.572 61.3682 155.072Z" transform="matrix(1.83697e-16 1 1 -1.83697e-16 173.5 345.5)"/><path d="M475.677 345.5 475.677 357.5 472.677 357.5 472.677 345.5ZM475.677 366.5 475.677 378.5 472.677 378.5 472.677 366.5ZM467.361 382.184 455.361 382.184 455.361 379.184 467.361 379.184ZM446.361 382.184 434.361 382.184 434.361 379.184 446.361 379.184ZM425.361 382.184 413.361 382.184 413.361 379.184 425.361 379.184ZM404.361 382.184 392.361 382.184 392.361 379.184 404.361 379.184ZM383.361 382.184 371.361 382.184 371.361 379.184 383.361 379.184ZM362.361 382.184 350.361 382.184 350.361 379.184 362.361 379.184ZM341.361 382.184 329.361 382.184 329.361 379.184 341.361 379.184ZM325 383.824 325 395.824 322 395.824 322 383.824ZM325 404.824 325 408.368 322 408.368 322 404.824ZM328 406.868 323.5 415.868 319 406.868Z"/><path d="M325 463.5 325 475.5 322 475.5 322 463.5ZM325 484.5 325 496.5 322 496.5 322 484.5ZM325 505.5 325 517.5 322 517.5 322 505.5ZM328 524.868 323.5 533.868 319 524.868Z"/><rect x="162.5" y="58.5001" width="322" height="49" stroke="#595959" stroke-width="1.33333" stroke-miterlimit="8" fill="#F4B183"/><text font-family="Calibri,Calibri_MSFontService,sans-serif" font-weight="400" font-size="24" transform="translate(224.28 90)">Raw TNX data dump</text><path d="M139.5 177.5 484.5 177.5 508.5 201.5 508.5 225.5 508.5 225.5 163.5 225.5 139.5 201.5 139.5 177.5Z" stroke="#595959" stroke-width="1.33333" stroke-miterlimit="8" fill="#C9C9C9" fill-rule="evenodd"/><text font-family="Calibri,Calibri_MSFontService,sans-serif" font-weight="400" font-size="24" transform="translate(272.673 209)">GNU Tools</text><rect x="55.5001" y="296.5" width="235" height="49" stroke="#595959" stroke-width="1.33333" stroke-miterlimit="8" fill="#C5E0B4"/><text font-family="Calibri,Calibri_MSFontService,sans-serif" font-weight="400" font-size="24" transform="translate(67.7846 328)">3</text><text font-family="Calibri,Calibri_MSFontService,sans-serif" font-weight="400" font-size="24" transform="translate(79.9512 328)">-</text><text font-family="Calibri,Calibri_MSFontService,sans-serif" font-weight="400" font-size="24" transform="translate(87.2846 328)">char diagnoses files</text><rect x="357.5" y="296.5" width="234" height="49" stroke="#595959" stroke-width="1.33333" stroke-miterlimit="8" fill="#C5E0B4"/><text font-family="Calibri,Calibri_MSFontService,sans-serif" font-weight="400" font-size="24" transform="translate(395.063 328)">LOINC code files</text><path d="M167.5 415.5 456.5 415.5 480.5 439.5 480.5 463.5 480.5 463.5 191.5 463.5 167.5 439.5 167.5 415.5Z" stroke="#595959" stroke-width="1.33333" stroke-miterlimit="8" fill="#F4B183" fill-rule="evenodd"/><text font-family="Calibri,Calibri_MSFontService,sans-serif" font-weight="400" font-size="24" transform="translate(194.667 447)">tnx_icd_gen_pairs_pub.py</text><rect x="162.5" y="533.5" width="322" height="49" stroke="#595959" stroke-width="1.33333" stroke-miterlimit="8" fill="#C5E0B4"/><text font-family="Calibri,Calibri_MSFontService,sans-serif" font-weight="400" font-size="24" transform="translate(197.627 565)">Diagnosis</text><text font-family="Calibri,Calibri_MSFontService,sans-serif" font-weight="400" font-size="24" transform="translate(290.293 565)">-</text><text font-family="Calibri,Calibri_MSFontService,sans-serif" font-weight="400" font-size="24" transform="translate(297.627 565)">LOINC Pair Files</text><path d="M981 215.5 981 227.5 978 227.5 978 215.5ZM981 236.5 981 248.5 978 248.5 978 236.5ZM981 257.5 981 258.351 978 258.351 978 257.5ZM984 256.851 979.5 265.851 975 256.851Z"/><path d="M981.575 313.5 981.575 325.5 978.575 325.5 978.575 313.5ZM981.575 334.5 981.575 346.5 978.575 346.5 978.575 334.5ZM981.575 355.5 981.575 367.5 978.575 367.5 978.575 355.5ZM973.176 371.101 961.176 371.101 961.176 368.101 973.176 368.101ZM952.176 371.101 940.176 371.101 940.176 368.101 952.176 368.101ZM931.176 371.101 919.176 371.101 919.176 368.101 931.176 368.101ZM910.176 371.101 898.176 371.101 898.176 368.101 910.176 368.101ZM889.176 371.101 877.176 371.101 877.176 368.101 889.176 368.101ZM868.176 371.101 856.176 371.101 856.176 368.101 868.176 368.101ZM847.176 371.101 842.5 371.101 844 369.601 844 376.925 841 376.925 841 368.101 847.176 368.101ZM844 385.925 844 397.925 841 397.925 841 385.925ZM844 406.925 844 418.202 841 418.202 841 406.925ZM847 416.702 842.5 425.702 838 416.702Z"/><path d="M0-1.5 12-1.5 12 1.5 0 1.5ZM21-1.5 33-1.5 33 1.5 21 1.5ZM42-1.5 54-1.5 54 1.5 42 1.5ZM57.342 7.15795 57.342 19.158 54.342 19.158 54.342 7.15795ZM57.342 28.158 57.342 40.158 54.342 40.158 54.342 28.158ZM57.342 49.158 57.342 61.158 54.342 61.158 54.342 49.158ZM57.342 70.158 57.342 82.158 54.342 82.158 54.342 70.158ZM57.342 91.158 57.342 103.158 54.342 103.158 54.342 91.158ZM57.342 112.158 57.342 124.158 54.342 124.158 54.342 112.158ZM57.342 133.158 57.342 145.158 54.342 145.158 54.342 133.158ZM63.4845 145.015 75.4845 145.015 75.4845 148.015 63.4845 148.015ZM84.4845 145.015 96.4845 145.015 96.4845 148.015 84.4845 148.015ZM102.684 142.015 111.684 146.515 102.684 151.015Z" transform="matrix(1.83697e-16 1 1 -1.83697e-16 979.5 313.5)"/><rect x="819.5" y="166.5" width="321" height="49" stroke="#595959" stroke-width="1.33333" stroke-miterlimit="8" fill="#F4B183"/><text font-family="Calibri,Calibri_MSFontService,sans-serif" font-weight="400" font-size="24" transform="translate(880.441 198)">Raw TNX data dump</text><path d="M787.5 265.5 1147.5 265.5 1171.5 289.5 1171.5 313.5 1171.5 313.5 811.5 313.5 787.5 289.5 787.5 265.5Z" stroke="#595959" stroke-width="1.33333" stroke-miterlimit="8" fill="#F4B183" fill-rule="evenodd"/><text font-family="Calibri,Calibri_MSFontService,sans-serif" font-weight="400" font-size="24" transform="translate(814.528 297)">tnx_icd_data_cleaning_pub.ipynb</text><rect x="707.5" y="426.5" width="269" height="48" stroke="#595959" stroke-width="1.33333" stroke-miterlimit="8" fill="#C5E0B4"/><text font-family="Calibri,Calibri_MSFontService,sans-serif" font-weight="400" font-size="24" transform="translate(718.363 457)">Processed Covariate Data</text><rect x="991.5" y="425.5" width="269" height="49" stroke="#595959" stroke-width="1.33333" stroke-miterlimit="8" fill="#C5E0B4"/><text font-family="Calibri,Calibri_MSFontService,sans-serif" font-weight="400" font-size="24" transform="translate(1036.51 457)">Healthy Birth Data</text></g></svg>