<svg width="1280" height="720" xmlns="http://www.w3.org/2000/svg" xmlns:xlink="http://www.w3.org/1999/xlink" overflow="hidden"><g><rect x="0" y="0" width="1280" height="720" fill="#FFFFFF"/><text font-family="Arial,Arial_MSFontService,sans-serif" font-weight="400" font-size="43" transform="translate(9.6 704)">TNX</text><text font-family="Arial,Arial_MSFontService,sans-serif" font-weight="400" font-size="43" transform="translate(106.767 704)">Phecode</text><text font-family="Arial,Arial_MSFontService,sans-serif" font-weight="400" font-size="43" transform="translate(284.413 704)">Analysis</text><path d="M326.5 28.0001 338.5 28.0001 338.5 31.0001 326.5 31.0001ZM347.5 28.0001 359.5 28.0001 359.5 31.0001 347.5 31.0001ZM368.5 28.0001 380.5 28.0001 380.5 31.0001 368.5 31.0001ZM389.5 28.0001 401.5 28.0001 401.5 31.0001 389.5 31.0001ZM410.5 28.0001 422.5 28.0001 422.5 31.0001 410.5 31.0001ZM431.5 28.0001 443.5 28.0001 443.5 31.0001 431.5 31.0001ZM452.5 28.0001 464.5 28.0001 464.5 31.0001 452.5 31.0001ZM473.5 28.0001 485.5 28.0001 485.5 31.0001 473.5 31.0001ZM494.5 28.0001 506.5 28.0001 506.5 31.0001 494.5 31.0001ZM515.5 28.0001 527.5 28.0001 527.5 31.0001 515.5 31.0001ZM536.5 28.0001 547.794 28.0001 547.794 31.706 544.794 31.706 544.794 29.5001 546.294 31.0001 536.5 31.0001ZM547.794 40.706 547.794 52.706 544.794 52.706 544.794 40.706ZM547.794 61.706 547.794 73.706 544.794 73.706 544.794 61.706ZM547.794 82.706 547.794 94.706 544.794 94.706 544.794 82.706ZM547.794 103.706 547.794 115.706 544.794 115.706 544.794 103.706ZM547.794 124.706 547.794 136.706 544.794 136.706 544.794 124.706ZM547.794 145.706 547.794 157.706 544.794 157.706 544.794 145.706ZM547.794 166.706 547.794 178.706 544.794 178.706 544.794 166.706ZM547.794 187.706 547.794 199.706 544.794 199.706 544.794 187.706ZM547.794 208.706 547.794 220.706 544.794 220.706 544.794 208.706ZM547.794 229.706 547.794 241.706 544.794 241.706 544.794 229.706ZM547.794 250.706 547.794 262.706 544.794 262.706 544.794 250.706ZM547.794 271.706 547.794 283.706 544.794 283.706 544.794 271.706ZM547.794 292.706 547.794 304.706 544.794 304.706 544.794 292.706ZM547.794 313.706 547.794 325.706 544.794 325.706 544.794 313.706ZM547.794 334.706 547.794 346.706 544.794 346.706 544.794 334.706ZM547.794 355.706 547.794 367.706 544.794 367.706 544.794 355.706ZM547.794 376.706 547.794 384.253 544.794 384.253 544.794 376.706ZM550.794 382.752 546.294 391.752 541.794 382.752Z"/><path d="M326.5 156 338.5 156 338.5 159 326.5 159ZM347.5 156 359.5 156 359.5 159 347.5 159ZM368.5 156 380.5 156 380.5 159 368.5 159ZM389.5 156 401.5 156 401.5 159 389.5 159ZM410.5 156 422.5 156 422.5 159 410.5 159ZM431.5 156 443.5 156 443.5 159 431.5 159ZM452.5 156 464.5 156 464.5 159 452.5 159ZM473.5 156 485.5 156 485.5 159 473.5 159ZM494.5 156 506.5 156 506.5 159 494.5 159ZM515.5 156 527.5 156 527.5 159 515.5 159ZM536.5 156 547.794 156 547.794 159.706 544.794 159.706 544.794 157.5 546.294 159 536.5 159ZM547.794 168.706 547.794 180.706 544.794 180.706 544.794 168.706ZM547.794 189.706 547.794 201.706 544.794 201.706 544.794 189.706ZM547.794 210.706 547.794 222.706 544.794 222.706 544.794 210.706ZM547.794 231.706 547.794 243.706 544.794 243.706 544.794 231.706ZM547.794 252.706 547.794 264.706 544.794 264.706 544.794 252.706ZM547.794 273.706 547.794 285.706 544.794 285.706 544.794 273.706ZM547.794 294.706 547.794 306.706 544.794 306.706 544.794 294.706ZM547.794 315.706 547.794 327.706 544.794 327.706 544.794 315.706ZM547.794 336.706 547.794 348.706 544.794 348.706 544.794 336.706ZM547.794 357.706 547.794 369.706 544.794 369.706 544.794 357.706ZM547.794 378.706 547.794 384.183 544.794 384.183 544.794 378.706ZM550.794 382.683 546.294 391.683 541.794 382.683Z"/><path d="M326.5 284 338.5 284 338.5 287 326.5 287ZM347.5 284 359.5 284 359.5 287 347.5 287ZM368.5 284 380.5 284 380.5 287 368.5 287ZM389.5 284 401.5 284 401.5 287 389.5 287ZM410.5 284 422.5 284 422.5 287 410.5 287ZM431.5 284 443.5 284 443.5 287 431.5 287ZM452.5 284 464.5 284 464.5 287 452.5 287ZM473.5 284 485.5 284 485.5 287 473.5 287ZM494.5 284 506.5 284 506.5 287 494.5 287ZM515.5 284 527.5 284 527.5 287 515.5 287ZM536.5 284 547.794 284 547.794 287.706 544.794 287.706 544.794 285.5 546.294 287 536.5 287ZM547.794 296.706 547.794 308.706 544.794 308.706 544.794 296.706ZM547.794 317.706 547.794 329.706 544.794 329.706 544.794 317.706ZM547.794 338.706 547.794 350.706 544.794 350.706 544.794 338.706ZM547.794 359.706 547.794 371.706 544.794 371.706 544.794 359.706ZM547.794 380.706 547.794 384.114 544.794 384.114 544.794 380.706ZM550.794 382.614 546.294 391.614 541.794 382.614Z"/><path d="M326.5 348 338.5 348 338.5 351 326.5 351ZM347.5 348 359.5 348 359.5 351 347.5 351ZM368.5 348 380.5 348 380.5 351 368.5 351ZM389.5 348 401.5 348 401.5 351 389.5 351ZM410.5 348 422.5 348 422.5 351 410.5 351ZM431.5 348 443.5 348 443.5 351 431.5 351ZM452.5 348 464.5 348 464.5 351 452.5 351ZM473.5 348 485.5 348 485.5 351 473.5 351ZM494.5 348 506.5 348 506.5 351 494.5 351ZM515.5 348 527.5 348 527.5 351 515.5 351ZM536.5 348 547.794 348 547.794 351.706 544.794 351.706 544.794 349.5 546.294 351 536.5 351ZM547.794 360.706 547.794 372.706 544.794 372.706 544.794 360.706ZM547.794 381.706 547.794 384.079 544.794 384.079 544.794 381.706ZM550.794 382.579 546.294 391.579 541.794 382.579Z"/><path d="M0-1.5 12-1.5 12 1.5 0 1.5ZM21-1.5 33-1.5 33 1.5 21 1.5ZM42.6038 0.896168 42.6038 12.8962 39.6038 12.8962 39.6038 0.896168ZM42.6038 21.8962 42.6038 33.8962 39.6038 33.8962 39.6038 21.8962ZM42.6038 42.8962 42.6038 54.8962 39.6038 54.8962 39.6038 42.8962ZM42.6038 63.8962 42.6038 75.8962 39.6038 75.8962 39.6038 63.8962ZM42.6038 84.8962 42.6038 96.8962 39.6038 96.8962 39.6038 84.8962ZM42.6038 105.896 42.6038 117.896 39.6038 117.896 39.6038 105.896ZM42.6038 126.896 42.6038 138.896 39.6038 138.896 39.6038 126.896ZM42.6038 147.896 42.6038 159.896 39.6038 159.896 39.6038 147.896ZM42.6038 168.896 42.6038 180.896 39.6038 180.896 39.6038 168.896ZM42.6038 189.896 42.6038 201.896 39.6038 201.896 39.6038 189.896ZM42.6038 210.896 42.6038 222.896 39.6038 222.896 39.6038 210.896ZM42.6038 231.896 42.6038 243.896 39.6038 243.896 39.6038 231.896ZM42.6038 252.896 42.6038 264.896 39.6038 264.896 39.6038 252.896ZM42.6038 273.896 42.6038 285.896 39.6038 285.896 39.6038 273.896ZM42.6038 294.896 42.6038 306.896 39.6038 306.896 39.6038 294.896ZM42.6038 315.896 42.6038 327.896 39.6038 327.896 39.6038 315.896ZM42.6038 336.896 42.6038 348.896 39.6038 348.896 39.6038 336.896ZM42.6038 357.896 42.6038 358.846 41.1038 357.346 52.1536 357.346 52.1536 360.346 39.6038 360.346 39.6038 357.896ZM61.1536 357.346 73.1536 357.346 73.1536 360.346 61.1536 360.346ZM73.2077 354.346 82.2077 358.846 73.2077 363.346Z" transform="matrix(-1 1.22465e-16 1.22465e-16 1 804.708 56.5001)"/><path d="M0-1.5 12-1.5 12 1.5 0 1.5ZM21-1.5 33-1.5 33 1.5 21 1.5ZM42.6038 0.896168 42.6038 12.8962 39.6038 12.8962 39.6038 0.896168ZM42.6038 21.8962 42.6038 33.8962 39.6038 33.8962 39.6038 21.8962ZM42.6038 42.8962 42.6038 54.8962 39.6038 54.8962 39.6038 42.8962ZM42.6038 63.8962 42.6038 75.8962 39.6038 75.8962 39.6038 63.8962ZM42.6038 84.8962 42.6038 96.8962 39.6038 96.8962 39.6038 84.8962ZM42.6038 105.896 42.6038 117.896 39.6038 117.896 39.6038 105.896ZM42.6038 126.896 42.6038 138.896 39.6038 138.896 39.6038 126.896ZM42.6038 147.896 42.6038 159.896 39.6038 159.896 39.6038 147.896ZM42.6038 168.896 42.6038 180.896 39.6038 180.896 39.6038 168.896ZM42.6038 189.896 42.6038 201.896 39.6038 201.896 39.6038 189.896ZM42.6038 210.896 42.6038 222.896 39.6038 222.896 39.6038 210.896ZM42.6038 231.896 42.6038 243.896 39.6038 243.896 39.6038 231.896ZM42.6038 252.896 42.6038 264.896 39.6038 264.896 39.6038 252.896ZM42.6038 273.896 42.6038 282.255 41.1038 280.755 44.7453 280.755 44.7453 283.755 39.6038 283.755 39.6038 273.896ZM53.7453 280.755 65.7453 280.755 65.7453 283.755 53.7453 283.755ZM73.2077 277.755 82.2077 282.255 73.2077 286.755Z" transform="matrix(-1 1.22465e-16 1.22465e-16 1 804.708 133.5)"/><path d="M547 439.5 547 451.5 544 451.5 544 439.5ZM547 460.5 547 468.066 544 468.066 544 460.5ZM550 466.566 545.5 475.566 541 466.566Z"/><path d="M326.5 92.0001 338.5 92.0001 338.5 95.0001 326.5 95.0001ZM347.5 92.0001 359.5 92.0001 359.5 95.0001 347.5 95.0001ZM368.5 92.0001 380.5 92.0001 380.5 95.0001 368.5 95.0001ZM389.5 92.0001 401.5 92.0001 401.5 95.0001 389.5 95.0001ZM410.5 92.0001 422.5 92.0001 422.5 95.0001 410.5 95.0001ZM431.5 92.0001 443.5 92.0001 443.5 95.0001 431.5 95.0001ZM452.5 92.0001 464.5 92.0001 464.5 95.0001 452.5 95.0001ZM473.5 92.0001 485.5 92.0001 485.5 95.0001 473.5 95.0001ZM494.5 92.0001 506.5 92.0001 506.5 95.0001 494.5 95.0001ZM515.5 92.0001 527.5 92.0001 527.5 95.0001 515.5 95.0001ZM536.5 92.0001 547.794 92.0001 547.794 95.706 544.794 95.706 544.794 93.5001 546.294 95.0001 536.5 95.0001ZM547.794 104.706 547.794 116.706 544.794 116.706 544.794 104.706ZM547.794 125.706 547.794 137.706 544.794 137.706 544.794 125.706ZM547.794 146.706 547.794 158.706 544.794 158.706 544.794 146.706ZM547.794 167.706 547.794 179.706 544.794 179.706 544.794 167.706ZM547.794 188.706 547.794 200.706 544.794 200.706 544.794 188.706ZM547.794 209.706 547.794 221.706 544.794 221.706 544.794 209.706ZM547.794 230.706 547.794 242.706 544.794 242.706 544.794 230.706ZM547.794 251.706 547.794 263.706 544.794 263.706 544.794 251.706ZM547.794 272.706 547.794 284.706 544.794 284.706 544.794 272.706ZM547.794 293.706 547.794 305.706 544.794 305.706 544.794 293.706ZM547.794 314.706 547.794 326.706 544.794 326.706 544.794 314.706ZM547.794 335.706 547.794 347.706 544.794 347.706 544.794 335.706ZM547.794 356.706 547.794 368.706 544.794 368.706 544.794 356.706ZM547.794 377.706 547.794 384.217 544.794 384.217 544.794 377.706ZM550.794 382.717 546.294 391.717 541.794 382.717Z"/><path d="M326.5 220 338.5 220 338.5 223 326.5 223ZM347.5 220 359.5 220 359.5 223 347.5 223ZM368.5 220 380.5 220 380.5 223 368.5 223ZM389.5 220 401.5 220 401.5 223 389.5 223ZM410.5 220 422.5 220 422.5 223 410.5 223ZM431.5 220 443.5 220 443.5 223 431.5 223ZM452.5 220 464.5 220 464.5 223 452.5 223ZM473.5 220 485.5 220 485.5 223 473.5 223ZM494.5 220 506.5 220 506.5 223 494.5 223ZM515.5 220 527.5 220 527.5 223 515.5 223ZM536.5 220 547.794 220 547.794 223.706 544.794 223.706 544.794 221.5 546.294 223 536.5 223ZM547.794 232.706 547.794 244.706 544.794 244.706 544.794 232.706ZM547.794 253.706 547.794 265.706 544.794 265.706 544.794 253.706ZM547.794 274.706 547.794 286.706 544.794 286.706 544.794 274.706ZM547.794 295.706 547.794 307.706 544.794 307.706 544.794 295.706ZM547.794 316.706 547.794 328.706 544.794 328.706 544.794 316.706ZM547.794 337.706 547.794 349.706 544.794 349.706 544.794 337.706ZM547.794 358.706 547.794 370.706 544.794 370.706 544.794 358.706ZM547.794 379.706 547.794 384.148 544.794 384.148 544.794 379.706ZM550.794 382.648 546.294 391.648 541.794 382.648Z"/><rect x="4.50005" y="4.50005" width="322" height="49" stroke="#595959" stroke-width="1.33333" stroke-miterlimit="8" fill="#5B9BD5"/><text fill="#FFFFFF" font-family="Calibri,Calibri_MSFontService,sans-serif" font-weight="400" font-size="24" transform="translate(20.9812 37)">emp_results_01_17_2023.tsv</text><rect x="4.50005" y="68.5001" width="322" height="49" stroke="#595959" stroke-width="1.33333" stroke-miterlimit="8" fill="#F4B183"/><text font-family="Calibri,Calibri_MSFontService,sans-serif" font-weight="400" font-size="24" transform="translate(37.6745 101)">Phecode</text><text font-family="Calibri,Calibri_MSFontService,sans-serif" font-weight="400" font-size="24" transform="translate(127.475 101)">-</text><text font-family="Calibri,Calibri_MSFontService,sans-serif" font-weight="400" font-size="24" transform="translate(140.308 101)">LOINC Pair Files</text><rect x="4.50005" y="132.5" width="322" height="49" stroke="#595959" stroke-width="1.33333" stroke-miterlimit="8" fill="#F4B183"/><text font-family="Calibri,Calibri_MSFontService,sans-serif" font-weight="400" font-size="24" transform="translate(41.1412 165)">Processed Covariate Data</text><rect x="4.50005" y="197.5" width="322" height="48" stroke="#595959" stroke-width="1.33333" stroke-miterlimit="8" fill="#F4B183"/><text font-family="Calibri,Calibri_MSFontService,sans-serif" font-weight="400" font-size="24" transform="translate(75.2012 229)">Healthy Birth Data</text><rect x="4.50005" y="261.5" width="322" height="49" stroke="#595959" stroke-width="1.33333" stroke-miterlimit="8" fill="#F4B183"/><text font-family="Calibri,Calibri_MSFontService,sans-serif" font-weight="400" font-size="24" transform="translate(59.8745 293)">LOINC Test Dictionary</text><rect x="4.50005" y="325.5" width="322" height="49" stroke="#595959" stroke-width="1.33333" stroke-miterlimit="8" fill="#F4B183"/><text font-family="Calibri,Calibri_MSFontService,sans-serif" font-weight="400" font-size="24" transform="translate(65.7112 357)">Pathogen</text><text font-family="Calibri,Calibri_MSFontService,sans-serif" font-weight="400" font-size="24" transform="translate(163.445 357)">Dictionary</text><path d="M804.5 32.5001 1134.5 32.5001 1158.5 56.5001 1158.5 80.5 1158.5 80.5 828.5 80.5 804.5 56.5001 804.5 32.5001Z" stroke="#595959" stroke-width="1.33333" stroke-miterlimit="8" fill="#C9C9C9" fill-rule="evenodd"/><text font-family="Calibri,Calibri_MSFontService,sans-serif" font-weight="400" font-size="24" transform="translate(863.291 64)">helper_functions_pub.R</text><path d="M804.5 109.5 1134.5 109.5 1158.5 133.5 1158.5 157.5 1158.5 157.5 828.5 157.5 804.5 133.5 804.5 109.5Z" stroke="#595959" stroke-width="1.33333" stroke-miterlimit="8" fill="#C9C9C9" fill-rule="evenodd"/><text font-family="Calibri,Calibri_MSFontService,sans-serif" font-weight="400" font-size="24" transform="translate(856.901 141)">analysis_functions_pub.R</text><path d="M369.5 391.5 698.5 391.5 722.5 415.5 722.5 439.5 722.5 439.5 393.5 439.5 369.5 415.5 369.5 391.5Z" stroke="#595959" stroke-width="1.33333" stroke-miterlimit="8" fill="#F4B183" fill-rule="evenodd"/><text font-family="Calibri,Calibri_MSFontService,sans-serif" font-weight="400" font-size="24" transform="translate(403.153 423)">tnx_phecode_analysis_pub.R</text><rect x="360.5" y="475.5" width="370" height="61" stroke="#595959" stroke-width="1.33333" stroke-miterlimit="8" fill="#C5E0B4"/><text font-family="Calibri,Calibri_MSFontService,sans-serif" font-weight="400" font-size="24" transform="translate(392.647 499)">Per</text><text font-family="Calibri,Calibri_MSFontService,sans-serif" font-weight="400" font-size="24" transform="translate(424.833 499)">-</text><text font-family="Calibri,Calibri_MSFontService,sans-serif" font-weight="400" font-size="24" transform="translate(432.167 499)">Phecode</text><text font-family="Calibri,Calibri_MSFontService,sans-serif" font-weight="400" font-size="24" transform="translate(516.467 499)">-</text><text font-family="Calibri,Calibri_MSFontService,sans-serif" font-weight="400" font-size="24" transform="translate(523.8 499)">LOINC</text><text font-family="Calibri,Calibri_MSFontService,sans-serif" font-weight="400" font-size="24" transform="translate(589.107 499)">Results File</text><text font-family="Calibri,Calibri_MSFontService,sans-serif" font-weight="400" font-size="24" transform="translate(377.427 528)">[</text><text font-family="Calibri,Calibri_MSFontService,sans-serif" font-weight="400" font-size="24" transform="translate(384.76 528)">694.2/694.2_32362</text><text font-family="Calibri,Calibri_MSFontService,sans-serif" font-weight="400" font-size="24" transform="translate(576.26 528)">-</text><text font-family="Calibri,Calibri_MSFontService,sans-serif" font-weight="400" font-size="24" transform="translate(583.593 528)">6</text><text font-family="Calibri,Calibri_MSFontService,sans-serif" font-weight="400" font-size="24" transform="translate(595.76 528)">_</text><text font-family="Calibri,Calibri_MSFontService,sans-serif" font-weight="400" font-size="24" transform="translate(607.76 528)">results.tsv]</text><path d="M1.5-4.23245e-06 1.50003 12-1.49997 12-1.5 4.23245e-06ZM1.50006 21 1.50008 29.7079-1.49992 29.7079-1.49994 21ZM4.50008 28.2079 0.000104987 37.2079-4.49992 28.2079Z" transform="matrix(-1 0 0 1 1043.5 377.5)"/><path d="M877.5 310.5 1173 310.5 1209.5 347 1209.5 383.5 1209.5 383.5 914 383.5 877.5 347 877.5 310.5Z" stroke="#595959" stroke-width="1.33333" stroke-miterlimit="8" fill="#C9C9C9" fill-rule="evenodd"/><text font-family="Calibri,Calibri_MSFontService,sans-serif" font-weight="400" font-size="24" transform="translate(920.879 340)">cat</text><text font-family="Calibri,Calibri_MSFontService,sans-serif" font-weight="400" font-size="24" transform="translate(955.626 340)">694.2/</text><text font-family="Calibri,Calibri_MSFontService,sans-serif" font-weight="400" font-size="24" transform="translate(1019.63 340)">*_</text><text font-family="Calibri,Calibri_MSFontService,sans-serif" font-weight="400" font-size="24" transform="translate(1043.63 340)">results.tsv</text><text font-family="Calibri,Calibri_MSFontService,sans-serif" font-weight="400" font-size="24" transform="translate(1152.77 340)">&gt;</text><text font-family="Calibri,Calibri_MSFontService,sans-serif" font-weight="400" font-size="24" transform="translate(943.166 369)">all</text><text font-family="Calibri,Calibri_MSFontService,sans-serif" font-weight="400" font-size="24" transform="translate(965.666 369)">_</text><text font-family="Calibri,Calibri_MSFontService,sans-serif" font-weight="400" font-size="24" transform="translate(977.666 369)">results</text><text font-family="Calibri,Calibri_MSFontService,sans-serif" font-weight="400" font-size="24" transform="translate(1042.52 369)">_694.2</text><text font-family="Calibri,Calibri_MSFontService,sans-serif" font-weight="400" font-size="24" transform="translate(1109.19 369)">.</text><text font-family="Calibri,Calibri_MSFontService,sans-serif" font-weight="400" font-size="24" transform="translate(1114.67 369)">tsv</text><rect x="890.5" y="415.5" width="306" height="60" stroke="#595959" stroke-width="1.33333" stroke-miterlimit="8" fill="#C5E0B4"/><text font-family="Calibri,Calibri_MSFontService,sans-serif" font-weight="400" font-size="24" transform="translate(902.472 438)">Results for all</text><text font-family="Calibri,Calibri_MSFontService,sans-serif" font-weight="400" font-size="24" transform="translate(1038.71 438)">Phecode 694.2</text><text font-family="Calibri,Calibri_MSFontService,sans-serif" font-weight="400" font-size="24" transform="translate(935.839 467)">[</text><text font-family="Calibri,Calibri_MSFontService,sans-serif" font-weight="400" font-size="24" transform="translate(943.172 467)">all_results_694.2.tsv</text><text font-family="Calibri,Calibri_MSFontService,sans-serif" font-weight="400" font-size="24" transform="translate(1142.49 467)">]</text><path d="M0-1.5 12-1.5 12 1.5 0 1.5ZM21-1.5 33-1.5 33 1.5 21 1.5ZM42-1.5 54-1.5 54 1.5 42 1.5ZM63-1.5 74.8418-1.5 74.8418 1.65823 71.8418 1.65823 71.8418 0 73.3418 1.5 63 1.5ZM74.8418 10.6582 74.8418 22.6582 71.8418 22.6582 71.8418 10.6582ZM74.8418 31.6582 74.8418 43.6582 71.8418 43.6582 71.8418 31.6582ZM74.8418 52.6582 74.8418 64.6582 71.8418 64.6582 71.8418 52.6582ZM74.8418 73.6582 74.8418 85.6582 71.8418 85.6582 71.8418 73.6582ZM74.8418 94.6582 74.8418 106.658 71.8418 106.658 71.8418 94.6582ZM74.8418 115.658 74.8418 127.658 71.8418 127.658 71.8418 115.658ZM74.8418 136.658 74.8418 148.658 71.8418 148.658 71.8418 136.658ZM74.8418 157.658 74.8418 158.594 73.3418 157.094 84.4057 157.094 84.4057 160.094 71.8418 160.094 71.8418 157.658ZM93.4057 157.094 105.406 157.094 105.406 160.094 93.4057 160.094ZM114.406 157.094 126.406 157.094 126.406 160.094 114.406 160.094ZM135.406 157.094 139.183 157.094 139.183 160.094 135.406 160.094ZM137.683 154.094 146.683 158.594 137.683 163.094Z" transform="matrix(1 0 0 -1 730.5 506.094)"/><path d="M877.5 528.5 1173 528.5 1209.5 565 1209.5 601.5 1209.5 601.5 914 601.5 877.5 565 877.5 528.5Z" stroke="#595959" stroke-width="1.33333" stroke-miterlimit="8" fill="#C9C9C9" fill-rule="evenodd"/><text font-family="Calibri,Calibri_MSFontService,sans-serif" font-weight="400" font-size="24" transform="translate(935.632 557)">cat</text><text font-family="Calibri,Calibri_MSFontService,sans-serif" font-weight="400" font-size="24" transform="translate(970.379 557)">all_results</text><text font-family="Calibri,Calibri_MSFontService,sans-serif" font-weight="400" font-size="24" transform="translate(1069.73 557)">_*</text><text font-family="Calibri,Calibri_MSFontService,sans-serif" font-weight="400" font-size="24" transform="translate(1093.73 557)">.</text><text font-family="Calibri,Calibri_MSFontService,sans-serif" font-weight="400" font-size="24" transform="translate(1099.22 557)">tsv</text><text font-family="Calibri,Calibri_MSFontService,sans-serif" font-weight="400" font-size="24" transform="translate(1138.03 557)">&gt;</text><text font-family="Calibri,Calibri_MSFontService,sans-serif" font-weight="400" font-size="24" transform="translate(924.046 586)">tnx_phecode_</text><text font-family="Calibri,Calibri_MSFontService,sans-serif" font-weight="400" font-size="24" transform="translate(1063.46 586)">results.</text><text font-family="Calibri,Calibri_MSFontService,sans-serif" font-weight="400" font-size="24" transform="translate(1133.8 586)">tsv</text><rect x="890.5" y="635.5" width="306" height="61" stroke="#595959" stroke-width="1.33333" stroke-miterlimit="8" fill="#C5E0B4"/><text font-family="Calibri,Calibri_MSFontService,sans-serif" font-weight="400" font-size="24" transform="translate(927.889 659)">Results for all</text><text font-family="Calibri,Calibri_MSFontService,sans-serif" font-weight="400" font-size="24" transform="translate(1064.13 659)">Phecodes</text><text font-family="Calibri,Calibri_MSFontService,sans-serif" font-weight="400" font-size="24" transform="translate(899.462 688)">[</text><text font-family="Calibri,Calibri_MSFontService,sans-serif" font-weight="400" font-size="24" transform="translate(906.796 688)">tnx_phecode_all_results.tsv</text><text font-family="Calibri,Calibri_MSFontService,sans-serif" font-weight="400" font-size="24" transform="translate(1178.86 688)">]</text><path d="M1045 465.5 1045 477.5 1042 477.5 1042 465.5ZM1045 486.5 1045 498.5 1042 498.5 1042 486.5ZM1045 507.5 1045 519.5 1042 519.5 1042 507.5ZM1048 518.84 1043.5 527.84 1039 518.84Z"/><path d="M1.5-4.55087e-06 1.50004 12-1.49996 12-1.5 4.55087e-06ZM1.50006 21 1.50008 27.1044-1.49992 27.1044-1.49994 21ZM4.50008 25.6044 0.000104987 34.6044-4.49992 25.6044Z" transform="matrix(-1 0 0 1 1043.5 601.5)"/></g></svg>