<svg width="1280" height="720" xmlns="http://www.w3.org/2000/svg" xmlns:xlink="http://www.w3.org/1999/xlink" overflow="hidden"><g><rect x="0" y="0" width="1280" height="720" fill="#FFFFFF"/><text font-family="Arial,Arial_MSFontService,sans-serif" font-weight="400" font-size="43" transform="translate(9.6 704)">TNX</text><text font-family="Arial,Arial_MSFontService,sans-serif" font-weight="400" font-size="43" transform="translate(106.767 704)">Phecode</text><text font-family="Arial,Arial_MSFontService,sans-serif" font-weight="400" font-size="43" transform="translate(286.767 704)">Data</text><text font-family="Arial,Arial_MSFontService,sans-serif" font-weight="400" font-size="43" transform="translate(388.6 704)">Prep</text><path d="M248 72.5 248 84.5 245 84.5001 245 72.5001ZM248 93.5 248 100.128 245 100.128 245 93.5001ZM251 98.6276 246.5 107.628 242 98.6276Z"/><path d="M1.5-4.18667e-06 1.50003 12-1.49997 12-1.5 4.18667e-06ZM1.50006 21 1.50008 30.1147-1.49992 30.1147-1.49994 21ZM4.50008 28.6147 0.000104987 37.6147-4.49992 28.6147Z" transform="matrix(-1 0 0 1 246.5 320.5)"/><rect x="86.5001" y="23.5001" width="321" height="49" stroke="#595959" stroke-width="1.33333" stroke-miterlimit="8" fill="#F4B183"/><text font-family="Calibri,Calibri_MSFontService,sans-serif" font-weight="400" font-size="24" transform="translate(147.49 55)">Raw TNX data dump</text><path d="M62.5001 107.5 407.5 107.5 431.5 131.5 431.5 155.5 431.5 155.5 86.5 155.5 62.5001 131.5 62.5001 107.5Z" stroke="#595959" stroke-width="1.33333" stroke-miterlimit="8" fill="#C9C9C9" fill-rule="evenodd"/><text font-family="Calibri,Calibri_MSFontService,sans-serif" font-weight="400" font-size="24" transform="translate(195.884 139)">GNU Tools</text><rect x="103.5" y="189.5" width="287" height="49" stroke="#595959" stroke-width="1.33333" stroke-miterlimit="8" fill="#C5E0B4"/><text font-family="Calibri,Calibri_MSFontService,sans-serif" font-weight="400" font-size="24" transform="translate(125.234 221)">3</text><text font-family="Calibri,Calibri_MSFontService,sans-serif" font-weight="400" font-size="24" transform="translate(137.4 221)">-</text><text font-family="Calibri,Calibri_MSFontService,sans-serif" font-weight="400" font-size="24" transform="translate(144.734 221)">char</text><text font-family="Calibri,Calibri_MSFontService,sans-serif" font-weight="400" font-size="24" transform="translate(192.9 221)">ICD</text><text font-family="Calibri,Calibri_MSFontService,sans-serif" font-weight="400" font-size="24" transform="translate(232.067 221)">diagnos</text><text font-family="Calibri,Calibri_MSFontService,sans-serif" font-weight="400" font-size="24" transform="translate(307.734 221)">is</text><text font-family="Calibri,Calibri_MSFontService,sans-serif" font-weight="400" font-size="24" transform="translate(328.067 221)">files</text><path d="M39.5001 272.5 430.5 272.5 454.5 296.5 454.5 320.5 454.5 320.5 63.5001 320.5 39.5001 296.5 39.5001 272.5Z" stroke="#595959" stroke-width="1.33333" stroke-miterlimit="8" fill="#F4B183" fill-rule="evenodd"/><text font-family="Calibri,Calibri_MSFontService,sans-serif" font-weight="400" font-size="24" transform="translate(61.6703 304)">tnx_phecode_chunking_diags_pub.py</text><rect x="74.5001" y="358.5" width="345" height="49" stroke="#595959" stroke-width="1.33333" stroke-miterlimit="8" fill="#C5E0B4"/><text font-family="Calibri,Calibri_MSFontService,sans-serif" font-weight="400" font-size="24" transform="translate(93.0938 390)">3</text><text font-family="Calibri,Calibri_MSFontService,sans-serif" font-weight="400" font-size="24" transform="translate(105.26 390)">-</text><text font-family="Calibri,Calibri_MSFontService,sans-serif" font-weight="400" font-size="24" transform="translate(112.594 390)">char ICD diagnosis file chunks</text><path d="M248 155.5 248 167.5 245 167.5 245 155.5ZM248 176.5 248 181.981 245 181.981 245 176.5ZM251 180.481 246.5 189.481 242 180.481Z"/><path d="M248 238.5 248 250.5 245 250.5 245 238.5ZM248 259.5 248 264.981 245 264.981 245 259.5ZM251 263.481 246.5 272.481 242 263.481Z"/><rect x="101.5" y="557.5" width="291" height="49" stroke="#595959" stroke-width="1.33333" stroke-miterlimit="8" fill="#C5E0B4"/><text font-family="Calibri,Calibri_MSFontService,sans-serif" font-weight="400" font-size="24" transform="translate(126.95 589)">Processed Phecode Data</text><path d="M39.5001 456.5 430.5 456.5 454.5 480.5 454.5 504.5 454.5 504.5 63.5001 504.5 39.5001 480.5 39.5001 456.5Z" stroke="#595959" stroke-width="1.33333" stroke-miterlimit="8" fill="#F4B183" fill-rule="evenodd"/><text font-family="Calibri,Calibri_MSFontService,sans-serif" font-weight="400" font-size="24" transform="translate(89.8004 487)">tnx_phecode_translation_pub.R</text><path d="M248 407.5 248 419.5 245 419.5 245 407.5ZM248 428.5 248 440.5 245 440.5 245 428.5ZM251 447.285 246.5 456.285 242 447.285Z"/><path d="M248 504.5 248 516.5 245 516.5 245 504.5ZM248 525.5 248 537.5 245 537.5 245 525.5ZM248 546.5 248 549.918 245 549.918 245 546.5ZM251 548.418 246.5 557.418 242 548.418Z"/><path d="M0-1.5 12-1.5 12 1.5 0 1.5ZM21-1.5 33-1.5 33 1.5 21 1.5ZM42-1.5 54-1.5 54 1.5 42 1.5ZM57.3656 7.13438 57.3656 19.1344 54.3656 19.1344 54.3656 7.13438ZM57.3656 28.1344 57.3656 40.1344 54.3656 40.1344 54.3656 28.1344ZM57.3656 49.1344 57.3656 61.1344 54.3656 61.1344 54.3656 49.1344ZM57.3656 70.1344 57.3656 82.1344 54.3656 82.1344 54.3656 70.1344ZM57.3656 91.1344 57.3656 103.134 54.3656 103.134 54.3656 91.1344ZM57.3656 112.134 57.3656 124.134 54.3656 124.134 54.3656 112.134ZM57.3656 133.134 57.3656 145.134 54.3656 145.134 54.3656 133.134ZM57.3656 154.134 57.3656 156.292 55.8656 154.792 65.7082 154.792 65.7082 157.792 54.3656 157.792 54.3656 154.134ZM74.7082 154.792 86.7082 154.792 86.7082 157.792 74.7082 157.792ZM95.7082 154.792 104.231 154.792 104.231 157.792 95.7082 157.792ZM102.731 151.792 111.731 156.292 102.731 160.792Z" transform="matrix(1.83697e-16 1 1 -1.83697e-16 785.5 200.5)"/><path d="M1116.36 200.5 1116.36 212.5 1113.36 212.5 1113.36 200.5ZM1116.36 221.5 1116.36 233.5 1113.36 233.5 1113.36 221.5ZM1116.36 242.5 1116.36 254.5 1113.36 254.5 1113.36 242.5ZM1107.73 257.866 1095.73 257.866 1095.73 254.866 1107.73 254.866ZM1086.73 257.866 1074.73 257.866 1074.73 254.866 1086.73 254.866ZM1065.73 257.866 1053.73 257.866 1053.73 254.866 1065.73 254.866ZM1044.73 257.866 1032.73 257.866 1032.73 254.866 1044.73 254.866ZM1023.73 257.866 1011.73 257.866 1011.73 254.866 1023.73 254.866ZM1002.73 257.866 990.73 257.866 990.73 254.866 1002.73 254.866ZM981.73 257.866 969.73 257.866 969.73 254.866 981.73 254.866ZM960.73 257.866 948.73 257.866 948.73 254.866 960.73 254.866ZM943 258.136 943 270.136 940 270.136 940 258.136ZM943 279.136 943 291.136 940 291.136 940 279.136ZM943 300.136 943 304.731 940 304.731 940 300.136ZM946 303.231 941.5 312.231 937 303.231Z"/><path d="M782.5 311.5 1076.5 311.5 1100.5 335.5 1100.5 359.5 1100.5 359.5 806.5 359.5 782.5 335.5 782.5 311.5Z" stroke="#595959" stroke-width="1.33333" stroke-miterlimit="8" fill="#F4B183" fill-rule="evenodd"/><text font-family="Calibri,Calibri_MSFontService,sans-serif" font-weight="400" font-size="24" transform="translate(812.669 343)">tnx_icd_gen_pairs_pub.py</text><rect x="986.5" y="150.5" width="257" height="50" stroke="#595959" stroke-width="1.33333" stroke-miterlimit="8" fill="#F4B183"/><text font-family="Calibri,Calibri_MSFontService,sans-serif" font-weight="400" font-size="24" transform="translate(1035.75 183)">LOINC code files</text><rect x="639.5" y="150.5" width="292" height="50" stroke="#595959" stroke-width="1.33333" stroke-miterlimit="8" fill="#F4B183"/><text font-family="Calibri,Calibri_MSFontService,sans-serif" font-weight="400" font-size="24" transform="translate(665.45 183)">Processed Phecode Data</text><rect x="796.5" y="429.5" width="291" height="49" stroke="#595959" stroke-width="1.33333" stroke-miterlimit="8" fill="#C5E0B4"/><text font-family="Calibri,Calibri_MSFontService,sans-serif" font-weight="400" font-size="24" transform="translate(814.312 461)">Phecode</text><text font-family="Calibri,Calibri_MSFontService,sans-serif" font-weight="400" font-size="24" transform="translate(904.112 461)">-</text><text font-family="Calibri,Calibri_MSFontService,sans-serif" font-weight="400" font-size="24" transform="translate(916.945 461)">LOINC Pair Files</text><path d="M943 359.5 943 371.5 940 371.5 940 359.5ZM943 380.5 943 392.5 940 392.5 940 380.5ZM943 401.5 943 413.5 940 413.5 940 401.5ZM946 420.572 941.5 429.572 937 420.572Z"/></g></svg>