<svg width="1280" height="720" xmlns="http://www.w3.org/2000/svg" xmlns:xlink="http://www.w3.org/1999/xlink" overflow="hidden"><g><rect x="0" y="0" width="1280" height="720" fill="#FFFFFF"/><text font-family="Arial,Arial_MSFontService,sans-serif" font-weight="400" font-size="43" transform="translate(9.6 704)">TNX</text><text font-family="Arial,Arial_MSFontService,sans-serif" font-weight="400" font-size="43" transform="translate(106.767 704)">ICD</text><text font-family="Arial,Arial_MSFontService,sans-serif" font-weight="400" font-size="43" transform="translate(189.747 704)">Analysis</text><path d="M326.5 28.0001 338.5 28.0001 338.5 31.0001 326.5 31.0001ZM347.5 28.0001 359.5 28.0001 359.5 31.0001 347.5 31.0001ZM368.5 28.0001 380.5 28.0001 380.5 31.0001 368.5 31.0001ZM389.5 28.0001 401.5 28.0001 401.5 31.0001 389.5 31.0001ZM410.5 28.0001 422.5 28.0001 422.5 31.0001 410.5 31.0001ZM431.5 28.0001 443.5 28.0001 443.5 31.0001 431.5 31.0001ZM452.5 28.0001 464.5 28.0001 464.5 31.0001 452.5 31.0001ZM473.5 28.0001 485.5 28.0001 485.5 31.0001 473.5 31.0001ZM494.5 28.0001 506.5 28.0001 506.5 31.0001 494.5 31.0001ZM515.5 28.0001 527.5 28.0001 527.5 31.0001 515.5 31.0001ZM536.5 28.0001 547.794 28.0001 547.794 31.706 544.794 31.706 544.794 29.5001 546.294 31.0001 536.5 31.0001ZM547.794 40.706 547.794 52.706 544.794 52.706 544.794 40.706ZM547.794 61.706 547.794 73.706 544.794 73.706 544.794 61.706ZM547.794 82.706 547.794 94.706 544.794 94.706 544.794 82.706ZM547.794 103.706 547.794 115.706 544.794 115.706 544.794 103.706ZM547.794 124.706 547.794 136.706 544.794 136.706 544.794 124.706ZM547.794 145.706 547.794 157.706 544.794 157.706 544.794 145.706ZM547.794 166.706 547.794 178.706 544.794 178.706 544.794 166.706ZM547.794 187.706 547.794 199.706 544.794 199.706 544.794 187.706ZM547.794 208.706 547.794 220.706 544.794 220.706 544.794 208.706ZM547.794 229.706 547.794 241.706 544.794 241.706 544.794 229.706ZM547.794 250.706 547.794 262.706 544.794 262.706 544.794 250.706ZM547.794 271.706 547.794 283.706 544.794 283.706 544.794 271.706ZM547.794 292.706 547.794 304.706 544.794 304.706 544.794 292.706ZM547.794 313.706 547.794 325.706 544.794 325.706 544.794 313.706ZM547.794 334.706 547.794 346.706 544.794 346.706 544.794 334.706ZM547.794 355.706 547.794 367.706 544.794 367.706 544.794 355.706ZM547.794 376.706 547.794 388.706 544.794 388.706 544.794 376.706ZM547.794 397.706 547.794 409.706 544.794 409.706 544.794 397.706ZM547.794 418.706 547.794 430.706 544.794 430.706 544.794 418.706ZM547.794 439.706 547.794 449.458 544.794 449.458 544.794 439.706ZM550.794 447.958 546.294 456.958 541.794 447.958Z"/><path d="M326.5 164 338.5 164 338.5 167 326.5 167ZM347.5 164 359.5 164 359.5 167 347.5 167ZM368.5 164 380.5 164 380.5 167 368.5 167ZM389.5 164 401.5 164 401.5 167 389.5 167ZM410.5 164 422.5 164 422.5 167 410.5 167ZM431.5 164 443.5 164 443.5 167 431.5 167ZM452.5 164 464.5 164 464.5 167 452.5 167ZM473.5 164 485.5 164 485.5 167 473.5 167ZM494.5 164 506.5 164 506.5 167 494.5 167ZM515.5 164 527.5 164 527.5 167 515.5 167ZM536.5 164 547.794 164 547.794 167.706 544.794 167.706 544.794 165.5 546.294 167 536.5 167ZM547.794 176.706 547.794 188.706 544.794 188.706 544.794 176.706ZM547.794 197.706 547.794 209.706 544.794 209.706 544.794 197.706ZM547.794 218.706 547.794 230.706 544.794 230.706 544.794 218.706ZM547.794 239.706 547.794 251.706 544.794 251.706 544.794 239.706ZM547.794 260.706 547.794 272.706 544.794 272.706 544.794 260.706ZM547.794 281.706 547.794 293.706 544.794 293.706 544.794 281.706ZM547.794 302.706 547.794 314.706 544.794 314.706 544.794 302.706ZM547.794 323.706 547.794 335.706 544.794 335.706 544.794 323.706ZM547.794 344.706 547.794 356.706 544.794 356.706 544.794 344.706ZM547.794 365.706 547.794 377.706 544.794 377.706 544.794 365.706ZM547.794 386.706 547.794 398.706 544.794 398.706 544.794 386.706ZM547.794 407.706 547.794 419.706 544.794 419.706 544.794 407.706ZM547.794 428.706 547.794 440.706 544.794 440.706 544.794 428.706ZM550.794 447.558 546.294 456.558 541.794 447.558Z"/><path d="M326.5 301 338.5 301 338.5 304 326.5 304ZM347.5 301 359.5 301 359.5 304 347.5 304ZM368.5 301 380.5 301 380.5 304 368.5 304ZM389.5 301 401.5 301 401.5 304 389.5 304ZM410.5 301 422.5 301 422.5 304 410.5 304ZM431.5 301 443.5 301 443.5 304 431.5 304ZM452.5 301 464.5 301 464.5 304 452.5 304ZM473.5 301 485.5 301 485.5 304 473.5 304ZM494.5 301 506.5 301 506.5 304 494.5 304ZM515.5 301 527.5 301 527.5 304 515.5 304ZM536.5 301 547.794 301 547.794 304.706 544.794 304.706 544.794 302.5 546.294 304 536.5 304ZM547.794 313.706 547.794 325.706 544.794 325.706 544.794 313.706ZM547.794 334.706 547.794 346.706 544.794 346.706 544.794 334.706ZM547.794 355.706 547.794 367.706 544.794 367.706 544.794 355.706ZM547.794 376.706 547.794 388.706 544.794 388.706 544.794 376.706ZM547.794 397.706 547.794 409.706 544.794 409.706 544.794 397.706ZM547.794 418.706 547.794 430.706 544.794 430.706 544.794 418.706ZM547.794 439.706 547.794 449.657 544.794 449.657 544.794 439.706ZM550.794 448.157 546.294 457.157 541.794 448.157Z"/><path d="M326.5 369 338.5 369 338.5 372 326.5 372ZM347.5 369 359.5 369 359.5 372 347.5 372ZM368.5 369 380.5 369 380.5 372 368.5 372ZM389.5 369 401.5 369 401.5 372 389.5 372ZM410.5 369 422.5 369 422.5 372 410.5 372ZM431.5 369 443.5 369 443.5 372 431.5 372ZM452.5 369 464.5 369 464.5 372 452.5 372ZM473.5 369 485.5 369 485.5 372 473.5 372ZM494.5 369 506.5 369 506.5 372 494.5 372ZM515.5 369 527.5 369 527.5 372 515.5 372ZM536.5 369 547.794 369 547.794 372.706 544.794 372.706 544.794 370.5 546.294 372 536.5 372ZM547.794 381.706 547.794 393.706 544.794 393.706 544.794 381.706ZM547.794 402.706 547.794 414.706 544.794 414.706 544.794 402.706ZM547.794 423.706 547.794 435.706 544.794 435.706 544.794 423.706ZM547.794 444.706 547.794 449.457 544.794 449.457 544.794 444.706ZM550.794 447.957 546.294 456.957 541.794 447.957Z"/><path d="M326.5 437 338.5 437 338.5 440 326.5 440ZM347.5 437 359.5 437 359.5 440 347.5 440ZM368.5 437 380.5 437 380.5 440 368.5 440ZM389.5 437 401.5 437 401.5 440 389.5 440ZM410.5 437 422.5 437 422.5 440 410.5 440ZM431.5 437 443.5 437 443.5 440 431.5 440ZM452.5 437 464.5 437 464.5 440 452.5 440ZM473.5 437 485.5 437 485.5 440 473.5 440ZM494.5 437 506.5 437 506.5 440 494.5 440ZM515.5 437 527.5 437 527.5 440 515.5 440ZM536.5 437 547.794 437 547.794 440.706 544.794 440.706 544.794 438.5 546.294 440 536.5 440ZM550.794 447.756 546.294 456.756 541.794 447.756Z"/><path d="M0-1.5 12-1.5 12 1.5 0 1.5ZM21-1.5 33-1.5 33 1.5 21 1.5ZM42-1.5 54-1.5 54 1.5 42 1.5ZM63-1.5 75-1.5 75 1.5 63 1.5ZM79.283 6.21696 79.283 18.217 76.283 18.217 76.283 6.21696ZM79.283 27.217 79.283 39.217 76.283 39.217 76.283 27.217ZM79.283 48.217 79.283 60.217 76.283 60.217 76.283 48.217ZM79.283 69.2169 79.283 81.2169 76.283 81.2169 76.283 69.2169ZM79.283 90.2169 79.283 102.217 76.283 102.217 76.283 90.2169ZM79.283 111.217 79.283 123.217 76.283 123.217 76.283 111.217ZM79.283 132.217 79.283 144.217 76.283 144.217 76.283 132.217ZM79.283 153.217 79.283 165.217 76.283 165.217 76.283 153.217ZM79.283 174.217 79.283 186.217 76.283 186.217 76.283 174.217ZM79.283 195.217 79.283 207.217 76.283 207.217 76.283 195.217ZM79.283 216.217 79.283 228.217 76.283 228.217 76.283 216.217ZM79.283 237.217 79.283 249.217 76.283 249.217 76.283 237.217ZM79.283 258.217 79.283 260.574 77.783 259.074 87.4258 259.074 87.4258 262.074 76.283 262.074 76.283 258.217ZM96.4258 259.074 108.426 259.074 108.426 262.074 96.4258 262.074ZM117.426 259.074 129.426 259.074 129.426 262.074 117.426 262.074ZM138.426 259.074 148.066 259.074 148.066 262.074 138.426 262.074ZM146.566 256.074 155.566 260.574 146.566 265.074Z" transform="matrix(-1 1.22465e-16 1.22465e-16 1 878.066 220.5)"/><path d="M0-1.5 12-1.5 12 1.5 0 1.5ZM21-1.5 33-1.5 33 1.5 21 1.5ZM42-1.5 54-1.5 54 1.5 42 1.5ZM63-1.5 75-1.5 75 1.5 63 1.5ZM79.2831 6.21686 79.2831 18.2169 76.2831 18.2169 76.2831 6.21686ZM79.2831 27.2169 79.2831 39.2169 76.2831 39.2169 76.2831 27.2169ZM79.2831 48.2169 79.2831 60.2169 76.2831 60.2169 76.2831 48.2169ZM79.2831 69.2169 79.2831 81.2169 76.2831 81.2169 76.2831 69.2169ZM79.2831 90.2169 79.2831 102.217 76.2831 102.217 76.2831 90.2169ZM79.2831 111.217 79.2831 123.217 76.2831 123.217 76.2831 111.217ZM79.2831 132.217 79.2831 144.217 76.2831 144.217 76.2831 132.217ZM79.2831 153.217 79.2831 165.217 76.2831 165.217 76.2831 153.217ZM79.2831 174.217 79.2831 183.982 77.7831 182.482 80.0175 182.482 80.0175 185.482 76.2831 185.482 76.2831 174.217ZM89.0175 182.482 101.018 182.482 101.018 185.482 89.0175 185.482ZM110.018 182.482 122.018 182.482 122.018 185.482 110.018 185.482ZM131.018 182.482 143.018 182.482 143.018 185.482 131.018 185.482ZM146.566 179.482 155.566 183.982 146.566 188.482Z" transform="matrix(-1 1.22465e-16 1.22465e-16 1 878.066 296.5)"/><path d="M547 504.5 547 516.5 544 516.5 544 504.5ZM547 525.5 547 537.5 544 537.5 544 525.5ZM550 540.622 545.5 549.622 541 540.622Z"/><path d="M326.5 96.0001 338.5 96.0001 338.5 99.0001 326.5 99.0001ZM347.5 96.0001 359.5 96.0001 359.5 99.0001 347.5 99.0001ZM368.5 96.0001 380.5 96.0001 380.5 99.0001 368.5 99.0001ZM389.5 96.0001 401.5 96.0001 401.5 99.0001 389.5 99.0001ZM410.5 96.0001 422.5 96.0001 422.5 99.0001 410.5 99.0001ZM431.5 96.0001 443.5 96.0001 443.5 99.0001 431.5 99.0001ZM452.5 96.0001 464.5 96.0001 464.5 99.0001 452.5 99.0001ZM473.5 96.0001 485.5 96.0001 485.5 99.0001 473.5 99.0001ZM494.5 96.0001 506.5 96.0001 506.5 99.0001 494.5 99.0001ZM515.5 96.0001 527.5 96.0001 527.5 99.0001 515.5 99.0001ZM536.5 96.0001 547.794 96.0001 547.794 99.706 544.794 99.706 544.794 97.5001 546.294 99.0001 536.5 99.0001ZM547.794 108.706 547.794 120.706 544.794 120.706 544.794 108.706ZM547.794 129.706 547.794 141.706 544.794 141.706 544.794 129.706ZM547.794 150.706 547.794 162.706 544.794 162.706 544.794 150.706ZM547.794 171.706 547.794 183.706 544.794 183.706 544.794 171.706ZM547.794 192.706 547.794 204.706 544.794 204.706 544.794 192.706ZM547.794 213.706 547.794 225.706 544.794 225.706 544.794 213.706ZM547.794 234.706 547.794 246.706 544.794 246.706 544.794 234.706ZM547.794 255.706 547.794 267.706 544.794 267.706 544.794 255.706ZM547.794 276.706 547.794 288.706 544.794 288.706 544.794 276.706ZM547.794 297.706 547.794 309.706 544.794 309.706 544.794 297.706ZM547.794 318.706 547.794 330.706 544.794 330.706 544.794 318.706ZM547.794 339.706 547.794 351.706 544.794 351.706 544.794 339.706ZM547.794 360.706 547.794 372.706 544.794 372.706 544.794 360.706ZM547.794 381.706 547.794 393.706 544.794 393.706 544.794 381.706ZM547.794 402.706 547.794 414.706 544.794 414.706 544.794 402.706ZM547.794 423.706 547.794 435.706 544.794 435.706 544.794 423.706ZM547.794 444.706 547.794 449.258 544.794 449.258 544.794 444.706ZM550.794 447.758 546.294 456.758 541.794 447.758Z"/><path d="M326.5 233 338.5 233 338.5 236 326.5 236ZM347.5 233 359.5 233 359.5 236 347.5 236ZM368.5 233 380.5 233 380.5 236 368.5 236ZM389.5 233 401.5 233 401.5 236 389.5 236ZM410.5 233 422.5 233 422.5 236 410.5 236ZM431.5 233 443.5 233 443.5 236 431.5 236ZM452.5 233 464.5 233 464.5 236 452.5 236ZM473.5 233 485.5 233 485.5 236 473.5 236ZM494.5 233 506.5 233 506.5 236 494.5 236ZM515.5 233 527.5 233 527.5 236 515.5 236ZM536.5 233 547.794 233 547.794 236.706 544.794 236.706 544.794 234.5 546.294 236 536.5 236ZM547.794 245.706 547.794 257.706 544.794 257.706 544.794 245.706ZM547.794 266.706 547.794 278.706 544.794 278.706 544.794 266.706ZM547.794 287.706 547.794 299.706 544.794 299.706 544.794 287.706ZM547.794 308.706 547.794 320.706 544.794 320.706 544.794 308.706ZM547.794 329.706 547.794 341.706 544.794 341.706 544.794 329.706ZM547.794 350.706 547.794 362.706 544.794 362.706 544.794 350.706ZM547.794 371.706 547.794 383.706 544.794 383.706 544.794 371.706ZM547.794 392.706 547.794 404.706 544.794 404.706 544.794 392.706ZM547.794 413.706 547.794 425.706 544.794 425.706 544.794 413.706ZM547.794 434.706 547.794 446.706 544.794 446.706 544.794 434.706ZM550.794 448.357 546.294 457.357 541.794 448.357Z"/><rect x="4.50005" y="4.50005" width="322" height="49" stroke="#595959" stroke-width="1.33333" stroke-miterlimit="8" fill="#5B9BD5"/><text fill="#FFFFFF" font-family="Calibri,Calibri_MSFontService,sans-serif" font-weight="400" font-size="24" transform="translate(20.9812 37)">emp_results_01_17_2023.tsv</text><rect x="4.50005" y="73.5001" width="322" height="49" stroke="#595959" stroke-width="1.33333" stroke-miterlimit="8" fill="#F4B183"/><text font-family="Calibri,Calibri_MSFontService,sans-serif" font-weight="400" font-size="24" transform="translate(38.9912 105)">Diagnosis</text><text font-family="Calibri,Calibri_MSFontService,sans-serif" font-weight="400" font-size="24" transform="translate(131.658 105)">-</text><text font-family="Calibri,Calibri_MSFontService,sans-serif" font-weight="400" font-size="24" transform="translate(138.991 105)">LOINC Pair Files</text><rect x="4.50005" y="141.5" width="322" height="49" stroke="#595959" stroke-width="1.33333" stroke-miterlimit="8" fill="#F4B183"/><text font-family="Calibri,Calibri_MSFontService,sans-serif" font-weight="400" font-size="24" transform="translate(41.1412 173)">Processed Covariate Data</text><rect x="4.50005" y="209.5" width="322" height="49" stroke="#595959" stroke-width="1.33333" stroke-miterlimit="8" fill="#F4B183"/><text font-family="Calibri,Calibri_MSFontService,sans-serif" font-weight="400" font-size="24" transform="translate(75.2012 241)">Healthy Birth Data</text><rect x="4.50005" y="277.5" width="322" height="49" stroke="#595959" stroke-width="1.33333" stroke-miterlimit="8" fill="#F4B183"/><text font-family="Calibri,Calibri_MSFontService,sans-serif" font-weight="400" font-size="24" transform="translate(59.8745 309)">LOINC Test Dictionary</text><rect x="4.50005" y="345.5" width="322" height="49" stroke="#595959" stroke-width="1.33333" stroke-miterlimit="8" fill="#F4B183"/><text font-family="Calibri,Calibri_MSFontService,sans-serif" font-weight="400" font-size="24" transform="translate(65.7112 378)">Pathogen</text><text font-family="Calibri,Calibri_MSFontService,sans-serif" font-weight="400" font-size="24" transform="translate(163.445 378)">Dictionary</text><rect x="4.50005" y="414.5" width="322" height="49" stroke="#595959" stroke-width="1.33333" stroke-miterlimit="8" fill="#C9C9C9"/><text font-family="Calibri,Calibri_MSFontService,sans-serif" font-weight="400" font-size="24" transform="translate(15.3412 446)">Sex</text><text font-family="Calibri,Calibri_MSFontService,sans-serif" font-weight="400" font-size="24" transform="translate(48.3145 446)">-</text><text font-family="Calibri,Calibri_MSFontService,sans-serif" font-weight="400" font-size="24" transform="translate(55.6479 446)">specific Disease Dictionary</text><path d="M878.5 196.5 1207.5 196.5 1231.5 220.5 1231.5 244.5 1231.5 244.5 902.5 244.5 878.5 220.5 878.5 196.5Z" stroke="#595959" stroke-width="1.33333" stroke-miterlimit="8" fill="#C9C9C9" fill-rule="evenodd"/><text font-family="Calibri,Calibri_MSFontService,sans-serif" font-weight="400" font-size="24" transform="translate(936.649 227)">helper_functions_pub.R</text><path d="M878.5 272.5 1207.5 272.5 1231.5 296.5 1231.5 320.5 1231.5 320.5 902.5 320.5 878.5 296.5 878.5 272.5Z" stroke="#595959" stroke-width="1.33333" stroke-miterlimit="8" fill="#C9C9C9" fill-rule="evenodd"/><text font-family="Calibri,Calibri_MSFontService,sans-serif" font-weight="400" font-size="24" transform="translate(930.259 304)">analysis_functions_pub.R</text><path d="M369.5 456.5 698.5 456.5 722.5 480.5 722.5 504.5 722.5 504.5 393.5 504.5 369.5 480.5 369.5 456.5Z" stroke="#595959" stroke-width="1.33333" stroke-miterlimit="8" fill="#F4B183" fill-rule="evenodd"/><text font-family="Calibri,Calibri_MSFontService,sans-serif" font-weight="400" font-size="24" transform="translate(431.303 488)">tnx_icd_analysis_pub.R</text><rect x="384.5" y="549.5" width="322" height="61" stroke="#595959" stroke-width="1.33333" stroke-miterlimit="8" fill="#C5E0B4"/><text font-family="Calibri,Calibri_MSFontService,sans-serif" font-weight="400" font-size="24" transform="translate(451.533 573)">Per</text><text font-family="Calibri,Calibri_MSFontService,sans-serif" font-weight="400" font-size="24" transform="translate(483.72 573)">-</text><text font-family="Calibri,Calibri_MSFontService,sans-serif" font-weight="400" font-size="24" transform="translate(491.053 573)">ICD Results File</text><text font-family="Calibri,Calibri_MSFontService,sans-serif" font-weight="400" font-size="24" transform="translate(464.26 602)">[B20_results.tsv]</text><path d="M706.5 579 718.5 579 718.5 582 706.5 582ZM727.5 579 739.5 579 739.5 582 727.5 582ZM748.5 579 760.5 579 760.5 582 748.5 582ZM769.5 579 781.5 579 781.5 582 769.5 582ZM790.5 579 802.5 579 802.5 582 790.5 582ZM811.5 579 814.287 579 814.287 582 811.5 582ZM812.787 576 821.787 580.5 812.787 585Z"/><path d="M822.5 556.5 1254.5 556.5 1278.5 580.5 1278.5 604.5 1278.5 604.5 846.5 604.5 822.5 580.5 822.5 556.5Z" stroke="#595959" stroke-width="1.33333" stroke-miterlimit="8" fill="#C9C9C9" fill-rule="evenodd"/><text font-family="Calibri,Calibri_MSFontService,sans-serif" font-weight="400" font-size="24" transform="translate(846.529 587)">cat *_</text><text font-family="Calibri,Calibri_MSFontService,sans-serif" font-weight="400" font-size="24" transform="translate(905.275 587)">results.tsv</text><text font-family="Calibri,Calibri_MSFontService,sans-serif" font-weight="400" font-size="24" transform="translate(1014.42 587)">&gt;</text><text font-family="Calibri,Calibri_MSFontService,sans-serif" font-weight="400" font-size="24" transform="translate(1037.42 587)">tnx</text><text font-family="Calibri,Calibri_MSFontService,sans-serif" font-weight="400" font-size="24" transform="translate(1068.2 587)">_</text><text font-family="Calibri,Calibri_MSFontService,sans-serif" font-weight="400" font-size="24" transform="translate(1080.2 587)">icd_</text><text font-family="Calibri,Calibri_MSFontService,sans-serif" font-weight="400" font-size="24" transform="translate(1120.54 587)">all</text><text font-family="Calibri,Calibri_MSFontService,sans-serif" font-weight="400" font-size="24" transform="translate(1143.04 587)">_results.tsv</text><path d="M1052 604.5 1052 616.5 1049 616.5 1049 604.5ZM1052 625.5 1052 637.5 1049 637.5 1049 625.5ZM1052 646.5 1052 647.96 1049 647.96 1049 646.5ZM1055 646.46 1050.5 655.46 1046 646.46Z"/><rect x="917.5" y="655.5" width="265" height="60" stroke="#595959" stroke-width="1.33333" stroke-miterlimit="8" fill="#C5E0B4"/><text font-family="Calibri,Calibri_MSFontService,sans-serif" font-weight="400" font-size="24" transform="translate(960.235 678)">Results for all ICDs</text><text font-family="Calibri,Calibri_MSFontService,sans-serif" font-weight="400" font-size="24" transform="translate(934.642 707)">[</text><text font-family="Calibri,Calibri_MSFontService,sans-serif" font-weight="400" font-size="24" transform="translate(941.975 707)">tnx_icd_all_results.tsv</text><text font-family="Calibri,Calibri_MSFontService,sans-serif" font-weight="400" font-size="24" transform="translate(1157.74 707)">]</text></g></svg>