<svg width="1280" height="720" xmlns="http://www.w3.org/2000/svg" xmlns:xlink="http://www.w3.org/1999/xlink" overflow="hidden"><g><rect x="0" y="0" width="1280" height="720" fill="#FFFFFF"/><text font-family="Arial,Arial_MSFontService,sans-serif" font-weight="400" font-size="43" transform="translate(9.6 704)">UKB Permutation Analysis (continued)</text><path d="M428.5 141 440.5 141 440.5 144 428.5 144ZM449.5 141 461.5 141 461.5 144 449.5 144ZM470.5 141 482.5 141 482.5 144 470.5 144ZM491.5 141 503.5 141 503.5 144 491.5 144ZM512.5 141 524.5 141 524.5 144 512.5 144ZM533.5 141 545.5 141 545.5 144 533.5 144ZM554.5 141 566.5 141 566.5 144 554.5 144ZM575.5 141 587.5 141 587.5 144 575.5 144ZM596.5 141 608.5 141 608.5 144 596.5 144ZM617.5 141 629.5 141 629.5 144 617.5 144ZM638.5 141 650.5 141 650.5 144 638.5 144ZM659.5 141 671.5 141 671.5 144 659.5 144ZM680.5 141 692.5 141 692.5 144 680.5 144ZM701.5 141 713.5 141 713.5 144 701.5 144ZM722.5 141 734.5 141 734.5 144 722.5 144ZM743.5 141 755.5 141 755.5 144 743.5 144ZM764.5 141 776.5 141 776.5 144 764.5 144ZM785.5 141 794.489 141 794.489 147.011 791.489 147.011 791.489 142.5 792.989 144 785.5 144ZM794.489 156.011 794.489 163.807 791.489 163.807 791.489 156.011ZM797.489 162.307 792.989 171.307 788.489 162.307Z"/><path d="M428.5 37.0001 440.5 37.0001 440.5 40.0001 428.5 40.0001ZM449.5 37.0001 461.5 37.0001 461.5 40.0001 449.5 40.0001ZM470.5 37.0001 482.5 37.0001 482.5 40.0001 470.5 40.0001ZM491.5 37.0001 503.5 37.0001 503.5 40.0001 491.5 40.0001ZM512.5 37.0001 524.5 37.0001 524.5 40.0001 512.5 40.0001ZM533.5 37.0001 545.5 37.0001 545.5 40.0001 533.5 40.0001ZM554.5 37.0001 566.5 37.0001 566.5 40.0001 554.5 40.0001ZM575.5 37.0001 587.5 37.0001 587.5 40.0001 575.5 40.0001ZM596.5 37.0001 608.5 37.0001 608.5 40.0001 596.5 40.0001ZM617.5 37.0001 629.5 37.0001 629.5 40.0001 617.5 40.0001ZM638.5 37.0001 650.5 37.0001 650.5 40.0001 638.5 40.0001ZM659.5 37.0001 671.5 37.0001 671.5 40.0001 659.5 40.0001ZM680.5 37.0001 692.5 37.0001 692.5 40.0001 680.5 40.0001ZM701.5 37.0001 713.5 37.0001 713.5 40.0001 701.5 40.0001ZM722.5 37.0001 734.5 37.0001 734.5 40.0001 722.5 40.0001ZM743.5 37.0001 755.5 37.0001 755.5 40.0001 743.5 40.0001ZM764.5 37.0001 776.5 37.0001 776.5 40.0001 764.5 40.0001ZM785.5 37.0001 794.489 37.0001 794.489 43.0113 791.489 43.0113 791.489 38.5001 792.989 40.0001 785.5 40.0001ZM794.489 52.0113 794.489 64.0113 791.489 64.0113 791.489 52.0113ZM794.489 73.0113 794.489 85.0113 791.489 85.0113 791.489 73.0113ZM794.489 94.0113 794.489 106.011 791.489 106.011 791.489 94.0113ZM794.489 115.011 794.489 127.011 791.489 127.011 791.489 115.011ZM794.489 136.011 794.489 148.011 791.489 148.011 791.489 136.011ZM794.489 157.011 794.489 163.642 791.489 163.642 791.489 157.011ZM797.489 162.142 792.989 171.142 788.489 162.142Z"/><path d="M795 219.5 795 231.5 792 231.5 792 219.5ZM795 240.5 795 252.5 792 252.5 792 240.5ZM795 261.5 795 273.104 792 273.104 792 261.5ZM798 271.604 793.5 280.604 789 271.604Z"/><path d="M1.5-2.57724e-06 1.50002 12-1.49998 12-1.5 2.57724e-06ZM1.50004 21 1.50006 33-1.49994 33-1.49996 21ZM1.50007 42 1.50009 53.6043-1.49991 53.6044-1.49993 42ZM4.50009 52.1043 0.000104987 61.1044-4.49991 52.1044Z" transform="matrix(-1 0 0 1 793.5 376.5)"/><path d="M795 485.5 795 497.5 792 497.5 792 485.5ZM795 506.5 795 518.5 792 518.5 792 506.5ZM795 527.5 795 539.104 792 539.104 792 527.5ZM798 537.604 793.5 546.604 789 537.604Z"/><path d="M0-1.5 12-1.5 12 1.5 0 1.5ZM21-1.5 33-1.5 33 1.5 21 1.5ZM42-1.5 54-1.5 54 1.5 42 1.5ZM63-1.5 75-1.5 75 1.5 63 1.5ZM84-1.5 96-1.5 96 1.5 84 1.5ZM105-1.5 117-1.5 117 1.5 105 1.5ZM126-1.5 138-1.5 138 1.5 126 1.5ZM147-1.5 159-1.5 159 1.5 147 1.5ZM168-1.5 180-1.5 180 1.5 168 1.5ZM189-1.5 201-1.5 201 1.5 189 1.5ZM210-1.5 222-1.5 222 1.5 210 1.5ZM231-1.5 243-1.5 243 1.5 231 1.5ZM252-1.5 264-1.5 264 1.5 252 1.5ZM273-1.5 285-1.5 285 1.5 273 1.5ZM294-1.5 296.036-1.5 296.036 11.4639 293.036 11.4639 293.036 0 294.536 1.5 294 1.5ZM296.036 20.4639 296.036 32.4639 293.036 32.4639 293.036 20.4639ZM296.036 41.4639 296.036 53.4639 293.036 53.4639 293.036 41.4639ZM296.036 62.4639 296.036 74.4639 293.036 74.4639 293.036 62.4639ZM296.036 83.4639 296.036 95.4639 293.036 95.4639 293.036 83.4639ZM296.036 104.464 296.036 116.464 293.036 116.464 293.036 104.464ZM296.036 125.464 296.036 137.464 293.036 137.464 293.036 125.464ZM296.036 146.464 296.036 158.464 293.036 158.464 293.036 146.464ZM296.036 167.464 296.036 179.464 293.036 179.464 293.036 167.464ZM296.036 188.464 296.036 200.464 293.036 200.464 293.036 188.464ZM296.036 209.464 296.036 221.464 293.036 221.464 293.036 209.464ZM296.036 230.464 296.036 242.464 293.036 242.464 293.036 230.464ZM296.036 251.464 296.036 263.464 293.036 263.464 293.036 251.464ZM296.036 272.464 296.036 284.464 293.036 284.464 293.036 272.464ZM296.036 293.464 296.036 305.464 293.036 305.464 293.036 293.464ZM296.036 314.464 296.036 325.205 293.036 325.205 293.036 314.464ZM299.036 323.705 294.536 332.705 290.036 323.705Z" transform="matrix(1.83697e-16 1 1 -1.83697e-16 231.5 167.5)"/><rect x="33.5001" y="14.5001" width="395" height="49" stroke="#595959" stroke-width="1.33333" stroke-miterlimit="8" fill="#5B9BD5"/><text fill="#FFFFFF" font-family="Calibri,Calibri_MSFontService,sans-serif" font-weight="400" font-size="24" transform="translate(50.01 46)">Files with 450K Permutations per ICD</text><rect x="33.5001" y="118.5" width="395" height="49" stroke="#595959" stroke-width="1.33333" stroke-miterlimit="8" fill="#5B9BD5"/><text fill="#FFFFFF" font-family="Calibri,Calibri_MSFontService,sans-serif" font-weight="400" font-size="24" transform="translate(68.2667 150)">tri_mod_results_01_17_2023.csv</text><path d="M563.5 171.5 998.5 171.5 1022.5 195.5 1022.5 219.5 1022.5 219.5 587.5 219.5 563.5 195.5 563.5 171.5Z" stroke="#595959" stroke-width="1.33333" stroke-miterlimit="8" fill="#5B9BD5" fill-rule="evenodd"/><text fill="#FFFFFF" font-family="Calibri,Calibri_MSFontService,sans-serif" font-weight="400" font-size="24" transform="translate(631.155 203)">ukb_emp_p_calculations_pub</text><text fill="#FFFFFF" font-family="Calibri,Calibri_MSFontService,sans-serif" font-weight="400" font-size="24" transform="translate(924.568 203)">.</text><text fill="#FFFFFF" font-family="Calibri,Calibri_MSFontService,sans-serif" font-weight="400" font-size="24" transform="translate(930.568 203)">py</text><path d="M563.5 437.5 998.5 437.5 1022.5 461.5 1022.5 485.5 1022.5 485.5 587.5 485.5 563.5 461.5 563.5 437.5Z" stroke="#595959" stroke-width="1.33333" stroke-miterlimit="8" fill="#5B9BD5" fill-rule="evenodd"/><text fill="#FFFFFF" font-family="Calibri,Calibri_MSFontService,sans-serif" font-weight="400" font-size="24" transform="translate(592.588 469)">ukb_empirical_p_calculations_pub.</text><text fill="#FFFFFF" font-family="Calibri,Calibri_MSFontService,sans-serif" font-weight="400" font-size="24" transform="translate(938.301 469)">ipynb</text><rect x="582.5" y="280.5" width="421" height="96" stroke="#595959" stroke-width="1.33333" stroke-miterlimit="8" fill="#C5E0B4"/><text font-family="Calibri,Calibri_MSFontService,sans-serif" font-weight="400" font-size="24" transform="translate(687.571 307)">Per ICD</text><text font-family="Calibri,Calibri_MSFontService,sans-serif" font-weight="400" font-size="24" transform="translate(758.925 307)">-</text><text font-family="Calibri,Calibri_MSFontService,sans-serif" font-weight="400" font-size="24" transform="translate(766.258 307)">Antibody Pair</text><text font-family="Calibri,Calibri_MSFontService,sans-serif" font-weight="400" font-size="24" transform="translate(704.325 336)">Empirical P</text><text font-family="Calibri,Calibri_MSFontService,sans-serif" font-weight="400" font-size="24" transform="translate(811.958 336)">-</text><text font-family="Calibri,Calibri_MSFontService,sans-serif" font-weight="400" font-size="24" transform="translate(819.291 336)">values</text><text font-family="Calibri,Calibri_MSFontService,sans-serif" font-weight="400" font-size="24" transform="translate(669.978 365)">[</text><text font-family="Calibri,Calibri_MSFontService,sans-serif" font-weight="400" font-size="24" transform="translate(677.311 365)">N95_emp_p_results.tsv</text><text font-family="Calibri,Calibri_MSFontService,sans-serif" font-weight="400" font-size="24" transform="translate(907.791 365)">]</text><rect x="582.5" y="546.5" width="421" height="96" stroke="#595959" stroke-width="1.33333" stroke-miterlimit="8" fill="#C5E0B4"/><text font-family="Calibri,Calibri_MSFontService,sans-serif" font-weight="400" font-size="24" transform="translate(623.151 573)">Disease</text><text font-family="Calibri,Calibri_MSFontService,sans-serif" font-weight="400" font-size="24" transform="translate(697.651 573)">-</text><text font-family="Calibri,Calibri_MSFontService,sans-serif" font-weight="400" font-size="24" transform="translate(704.985 573)">antibody results with both</text><text font-family="Calibri,Calibri_MSFontService,sans-serif" font-weight="400" font-size="24" transform="translate(640.245 602)">nominal and empirical p</text><text font-family="Calibri,Calibri_MSFontService,sans-serif" font-weight="400" font-size="24" transform="translate(876.045 602)">-</text><text font-family="Calibri,Calibri_MSFontService,sans-serif" font-weight="400" font-size="24" transform="translate(883.378 602)">values</text><text font-family="Calibri,Calibri_MSFontService,sans-serif" font-weight="400" font-size="24" transform="translate(641.558 631)">[</text><text font-family="Calibri,Calibri_MSFontService,sans-serif" font-weight="400" font-size="24" transform="translate(648.891 631)">emp_results_01_17_2023.tsv</text><text font-family="Calibri,Calibri_MSFontService,sans-serif" font-weight="400" font-size="24" transform="translate(936.205 631)">]</text></g></svg>