<svg width="1280" height="720" xmlns="http://www.w3.org/2000/svg" xmlns:xlink="http://www.w3.org/1999/xlink" overflow="hidden"><g><rect x="0" y="0" width="1280" height="720" fill="#FFFFFF"/><text font-family="Arial,Arial_MSFontService,sans-serif" font-weight="400" font-size="43" transform="translate(9.6 704)">UKB Data Pre</text><text font-family="Arial,Arial_MSFontService,sans-serif" font-weight="400" font-size="43" transform="translate(277.433 704)">p</text><path d="M324.5 37.0001 336.5 37.0001 336.5 40.0001 324.5 40.0001ZM345.5 37.0001 357.5 37.0001 357.5 40.0001 345.5 40.0001ZM366.5 37.0001 378.5 37.0001 378.5 40.0001 366.5 40.0001ZM387.5 37.0001 399.5 37.0001 399.5 40.0001 387.5 40.0001ZM408.5 37.0001 420.5 37.0001 420.5 40.0001 408.5 40.0001ZM429.5 37.0001 441.5 37.0001 441.5 40.0001 429.5 40.0001ZM450.5 37.0001 462.5 37.0001 462.5 40.0001 450.5 40.0001ZM471.5 37.0001 483.5 37.0001 483.5 40.0001 471.5 40.0001ZM492.5 37.0001 504.5 37.0001 504.5 40.0001 492.5 40.0001ZM513.5 37.0001 525.5 37.0001 525.5 40.0001 513.5 40.0001ZM534.5 37.0001 540.309 37.0001 540.309 46.1911 537.309 46.1911 537.309 38.5001 538.809 40.0001 534.5 40.0001ZM540.309 55.1911 540.309 67.1911 537.309 67.1911 537.309 55.1911ZM540.309 76.1911 540.309 88.1911 537.309 88.1911 537.309 76.1911ZM540.309 97.1911 540.309 109.191 537.309 109.191 537.309 97.1911ZM540.309 118.191 540.309 130.191 537.309 130.191 537.309 118.191ZM540.309 139.191 540.309 151.191 537.309 151.191 537.309 139.191ZM540.309 160.191 540.309 172.191 537.309 172.191 537.309 160.191ZM540.309 181.191 540.309 193.191 537.309 193.191 537.309 181.191ZM540.309 202.191 540.309 214.191 537.309 214.191 537.309 202.191ZM540.309 223.191 540.309 235.191 537.309 235.191 537.309 223.191ZM540.309 244.191 540.309 256.191 537.309 256.191 537.309 244.191ZM540.309 265.191 540.309 277.191 537.309 277.191 537.309 265.191ZM540.309 286.191 540.309 298.191 537.309 298.191 537.309 286.191ZM540.309 307.191 540.309 319.191 537.309 319.191 537.309 307.191ZM540.309 328.191 540.309 336.395 537.309 336.395 537.309 328.191ZM543.309 334.894 538.809 343.894 534.309 334.894Z"/><path d="M324.5 123 336.5 123 336.5 126 324.5 126ZM345.5 123 357.5 123 357.5 126 345.5 126ZM366.5 123 378.5 123 378.5 126 366.5 126ZM387.5 123 399.5 123 399.5 126 387.5 126ZM408.5 123 420.5 123 420.5 126 408.5 126ZM429.5 123 441.5 123 441.5 126 429.5 126ZM450.5 123 462.5 123 462.5 126 450.5 126ZM471.5 123 483.5 123 483.5 126 471.5 126ZM492.5 123 504.5 123 504.5 126 492.5 126ZM513.5 123 525.5 123 525.5 126 513.5 126ZM534.5 123 540.309 123 540.309 132.191 537.309 132.191 537.309 124.5 538.809 126 534.5 126ZM540.309 141.191 540.309 153.191 537.309 153.191 537.309 141.191ZM540.309 162.191 540.309 174.191 537.309 174.191 537.309 162.191ZM540.309 183.191 540.309 195.191 537.309 195.191 537.309 183.191ZM540.309 204.191 540.309 216.191 537.309 216.191 537.309 204.191ZM540.309 225.191 540.309 237.191 537.309 237.191 537.309 225.191ZM540.309 246.191 540.309 258.191 537.309 258.191 537.309 246.191ZM540.309 267.191 540.309 279.191 537.309 279.191 537.309 267.191ZM540.309 288.191 540.309 300.191 537.309 300.191 537.309 288.191ZM540.309 309.191 540.309 321.191 537.309 321.191 537.309 309.191ZM540.309 330.191 540.309 337.063 537.309 337.063 537.309 330.191ZM543.309 335.563 538.809 344.563 534.309 335.563Z"/><path d="M324.5 293 336.5 293 336.5 296 324.5 296ZM345.5 293 357.5 293 357.5 296 345.5 296ZM366.5 293 378.5 293 378.5 296 366.5 296ZM387.5 293 399.5 293 399.5 296 387.5 296ZM408.5 293 420.5 293 420.5 296 408.5 296ZM429.5 293 441.5 293 441.5 296 429.5 296ZM450.5 293 462.5 293 462.5 296 450.5 296ZM471.5 293 483.5 293 483.5 296 471.5 296ZM492.5 293 504.5 293 504.5 296 492.5 296ZM513.5 293 525.5 293 525.5 296 513.5 296ZM534.5 293 540.309 293 540.309 302.191 537.309 302.191 537.309 294.5 538.809 296 534.5 296ZM540.309 311.191 540.309 323.191 537.309 323.191 537.309 311.191ZM540.309 332.191 540.309 336.402 537.309 336.402 537.309 332.191ZM543.309 334.902 538.809 343.902 534.309 334.902Z"/><path d="M324.5 208 336.5 208 336.5 211 324.5 211ZM345.5 208 357.5 208 357.5 211 345.5 211ZM366.5 208 378.5 208 378.5 211 366.5 211ZM387.5 208 399.5 208 399.5 211 387.5 211ZM408.5 208 420.5 208 420.5 211 408.5 211ZM429.5 208 441.5 208 441.5 211 429.5 211ZM450.5 208 462.5 208 462.5 211 450.5 211ZM471.5 208 483.5 208 483.5 211 471.5 211ZM492.5 208 504.5 208 504.5 211 492.5 211ZM513.5 208 525.5 208 525.5 211 513.5 211ZM534.5 208 540.309 208 540.309 217.191 537.309 217.191 537.309 209.5 538.809 211 534.5 211ZM540.309 226.191 540.309 238.191 537.309 238.191 537.309 226.191ZM540.309 247.191 540.309 259.191 537.309 259.191 537.309 247.191ZM540.309 268.191 540.309 280.191 537.309 280.191 537.309 268.191ZM540.309 289.191 540.309 301.191 537.309 301.191 537.309 289.191ZM540.309 310.191 540.309 322.191 537.309 322.191 537.309 310.191ZM540.309 331.191 540.309 336.733 537.309 336.733 537.309 331.191ZM543.309 335.233 538.809 344.233 534.309 335.233Z"/><path d="M715.5 367 727.5 367 727.5 370 715.5 370ZM736.5 367 748.5 367 748.5 370 736.5 370ZM757.5 367 769.5 367 769.5 370 757.5 370ZM778.5 367 790.5 367 790.5 370 778.5 370ZM799.5 367 811.5 367 811.5 370 799.5 370ZM820.5 367 822.488 367 822.488 380.012 819.488 380.012 819.488 368.5 820.988 370 820.5 370ZM822.488 389.012 822.488 401.012 819.488 401.012 819.488 389.012ZM822.488 410.012 822.488 422.012 819.488 422.012 819.488 410.012ZM822.488 431.012 822.488 443.012 819.488 443.012 819.488 431.012ZM821.712 449.788 833.712 449.788 833.712 452.788 821.712 452.788ZM842.712 449.788 854.712 449.788 854.712 452.788 842.712 452.788ZM863.712 449.788 875.712 449.788 875.712 452.788 863.712 452.788ZM884.712 449.788 896.712 449.788 896.712 452.788 884.712 452.788ZM905.712 449.788 917.712 449.788 917.712 452.788 905.712 452.788ZM917.476 446.788 926.476 451.288 917.476 455.788Z"/><path d="M715.5 367 727.5 367 727.5 370 715.5 370ZM736.5 367 748.5 367 748.5 370 736.5 370ZM757.5 367 769.5 367 769.5 370 757.5 370ZM778.5 367 790.5 367 790.5 370 778.5 370ZM799.5 367 811.5 367 811.5 370 799.5 370ZM820.5 367 822.488 367 822.488 380.012 819.488 380.012 819.488 368.5 820.988 370 820.5 370ZM822.488 389.012 822.488 401.012 819.488 401.012 819.488 389.012ZM822.488 410.012 822.488 422.012 819.488 422.012 819.488 410.012ZM822.488 431.012 822.488 443.012 819.488 443.012 819.488 431.012ZM822.488 452.012 822.488 464.012 819.488 464.012 819.488 452.012ZM822.488 473.012 822.488 485.012 819.488 485.012 819.488 473.012ZM822.488 494.012 822.488 506.012 819.488 506.012 819.488 494.012ZM822.488 515.012 822.488 527.012 819.488 527.012 819.488 515.012ZM828.942 526.558 840.942 526.558 840.942 529.558 828.942 529.558ZM849.942 526.558 861.942 526.558 861.942 529.558 849.942 529.558ZM870.942 526.558 882.942 526.558 882.942 529.558 870.942 529.558ZM891.942 526.558 903.942 526.558 903.942 529.558 891.942 529.558ZM912.942 526.558 918.976 526.558 918.976 529.558 912.942 529.558ZM917.476 523.558 926.476 528.058 917.476 532.558Z"/><path d="M715.5 367 727.5 367 727.5 370 715.5 370ZM736.5 367 748.5 367 748.5 370 736.5 370ZM757.5 367 769.5 367 769.5 370 757.5 370ZM778.5 367 790.5 367 790.5 370 778.5 370ZM799.5 367 811.5 367 811.5 370 799.5 370ZM820.5 367 822.529 367 822.529 379.972 819.529 379.972 819.529 368.5 821.029 370 820.5 370ZM822.529 388.972 822.529 400.972 819.529 400.972 819.529 388.972ZM822.529 409.972 822.529 421.972 819.529 421.972 819.529 409.972ZM822.529 430.972 822.529 442.972 819.529 442.972 819.529 430.972ZM822.529 451.972 822.529 463.972 819.529 463.972 819.529 451.972ZM822.529 472.972 822.529 484.972 819.529 484.972 819.529 472.972ZM822.529 493.972 822.529 505.972 819.529 505.972 819.529 493.972ZM822.529 514.972 822.529 526.972 819.529 526.972 819.529 514.972ZM822.529 535.972 822.529 547.972 819.529 547.972 819.529 535.972ZM822.529 556.972 822.529 568.972 819.529 568.972 819.529 556.972ZM822.529 577.972 822.529 589.972 819.529 589.972 819.529 577.972ZM822.529 598.972 822.529 604.828 821.029 603.328 827.172 603.328 827.172 606.328 819.529 606.328 819.529 598.972ZM836.172 603.328 848.172 603.328 848.172 606.328 836.172 606.328ZM857.172 603.328 869.172 603.328 869.172 606.328 857.172 606.328ZM878.172 603.328 890.172 603.328 890.172 606.328 878.172 606.328ZM899.172 603.328 911.172 603.328 911.172 606.328 899.172 606.328ZM917.557 600.328 926.557 604.828 917.557 609.328Z"/><path d="M715.5 367 727.5 367 727.5 370 715.5 370ZM736.5 367 748.5 367 748.5 370 736.5 370ZM757.5 367 769.5 367 769.5 370 757.5 370ZM778.5 367 790.5 367 790.5 370 778.5 370ZM799.5 367 811.5 367 811.5 370 799.5 370ZM820.5 367 822.488 367 822.488 380.012 819.488 380.012 819.488 368.5 820.988 370 820.5 370ZM822.488 389.012 822.488 401.012 819.488 401.012 819.488 389.012ZM822.488 410.012 822.488 422.012 819.488 422.012 819.488 410.012ZM822.488 431.012 822.488 443.012 819.488 443.012 819.488 431.012ZM822.488 452.012 822.488 464.012 819.488 464.012 819.488 452.012ZM822.488 473.012 822.488 485.012 819.488 485.012 819.488 473.012ZM822.488 494.012 822.488 506.012 819.488 506.012 819.488 494.012ZM822.488 515.012 822.488 527.012 819.488 527.012 819.488 515.012ZM822.488 536.012 822.488 548.012 819.488 548.012 819.488 536.012ZM822.488 557.012 822.488 569.012 819.488 569.012 819.488 557.012ZM822.488 578.012 822.488 590.012 819.488 590.012 819.488 578.012ZM822.488 599.012 822.488 611.012 819.488 611.012 819.488 599.012ZM822.488 620.012 822.488 632.012 819.488 632.012 819.488 620.012ZM822.488 641.012 822.488 653.012 819.488 653.012 819.488 641.012ZM822.488 662.012 822.488 674.012 819.488 674.012 819.488 662.012ZM822.403 680.097 834.403 680.097 834.403 683.097 822.403 683.097ZM843.403 680.097 855.403 680.097 855.403 683.097 843.403 683.097ZM864.403 680.097 876.403 680.097 876.403 683.097 864.403 683.097ZM885.403 680.097 897.403 680.097 897.403 683.097 885.403 683.097ZM906.403 680.097 918.403 680.097 918.403 683.097 906.403 683.097ZM917.476 677.097 926.476 681.597 917.476 686.097Z"/><rect x="3.50005" y="14.5001" width="321" height="49" stroke="#595959" stroke-width="1.33333" stroke-miterlimit="8" fill="#5B9BD5"/><text fill="#FFFFFF" font-family="Calibri,Calibri_MSFontService,sans-serif" font-weight="400" font-size="24" transform="translate(71.3914 46)">Raw Antibody data</text><rect x="3.50005" y="99.5001" width="321" height="49" stroke="#595959" stroke-width="1.33333" stroke-miterlimit="8" fill="#5B9BD5"/><text fill="#FFFFFF" font-family="Calibri,Calibri_MSFontService,sans-serif" font-weight="400" font-size="24" transform="translate(55.0248 131)">Raw Cancer diagnoses</text><rect x="3.50005" y="185.5" width="321" height="49" stroke="#595959" stroke-width="1.33333" stroke-miterlimit="8" fill="#5B9BD5"/><text fill="#FFFFFF" font-family="Calibri,Calibri_MSFontService,sans-serif" font-weight="400" font-size="24" transform="translate(32.3582 217)">Raw non</text><text fill="#FFFFFF" font-family="Calibri,Calibri_MSFontService,sans-serif" font-weight="400" font-size="24" transform="translate(117.358 217)">-</text><text fill="#FFFFFF" font-family="Calibri,Calibri_MSFontService,sans-serif" font-weight="400" font-size="24" transform="translate(124.691 217)">Cancer diagnoses</text><rect x="3.50005" y="270.5" width="321" height="49" stroke="#595959" stroke-width="1.33333" stroke-miterlimit="8" fill="#5B9BD5"/><text fill="#FFFFFF" font-family="Calibri,Calibri_MSFontService,sans-serif" font-weight="400" font-size="24" transform="translate(69.5848 302)">Raw Covariate data</text><path d="M362.5 344.5 691.5 344.5 715.5 368.5 715.5 392.5 715.5 392.5 386.5 392.5 362.5 368.5 362.5 344.5Z" stroke="#595959" stroke-width="1.33333" stroke-miterlimit="8" fill="#5B9BD5" fill-rule="evenodd"/><text fill="#FFFFFF" font-family="Calibri,Calibri_MSFontService,sans-serif" font-weight="400" font-size="24" transform="translate(391.302 375)">ukb_data_cleaning_pub.ipynb</text><rect x="926.5" y="426.5" width="343" height="49" stroke="#595959" stroke-width="1.33333" stroke-miterlimit="8" fill="#C5E0B4"/><text font-family="Calibri,Calibri_MSFontService,sans-serif" font-weight="400" font-size="24" transform="translate(976.047 458)">Processed Antibody Data</text><rect x="926.5" y="503.5" width="343" height="49" stroke="#595959" stroke-width="1.33333" stroke-miterlimit="8" fill="#C5E0B4"/><text font-family="Calibri,Calibri_MSFontService,sans-serif" font-weight="400" font-size="24" transform="translate(959.681 535)">Processed Cancer Diagnoses</text><rect x="926.5" y="656.5" width="343" height="49" stroke="#595959" stroke-width="1.33333" stroke-miterlimit="8" fill="#C5E0B4"/><text font-family="Calibri,Calibri_MSFontService,sans-serif" font-weight="400" font-size="24" transform="translate(974.241 689)">Processed Covariate Data</text><rect x="926.5" y="580.5" width="343" height="49" stroke="#595959" stroke-width="1.33333" stroke-miterlimit="8" fill="#C5E0B4"/><text font-family="Calibri,Calibri_MSFontService,sans-serif" font-weight="400" font-size="24" transform="translate(937.014 612)">Processed non</text><text font-family="Calibri,Calibri_MSFontService,sans-serif" font-weight="400" font-size="24" transform="translate(1078.96 612)">-</text><text font-family="Calibri,Calibri_MSFontService,sans-serif" font-weight="400" font-size="24" transform="translate(1086.29 612)">Cancer Diagnoses</text></g></svg>