<svg width="1280" height="720" xmlns="http://www.w3.org/2000/svg" xmlns:xlink="http://www.w3.org/1999/xlink" overflow="hidden"><g><rect x="0" y="0" width="1280" height="720" fill="#FFFFFF"/><text font-family="Arial,Arial_MSFontService,sans-serif" font-weight="400" font-size="43" transform="translate(9.6 704)">UKB</text><text font-family="Arial,Arial_MSFontService,sans-serif" font-weight="400" font-size="43" transform="translate(109.267 704)">ICD</text><text font-family="Arial,Arial_MSFontService,sans-serif" font-weight="400" font-size="43" transform="translate(194.6 704)">Data Prep</text><path d="M323.5 37.0001 335.5 37.0001 335.5 40.0001 323.5 40.0001ZM344.5 37.0001 356.5 37.0001 356.5 40.0001 344.5 40.0001ZM365.5 37.0001 377.5 37.0001 377.5 40.0001 365.5 40.0001ZM386.5 37.0001 398.5 37.0001 398.5 40.0001 386.5 40.0001ZM407.5 37.0001 419.5 37.0001 419.5 40.0001 407.5 40.0001ZM428.5 37.0001 440.5 37.0001 440.5 40.0001 428.5 40.0001ZM449.5 37.0001 461.5 37.0001 461.5 40.0001 449.5 40.0001ZM470.5 37.0001 482.5 37.0001 482.5 40.0001 470.5 40.0001ZM491.5 37.0001 503.5 37.0001 503.5 40.0001 491.5 40.0001ZM512.5 37.0001 524.5 37.0001 524.5 40.0001 512.5 40.0001ZM533.5 37.0001 545.5 37.0001 545.5 40.0001 533.5 40.0001ZM554.5 37.0001 556.3 37.0001 556.3 50.1999 553.3 50.1999 553.3 38.5001 554.8 40.0001 554.5 40.0001ZM556.3 59.1999 556.3 71.1999 553.3 71.1999 553.3 59.1999ZM556.3 80.1999 556.3 92.1999 553.3 92.1999 553.3 80.1999ZM556.3 101.2 556.3 113.2 553.3 113.2 553.3 101.2ZM556.3 122.2 556.3 134.2 553.3 134.2 553.3 122.2ZM556.3 143.2 556.3 155.2 553.3 155.2 553.3 143.2ZM556.3 164.2 556.3 176.2 553.3 176.2 553.3 164.2ZM556.3 185.2 556.3 197.2 553.3 197.2 553.3 185.2ZM556.3 206.2 556.3 218.2 553.3 218.2 553.3 206.2ZM556.3 227.2 556.3 239.2 553.3 239.2 553.3 227.2ZM556.3 248.2 556.3 260.2 553.3 260.2 553.3 248.2ZM556.3 269.2 556.3 281.2 553.3 281.2 553.3 269.2ZM556.3 290.2 556.3 302.2 553.3 302.2 553.3 290.2ZM556.3 311.2 556.3 323.2 553.3 323.2 553.3 311.2ZM556.3 332.2 556.3 341.755 553.3 341.755 553.3 332.2ZM559.3 340.255 554.8 349.255 550.3 340.255Z"/><path d="M323.5 123 335.5 123 335.5 126 323.5 126ZM344.5 123 356.5 123 356.5 126 344.5 126ZM365.5 123 377.5 123 377.5 126 365.5 126ZM386.5 123 398.5 123 398.5 126 386.5 126ZM407.5 123 419.5 123 419.5 126 407.5 126ZM428.5 123 440.5 123 440.5 126 428.5 126ZM449.5 123 461.5 123 461.5 126 449.5 126ZM470.5 123 482.5 123 482.5 126 470.5 126ZM491.5 123 503.5 123 503.5 126 491.5 126ZM512.5 123 524.5 123 524.5 126 512.5 126ZM533.5 123 545.5 123 545.5 126 533.5 126ZM554.5 123 556.3 123 556.3 136.2 553.3 136.2 553.3 124.5 554.8 126 554.5 126ZM556.3 145.2 556.3 157.2 553.3 157.2 553.3 145.2ZM556.3 166.2 556.3 178.2 553.3 178.2 553.3 166.2ZM556.3 187.2 556.3 199.2 553.3 199.2 553.3 187.2ZM556.3 208.2 556.3 220.2 553.3 220.2 553.3 208.2ZM556.3 229.2 556.3 241.2 553.3 241.2 553.3 229.2ZM556.3 250.2 556.3 262.2 553.3 262.2 553.3 250.2ZM556.3 271.2 556.3 283.2 553.3 283.2 553.3 271.2ZM556.3 292.2 556.3 304.2 553.3 304.2 553.3 292.2ZM556.3 313.2 556.3 325.2 553.3 325.2 553.3 313.2ZM556.3 334.2 556.3 342.424 553.3 342.424 553.3 334.2ZM559.3 340.924 554.8 349.924 550.3 340.924Z"/><path d="M323.5 293 335.5 293 335.5 296 323.5 296ZM344.5 293 356.5 293 356.5 296 344.5 296ZM365.5 293 377.5 293 377.5 296 365.5 296ZM386.5 293 398.5 293 398.5 296 386.5 296ZM407.5 293 419.5 293 419.5 296 407.5 296ZM428.5 293 440.5 293 440.5 296 428.5 296ZM449.5 293 461.5 293 461.5 296 449.5 296ZM470.5 293 482.5 293 482.5 296 470.5 296ZM491.5 293 503.5 293 503.5 296 491.5 296ZM512.5 293 524.5 293 524.5 296 512.5 296ZM533.5 293 545.5 293 545.5 296 533.5 296ZM554.5 293 556.3 293 556.3 306.2 553.3 306.2 553.3 294.5 554.8 296 554.5 296ZM556.3 315.2 556.3 327.2 553.3 327.2 553.3 315.2ZM556.3 336.2 556.3 341.763 553.3 341.763 553.3 336.2ZM559.3 340.263 554.8 349.263 550.3 340.263Z"/><path d="M323.5 208 335.5 208 335.5 211 323.5 211ZM344.5 208 356.5 208 356.5 211 344.5 211ZM365.5 208 377.5 208 377.5 211 365.5 211ZM386.5 208 398.5 208 398.5 211 386.5 211ZM407.5 208 419.5 208 419.5 211 407.5 211ZM428.5 208 440.5 208 440.5 211 428.5 211ZM449.5 208 461.5 208 461.5 211 449.5 211ZM470.5 208 482.5 208 482.5 211 470.5 211ZM491.5 208 503.5 208 503.5 211 491.5 211ZM512.5 208 524.5 208 524.5 211 512.5 211ZM533.5 208 545.5 208 545.5 211 533.5 211ZM554.5 208 556.3 208 556.3 221.2 553.3 221.2 553.3 209.5 554.8 211 554.5 211ZM556.3 230.2 556.3 242.2 553.3 242.2 553.3 230.2ZM556.3 251.2 556.3 263.2 553.3 263.2 553.3 251.2ZM556.3 272.2 556.3 284.2 553.3 284.2 553.3 272.2ZM556.3 293.2 556.3 305.2 553.3 305.2 553.3 293.2ZM556.3 314.2 556.3 326.2 553.3 326.2 553.3 314.2ZM556.3 335.2 556.3 342.094 553.3 342.094 553.3 335.2ZM559.3 340.594 554.8 349.594 550.3 340.594Z"/><path d="M751.5 372 763.5 372 763.5 375 751.5 375ZM772.5 372 784.5 372 784.5 375 772.5 375ZM793.5 372 805.5 372 805.5 375 793.5 375ZM814.5 372 826.5 372 826.5 375 814.5 375ZM835.5 372 841.449 372 841.449 381.051 838.449 381.051 838.449 373.5 839.949 375 835.5 375ZM841.449 390.051 841.449 402.051 838.449 402.051 838.449 390.051ZM841.449 411.051 841.449 423.051 838.449 423.051 838.449 411.051ZM841.449 432.051 841.449 444.051 838.449 444.051 838.449 432.051ZM842.073 449.427 854.073 449.427 854.073 452.427 842.073 452.427ZM863.073 449.427 875.073 449.427 875.073 452.427 863.073 452.427ZM884.073 449.427 896.073 449.427 896.073 452.427 884.073 452.427ZM905.073 449.427 917.073 449.427 917.073 452.427 905.073 452.427ZM919.399 446.427 928.399 450.927 919.399 455.427Z"/><path d="M751.5 372 763.5 372 763.5 375 751.5 375ZM772.5 372 784.5 372 784.5 375 772.5 375ZM793.5 372 805.5 372 805.5 375 793.5 375ZM814.5 372 826.5 372 826.5 375 814.5 375ZM835.5 372 841.449 372 841.449 381.051 838.449 381.051 838.449 373.5 839.949 375 835.5 375ZM841.449 390.051 841.449 402.051 838.449 402.051 838.449 390.051ZM841.449 411.051 841.449 423.051 838.449 423.051 838.449 411.051ZM841.449 432.051 841.449 444.051 838.449 444.051 838.449 432.051ZM841.449 453.051 841.449 465.051 838.449 465.051 838.449 453.051ZM841.449 474.051 841.449 486.051 838.449 486.051 838.449 474.051ZM841.449 495.051 841.449 507.051 838.449 507.051 838.449 495.051ZM841.449 516.051 841.449 527.697 839.949 526.197 840.303 526.197 840.303 529.197 838.449 529.197 838.449 516.051ZM849.303 526.197 861.303 526.197 861.303 529.197 849.303 529.197ZM870.303 526.197 882.303 526.197 882.303 529.197 870.303 529.197ZM891.303 526.197 903.303 526.197 903.303 529.197 891.303 529.197ZM912.303 526.197 920.899 526.197 920.899 529.197 912.303 529.197ZM919.399 523.197 928.399 527.697 919.399 532.197Z"/><path d="M751.5 372 763.5 372 763.5 375 751.5 375ZM772.5 372 784.5 372 784.5 375 772.5 375ZM793.5 372 805.5 372 805.5 375 793.5 375ZM814.5 372 826.5 372 826.5 375 814.5 375ZM835.5 372 841.49 372 841.49 381.01 838.49 381.01 838.49 373.5 839.99 375 835.5 375ZM841.49 390.01 841.49 402.01 838.49 402.01 838.49 390.01ZM841.49 411.01 841.49 423.01 838.49 423.01 838.49 411.01ZM841.49 432.01 841.49 444.01 838.49 444.01 838.49 432.01ZM841.49 453.01 841.49 465.01 838.49 465.01 838.49 453.01ZM841.49 474.01 841.49 486.01 838.49 486.01 838.49 474.01ZM841.49 495.01 841.49 507.01 838.49 507.01 838.49 495.01ZM841.49 516.01 841.49 528.01 838.49 528.01 838.49 516.01ZM841.49 537.01 841.49 549.01 838.49 549.01 838.49 537.01ZM841.49 558.01 841.49 570.01 838.49 570.01 838.49 558.01ZM841.49 579.01 841.49 591.01 838.49 591.01 838.49 579.01ZM841.49 600.01 841.49 604.467 839.99 602.967 847.533 602.967 847.533 605.967 838.49 605.967 838.49 600.01ZM856.533 602.967 868.533 602.967 868.533 605.967 856.533 605.967ZM877.533 602.967 889.533 602.967 889.533 605.967 877.533 605.967ZM898.533 602.967 910.533 602.967 910.533 605.967 898.533 605.967ZM919.533 602.967 920.98 602.967 920.98 605.967 919.533 605.967ZM919.48 599.967 928.48 604.467 919.48 608.967Z"/><path d="M751.5 372 763.5 372 763.5 375 751.5 375ZM772.5 372 784.5 372 784.5 375 772.5 375ZM793.5 372 805.5 372 805.5 375 793.5 375ZM814.5 372 826.5 372 826.5 375 814.5 375ZM835.5 372 841.449 372 841.449 381.051 838.449 381.051 838.449 373.5 839.949 375 835.5 375ZM841.449 390.051 841.449 402.051 838.449 402.051 838.449 390.051ZM841.449 411.051 841.449 423.051 838.449 423.051 838.449 411.051ZM841.449 432.051 841.449 444.051 838.449 444.051 838.449 432.051ZM841.449 453.051 841.449 465.051 838.449 465.051 838.449 453.051ZM841.449 474.051 841.449 486.051 838.449 486.051 838.449 474.051ZM841.449 495.051 841.449 507.051 838.449 507.051 838.449 495.051ZM841.449 516.051 841.449 528.051 838.449 528.051 838.449 516.051ZM841.449 537.051 841.449 549.051 838.449 549.051 838.449 537.051ZM841.449 558.051 841.449 570.051 838.449 570.051 838.449 558.051ZM841.449 579.051 841.449 591.051 838.449 591.051 838.449 579.051ZM841.449 600.051 841.449 612.051 838.449 612.051 838.449 600.051ZM841.449 621.051 841.449 633.051 838.449 633.051 838.449 621.051ZM841.449 642.051 841.449 654.051 838.449 654.051 838.449 642.051ZM841.449 663.051 841.449 675.051 838.449 675.051 838.449 663.051ZM842.764 679.736 854.764 679.736 854.764 682.736 842.764 682.736ZM863.764 679.736 875.764 679.736 875.764 682.736 863.764 682.736ZM884.764 679.736 896.764 679.736 896.764 682.736 884.764 682.736ZM905.764 679.736 917.764 679.736 917.764 682.736 905.764 682.736ZM919.399 676.736 928.399 681.236 919.399 685.736Z"/><rect x="2.50005" y="14.5001" width="321" height="49" stroke="#595959" stroke-width="1.33333" stroke-miterlimit="8" fill="#5B9BD5"/><text fill="#FFFFFF" font-family="Calibri,Calibri_MSFontService,sans-serif" font-weight="400" font-size="24" transform="translate(69.34 46)">Raw Antibody</text><text fill="#FFFFFF" font-family="Calibri,Calibri_MSFontService,sans-serif" font-weight="400" font-size="24" transform="translate(210.453 46)">D</text><text fill="#FFFFFF" font-family="Calibri,Calibri_MSFontService,sans-serif" font-weight="400" font-size="24" transform="translate(225.287 46)">ata</text><rect x="2.50005" y="99.5001" width="321" height="49" stroke="#595959" stroke-width="1.33333" stroke-miterlimit="8" fill="#5B9BD5"/><text fill="#FFFFFF" font-family="Calibri,Calibri_MSFontService,sans-serif" font-weight="400" font-size="24" transform="translate(52.9733 131)">Raw Cancer</text><text fill="#FFFFFF" font-family="Calibri,Calibri_MSFontService,sans-serif" font-weight="400" font-size="24" transform="translate(172.973 131)">D</text><text fill="#FFFFFF" font-family="Calibri,Calibri_MSFontService,sans-serif" font-weight="400" font-size="24" transform="translate(187.807 131)">iagnoses</text><rect x="2.50005" y="185.5" width="321" height="49" stroke="#595959" stroke-width="1.33333" stroke-miterlimit="8" fill="#5B9BD5"/><text fill="#FFFFFF" font-family="Calibri,Calibri_MSFontService,sans-serif" font-weight="400" font-size="24" transform="translate(28.8899 217)">Raw</text><text fill="#FFFFFF" font-family="Calibri,Calibri_MSFontService,sans-serif" font-weight="400" font-size="24" transform="translate(75.8899 217)">N</text><text fill="#FFFFFF" font-family="Calibri,Calibri_MSFontService,sans-serif" font-weight="400" font-size="24" transform="translate(91.3899 217)">on</text><text fill="#FFFFFF" font-family="Calibri,Calibri_MSFontService,sans-serif" font-weight="400" font-size="24" transform="translate(116.723 217)">-</text><text fill="#FFFFFF" font-family="Calibri,Calibri_MSFontService,sans-serif" font-weight="400" font-size="24" transform="translate(124.057 217)">Cancer</text><text fill="#FFFFFF" font-family="Calibri,Calibri_MSFontService,sans-serif" font-weight="400" font-size="24" transform="translate(197.057 217)">D</text><text fill="#FFFFFF" font-family="Calibri,Calibri_MSFontService,sans-serif" font-weight="400" font-size="24" transform="translate(211.89 217)">iagnoses</text><rect x="2.50005" y="270.5" width="321" height="49" stroke="#595959" stroke-width="1.33333" stroke-miterlimit="8" fill="#5B9BD5"/><text fill="#FFFFFF" font-family="Calibri,Calibri_MSFontService,sans-serif" font-weight="400" font-size="24" transform="translate(68.6166 302)">Raw Covariate data</text><path d="M359.5 349.5 727.5 349.5 751.5 373.5 751.5 397.5 751.5 397.5 383.5 397.5 359.5 373.5 359.5 349.5Z" stroke="#595959" stroke-width="1.33333" stroke-miterlimit="8" fill="#5B9BD5" fill-rule="evenodd"/><text fill="#FFFFFF" font-family="Calibri,Calibri_MSFontService,sans-serif" font-weight="400" font-size="24" transform="translate(387.158 381)">ukb</text><text fill="#FFFFFF" font-family="Calibri,Calibri_MSFontService,sans-serif" font-weight="400" font-size="24" transform="translate(423.325 381)">_</text><text fill="#FFFFFF" font-family="Calibri,Calibri_MSFontService,sans-serif" font-weight="400" font-size="24" transform="translate(435.325 381)">icd_</text><text fill="#FFFFFF" font-family="Calibri,Calibri_MSFontService,sans-serif" font-weight="400" font-size="24" transform="translate(475.658 381)">data</text><text fill="#FFFFFF" font-family="Calibri,Calibri_MSFontService,sans-serif" font-weight="400" font-size="24" transform="translate(518.811 381)">_cleaning_pub.ipynb</text><rect x="928.5" y="426.5" width="350" height="49" stroke="#595959" stroke-width="1.33333" stroke-miterlimit="8" fill="#C5E0B4"/><text font-family="Calibri,Calibri_MSFontService,sans-serif" font-weight="400" font-size="24" transform="translate(981.374 458)">Processed Antibody Data</text><rect x="928.5" y="503.5" width="350" height="49" stroke="#595959" stroke-width="1.33333" stroke-miterlimit="8" fill="#C5E0B4"/><text font-family="Calibri,Calibri_MSFontService,sans-serif" font-weight="400" font-size="24" transform="translate(965.007 535)">Processed Cancer Diagnoses</text><rect x="928.5" y="656.5" width="350" height="49" stroke="#595959" stroke-width="1.33333" stroke-miterlimit="8" fill="#C5E0B4"/><text font-family="Calibri,Calibri_MSFontService,sans-serif" font-weight="400" font-size="24" transform="translate(979.567 689)">Processed Covariate Data</text><rect x="928.5" y="580.5" width="350" height="49" stroke="#595959" stroke-width="1.33333" stroke-miterlimit="8" fill="#C5E0B4"/><text font-family="Calibri,Calibri_MSFontService,sans-serif" font-weight="400" font-size="24" transform="translate(941.005 612)">Processed</text><text font-family="Calibri,Calibri_MSFontService,sans-serif" font-weight="400" font-size="24" transform="translate(1044.95 612)">N</text><text font-family="Calibri,Calibri_MSFontService,sans-serif" font-weight="400" font-size="24" transform="translate(1060.45 612)">on</text><text font-family="Calibri,Calibri_MSFontService,sans-serif" font-weight="400" font-size="24" transform="translate(1085.78 612)">-</text><text font-family="Calibri,Calibri_MSFontService,sans-serif" font-weight="400" font-size="24" transform="translate(1093.12 612)">Cancer</text><text font-family="Calibri,Calibri_MSFontService,sans-serif" font-weight="400" font-size="24" transform="translate(1166.12 612)">Diagnoses</text></g></svg>