<svg width="1280" height="720" xmlns="http://www.w3.org/2000/svg" xmlns:xlink="http://www.w3.org/1999/xlink" overflow="hidden"><g><rect x="0" y="0" width="1280" height="720" fill="#FFFFFF"/><text font-family="Arial,Arial_MSFontService,sans-serif" font-weight="400" font-size="43" transform="translate(9.6 704)">UKB</text><text font-family="Arial,Arial_MSFontService,sans-serif" font-weight="400" font-size="43" transform="translate(109.267 704)">Phecode</text><text font-family="Arial,Arial_MSFontService,sans-serif" font-weight="400" font-size="43" transform="translate(286.913 704)">Analysis</text><path d="M344.5 42.0001 356.5 42.0001 356.5 45.0001 344.5 45.0001ZM365.5 42.0001 377.5 42.0001 377.5 45.0001 365.5 45.0001ZM386.5 42.0001 398.5 42.0001 398.5 45.0001 386.5 45.0001ZM407.5 42.0001 419.5 42.0001 419.5 45.0001 407.5 45.0001ZM428.5 42.0001 440.5 42.0001 440.5 45.0001 428.5 45.0001ZM449.5 42.0001 461.5 42.0001 461.5 45.0001 449.5 45.0001ZM470.5 42.0001 482.5 42.0001 482.5 45.0001 470.5 45.0001ZM491.5 42.0001 503.5 42.0001 503.5 45.0001 491.5 45.0001ZM512.5 42.0001 524.5 42.0001 524.5 45.0001 512.5 45.0001ZM533.5 42.0001 545.5 42.0001 545.5 45.0001 533.5 45.0001ZM554.5 42.0001 566.5 42.0001 566.5 45.0001 554.5 45.0001ZM575.5 42.0001 587.5 42.0001 587.5 45.0001 575.5 45.0001ZM596.5 42.0001 608.5 42.0001 608.5 45.0001 596.5 45.0001ZM617.5 42.0001 623.71 42.0001 623.71 50.7899 620.71 50.7899 620.71 43.5001 622.21 45.0001 617.5 45.0001ZM623.71 59.7899 623.71 71.7899 620.71 71.7899 620.71 59.7899ZM623.71 80.7899 623.71 92.7899 620.71 92.7899 620.71 80.7899ZM623.71 101.79 623.71 113.79 620.71 113.79 620.71 101.79ZM623.71 122.79 623.71 134.79 620.71 134.79 620.71 122.79ZM623.71 143.79 623.71 155.79 620.71 155.79 620.71 143.79ZM623.71 164.79 623.71 176.79 620.71 176.79 620.71 164.79ZM623.71 185.79 623.71 197.79 620.71 197.79 620.71 185.79ZM623.71 206.79 623.71 218.79 620.71 218.79 620.71 206.79ZM623.71 227.79 623.71 239.79 620.71 239.79 620.71 227.79ZM623.71 248.79 623.71 260.79 620.71 260.79 620.71 248.79ZM623.71 269.79 623.71 281.79 620.71 281.79 620.71 269.79ZM623.71 290.79 623.71 302.79 620.71 302.79 620.71 290.79ZM623.71 311.79 623.71 323.79 620.71 323.79 620.71 311.79ZM623.71 332.79 623.71 344.79 620.71 344.79 620.71 332.79ZM623.71 353.79 623.71 365.79 620.71 365.79 620.71 353.79ZM623.71 374.79 623.71 386.79 620.71 386.79 620.71 374.79ZM623.71 395.79 623.71 407.79 620.71 407.79 620.71 395.79ZM623.71 416.79 623.71 428.79 620.71 428.79 620.71 416.79ZM623.71 437.79 623.71 447.918 620.71 447.918 620.71 437.79ZM626.71 446.417 622.21 455.417 617.71 446.417Z"/><path d="M345.5 138 357.5 138 357.5 141 345.5 141ZM366.5 138 378.5 138 378.5 141 366.5 141ZM387.5 138 399.5 138 399.5 141 387.5 141ZM408.5 138 420.5 138 420.5 141 408.5 141ZM429.5 138 441.5 138 441.5 141 429.5 141ZM450.5 138 462.5 138 462.5 141 450.5 141ZM471.5 138 483.5 138 483.5 141 471.5 141ZM492.5 138 504.5 138 504.5 141 492.5 141ZM513.5 138 525.5 138 525.5 141 513.5 141ZM534.5 138 546.5 138 546.5 141 534.5 141ZM555.5 138 567.5 138 567.5 141 555.5 141ZM576.5 138 588.5 138 588.5 141 576.5 141ZM597.5 138 609.5 138 609.5 141 597.5 141ZM618.5 138 624.548 138 624.548 146.952 621.548 146.952 621.548 139.5 623.048 141 618.5 141ZM624.548 155.952 624.548 167.952 621.548 167.952 621.548 155.952ZM624.548 176.952 624.548 188.952 621.548 188.952 621.548 176.952ZM624.548 197.952 624.548 209.952 621.548 209.952 621.548 197.952ZM624.548 218.952 624.548 230.952 621.548 230.952 621.548 218.952ZM624.548 239.952 624.548 251.952 621.548 251.952 621.548 239.952ZM624.548 260.952 624.548 272.952 621.548 272.952 621.548 260.952ZM624.548 281.952 624.548 293.952 621.548 293.952 621.548 281.952ZM624.548 302.952 624.548 314.952 621.548 314.952 621.548 302.952ZM624.548 323.952 624.548 335.952 621.548 335.952 621.548 323.952ZM624.548 344.952 624.548 356.952 621.548 356.952 621.548 344.952ZM624.548 365.952 624.548 377.952 621.548 377.952 621.548 365.952ZM624.548 386.952 624.548 398.952 621.548 398.952 621.548 386.952ZM624.548 407.952 624.548 419.952 621.548 419.952 621.548 407.952ZM624.548 428.952 624.548 440.952 621.548 440.952 621.548 428.952ZM627.548 446.321 623.048 455.321 618.548 446.321Z"/><path d="M345.5 234 357.5 234 357.5 237 345.5 237ZM366.5 234 378.5 234 378.5 237 366.5 237ZM387.5 234 399.5 234 399.5 237 387.5 237ZM408.5 234 420.5 234 420.5 237 408.5 237ZM429.5 234 441.5 234 441.5 237 429.5 237ZM450.5 234 462.5 234 462.5 237 450.5 237ZM471.5 234 483.5 234 483.5 237 471.5 237ZM492.5 234 504.5 234 504.5 237 492.5 237ZM513.5 234 525.5 234 525.5 237 513.5 237ZM534.5 234 546.5 234 546.5 237 534.5 237ZM555.5 234 567.5 234 567.5 237 555.5 237ZM576.5 234 588.5 234 588.5 237 576.5 237ZM597.5 234 609.5 234 609.5 237 597.5 237ZM618.5 234 624.548 234 624.548 242.952 621.548 242.952 621.548 235.5 623.048 237 618.5 237ZM624.548 251.952 624.548 263.952 621.548 263.952 621.548 251.952ZM624.548 272.952 624.548 284.952 621.548 284.952 621.548 272.952ZM624.548 293.952 624.548 305.952 621.548 305.952 621.548 293.952ZM624.548 314.952 624.548 326.952 621.548 326.952 621.548 314.952ZM624.548 335.952 624.548 347.952 621.548 347.952 621.548 335.952ZM624.548 356.952 624.548 368.952 621.548 368.952 621.548 356.952ZM624.548 377.952 624.548 389.952 621.548 389.952 621.548 377.952ZM624.548 398.952 624.548 410.952 621.548 410.952 621.548 398.952ZM624.548 419.952 624.548 431.952 621.548 431.952 621.548 419.952ZM624.548 440.952 624.548 447.725 621.548 447.725 621.548 440.952ZM627.548 446.225 623.048 455.225 618.548 446.225Z"/><path d="M434.5 330 446.5 330 446.5 333 434.5 333ZM455.5 330 467.5 330 467.5 333 455.5 333ZM476.5 330 488.5 330 488.5 333 476.5 333ZM497.5 330 509.5 330 509.5 333 497.5 333ZM518.5 330 530.5 330 530.5 333 518.5 333ZM539.5 330 551.5 330 551.5 333 539.5 333ZM560.5 330 572.5 330 572.5 333 560.5 333ZM581.5 330 593.5 330 593.5 333 581.5 333ZM602.5 330 614.5 330 614.5 333 602.5 333ZM624.268 332.232 624.268 344.232 621.268 344.232 621.268 332.232ZM624.268 353.232 624.268 365.232 621.268 365.232 621.268 353.232ZM624.268 374.232 624.268 386.232 621.268 386.232 621.268 374.232ZM624.268 395.232 624.268 407.232 621.268 407.232 621.268 395.232ZM624.268 416.232 624.268 428.232 621.268 428.232 621.268 416.232ZM624.268 437.232 624.268 447.629 621.268 447.629 621.268 437.232ZM627.268 446.129 622.768 455.129 618.268 446.129Z"/><path d="M0-1.5 12-1.5 12 1.5 0 1.5ZM21-1.5 33-1.5 33 1.5 21 1.5ZM42-1.5 44.4002-1.5 44.4002 11.0998 41.4002 11.0998 41.4002 0 42.9002 1.5 42 1.5ZM44.4002 20.0998 44.4002 32.0998 41.4002 32.0998 41.4002 20.0998ZM44.4002 41.0998 44.4002 53.0998 41.4002 53.0998 41.4002 41.0998ZM44.4002 62.0998 44.4002 74.0998 41.4002 74.0998 41.4002 62.0998ZM44.4002 83.0998 44.4002 95.0998 41.4002 95.0998 41.4002 83.0998ZM44.4002 104.1 44.4002 116.1 41.4002 116.1 41.4002 104.1ZM44.4002 125.1 44.4002 137.1 41.4002 137.1 41.4002 125.1ZM44.4002 146.1 44.4002 158.1 41.4002 158.1 41.4002 146.1ZM44.4002 167.1 44.4002 179.1 41.4002 179.1 41.4002 167.1ZM44.4002 188.1 44.4002 200.1 41.4002 200.1 41.4002 188.1ZM44.4002 209.1 44.4002 221.1 41.4002 221.1 41.4002 209.1ZM44.4002 230.1 44.4002 242.1 41.4002 242.1 41.4002 230.1ZM44.4002 251.1 44.4002 263.1 41.4002 263.1 41.4002 251.1ZM44.4002 272.1 44.4002 275.548 42.9002 274.048 51.4517 274.048 51.4517 277.048 41.4002 277.048 41.4002 272.1ZM60.4517 274.048 72.4517 274.048 72.4517 277.048 60.4517 277.048ZM76.8003 271.048 85.8003 275.548 76.8003 280.048Z" transform="matrix(-1 1.22465e-16 1.22465e-16 1 885.3 203.5)"/><path d="M0-1.5 12-1.5 12 1.5 0 1.5ZM21-1.5 33-1.5 33 1.5 21 1.5ZM42-1.5 44.4003-1.5 44.4003 11.0997 41.4003 11.0997 41.4003 0 42.9003 1.5 42 1.5ZM44.4003 20.0997 44.4003 32.0997 41.4003 32.0997 41.4003 20.0997ZM44.4003 41.0997 44.4003 53.0997 41.4003 53.0997 41.4003 41.0997ZM44.4003 62.0997 44.4003 74.0997 41.4003 74.0997 41.4003 62.0997ZM44.4003 83.0997 44.4003 95.0997 41.4003 95.0997 41.4003 83.0997ZM44.4003 104.1 44.4003 116.1 41.4003 116.1 41.4003 104.1ZM44.4003 125.1 44.4003 137.1 41.4003 137.1 41.4003 125.1ZM44.4003 146.1 44.4003 158.1 41.4003 158.1 41.4003 146.1ZM44.4003 167.1 44.4003 179.1 41.4003 179.1 41.4003 167.1ZM44.4003 188.1 44.4003 193.607 42.9003 192.107 49.3935 192.107 49.3935 195.107 41.4003 195.107 41.4003 188.1ZM58.3935 192.107 70.3935 192.107 70.3935 195.107 58.3935 195.107ZM76.8003 189.107 85.8003 193.607 76.8003 198.107Z" transform="matrix(-1 1.22465e-16 1.22465e-16 1 885.3 285.5)"/><path d="M624 503.5 624 515.5 621 515.5 621 503.5ZM624 524.5 624 536.5 621 536.5 621 524.5ZM624 545.5 624 557.5 621 557.5 621 545.5ZM624 566.5 624 578.5 621 578.5 621 566.5ZM627 579.998 622.5 588.998 618 579.998Z"/><rect x="2.50005" y="114.5" width="343" height="49" stroke="#595959" stroke-width="1.33333" stroke-miterlimit="8" fill="#5B9BD5"/><text fill="#FFFFFF" font-family="Calibri,Calibri_MSFontService,sans-serif" font-weight="400" font-size="24" transform="translate(53.6379 146)">Processed Phecode Data</text><rect x="2.50005" y="18.5001" width="342" height="49" stroke="#595959" stroke-width="1.33333" stroke-miterlimit="8" fill="#5B9BD5"/><text fill="#FFFFFF" font-family="Calibri,Calibri_MSFontService,sans-serif" font-weight="400" font-size="24" transform="translate(51.4001 50)">Processed Antibody Data</text><rect x="2.50005" y="210.5" width="343" height="49" stroke="#595959" stroke-width="1.33333" stroke-miterlimit="8" fill="#5B9BD5"/><text fill="#FFFFFF" font-family="Calibri,Calibri_MSFontService,sans-serif" font-weight="400" font-size="24" transform="translate(49.6745 243)">Processed Covariate Data</text><rect x="2.50005" y="307.5" width="432" height="49" stroke="#595959" stroke-width="1.33333" stroke-miterlimit="8" fill="#C9C9C9"/><text font-family="Calibri,Calibri_MSFontService,sans-serif" font-weight="400" font-size="24" transform="translate(13.9812 339)">original_phecodes_gender_restriction.csv</text><path d="M445.5 455.5 775.5 455.5 799.5 479.5 799.5 503.5 799.5 503.5 469.5 503.5 445.5 479.5 445.5 455.5Z" stroke="#595959" stroke-width="1.33333" stroke-miterlimit="8" fill="#5B9BD5" fill-rule="evenodd"/><text fill="#FFFFFF" font-family="Calibri,Calibri_MSFontService,sans-serif" font-weight="400" font-size="24" transform="translate(477.206 486)">ukb_phecode_analysis_pub.R</text><rect x="350.5" y="588.5" width="544" height="49" stroke="#595959" stroke-width="1.33333" stroke-miterlimit="8" fill="#C5E0B4"/><text font-family="Calibri,Calibri_MSFontService,sans-serif" font-weight="400" font-size="24" transform="translate(360.016 620)">ukb_phecode_results_MCC_of_ONE_2024_10_22.csv</text><path d="M885.5 179.5 1214.5 179.5 1238.5 203.5 1238.5 227.5 1238.5 227.5 909.5 227.5 885.5 203.5 885.5 179.5Z" stroke="#595959" stroke-width="1.33333" stroke-miterlimit="8" fill="#C9C9C9" fill-rule="evenodd"/><text font-family="Calibri,Calibri_MSFontService,sans-serif" font-weight="400" font-size="24" transform="translate(943.629 211)">helper_functions_pub.R</text><path d="M885.5 261.5 1214.5 261.5 1238.5 285.5 1238.5 309.5 1238.5 309.5 909.5 309.5 885.5 285.5 885.5 261.5Z" stroke="#595959" stroke-width="1.33333" stroke-miterlimit="8" fill="#C9C9C9" fill-rule="evenodd"/><text font-family="Calibri,Calibri_MSFontService,sans-serif" font-weight="400" font-size="24" transform="translate(937.239 293)">analysis_functions_pub.R</text></g></svg>