<svg width="1280" height="720" xmlns="http://www.w3.org/2000/svg" xmlns:xlink="http://www.w3.org/1999/xlink" overflow="hidden"><g><rect x="0" y="0" width="1280" height="720" fill="#FFFFFF"/><path d="M366.5 36.0001 378.5 36.0001 378.5 39.0001 366.5 39.0001ZM387.5 36.0001 399.5 36.0001 399.5 39.0001 387.5 39.0001ZM408.5 36.0001 420.5 36.0001 420.5 39.0001 408.5 39.0001ZM429.5 36.0001 441.5 36.0001 441.5 39.0001 429.5 39.0001ZM450.5 36.0001 462.5 36.0001 462.5 39.0001 450.5 39.0001ZM471.5 36.0001 483.5 36.0001 483.5 39.0001 471.5 39.0001ZM492.5 36.0001 504.5 36.0001 504.5 39.0001 492.5 39.0001ZM513.5 36.0001 525.5 36.0001 525.5 39.0001 513.5 39.0001ZM534.5 36.0001 546.5 36.0001 546.5 39.0001 534.5 39.0001ZM555.5 36.0001 567.5 36.0001 567.5 39.0001 555.5 39.0001ZM576.5 36.0001 588.5 36.0001 588.5 39.0001 576.5 39.0001ZM597.5 36.0001 609.5 36.0001 609.5 39.0001 597.5 39.0001ZM618.5 36.0001 630.5 36.0001 630.5 39.0001 618.5 39.0001ZM639.5 36.0001 641.721 36.0001 641.721 48.7793 638.721 48.7793 638.721 37.5001 640.221 39.0001 639.5 39.0001ZM641.721 57.7793 641.721 69.7793 638.721 69.7793 638.721 57.7793ZM641.721 78.7793 641.721 90.7793 638.721 90.7793 638.721 78.7793ZM641.721 99.7793 641.721 111.779 638.721 111.779 638.721 99.7793ZM641.721 120.779 641.721 132.779 638.721 132.779 638.721 120.779ZM641.721 141.779 641.721 153.779 638.721 153.779 638.721 141.779ZM641.721 162.779 641.721 174.779 638.721 174.779 638.721 162.779ZM641.721 183.779 641.721 195.779 638.721 195.779 638.721 183.779ZM641.721 204.779 641.721 216.779 638.721 216.779 638.721 204.779ZM641.721 225.779 641.721 237.779 638.721 237.779 638.721 225.779ZM641.721 246.779 641.721 258.779 638.721 258.779 638.721 246.779ZM641.721 267.779 641.721 279.779 638.721 279.779 638.721 267.779ZM641.721 288.779 641.721 300.779 638.721 300.779 638.721 288.779ZM641.721 309.779 641.721 321.779 638.721 321.779 638.721 309.779ZM641.721 330.779 641.721 342.779 638.721 342.779 638.721 330.779ZM641.721 351.779 641.721 363.779 638.721 363.779 638.721 351.779ZM641.721 372.779 641.721 384.779 638.721 384.779 638.721 372.779ZM641.721 393.779 641.721 405.779 638.721 405.779 638.721 393.779ZM641.721 414.779 641.721 426.779 638.721 426.779 638.721 414.779ZM641.721 435.779 641.721 447.779 638.721 447.779 638.721 435.779ZM641.721 456.779 641.721 468.779 638.721 468.779 638.721 456.779ZM641.721 477.779 641.721 489.779 638.721 489.779 638.721 477.779ZM641.721 498.779 641.721 507.34 638.721 507.34 638.721 498.779ZM644.721 505.839 640.221 514.839 635.721 505.839Z"/><path d="M366.5 108 378.5 108 378.5 111 366.5 111ZM387.5 108 399.5 108 399.5 111 387.5 111ZM408.5 108 420.5 108 420.5 111 408.5 111ZM429.5 108 441.5 108 441.5 111 429.5 111ZM450.5 108 462.5 108 462.5 111 450.5 111ZM471.5 108 483.5 108 483.5 111 471.5 111ZM492.5 108 504.5 108 504.5 111 492.5 111ZM513.5 108 525.5 108 525.5 111 513.5 111ZM534.5 108 546.5 108 546.5 111 534.5 111ZM555.5 108 567.5 108 567.5 111 555.5 111ZM576.5 108 588.5 108 588.5 111 576.5 111ZM597.5 108 609.5 108 609.5 111 597.5 111ZM618.5 108 630.5 108 630.5 111 618.5 111ZM639.5 108 641.721 108 641.721 120.779 638.721 120.779 638.721 109.5 640.221 111 639.5 111ZM641.721 129.779 641.721 141.779 638.721 141.779 638.721 129.779ZM641.721 150.779 641.721 162.779 638.721 162.779 638.721 150.779ZM641.721 171.779 641.721 183.779 638.721 183.779 638.721 171.779ZM641.721 192.779 641.721 204.779 638.721 204.779 638.721 192.779ZM641.721 213.779 641.721 225.779 638.721 225.779 638.721 213.779ZM641.721 234.779 641.721 246.779 638.721 246.779 638.721 234.779ZM641.721 255.779 641.721 267.779 638.721 267.779 638.721 255.779ZM641.721 276.779 641.721 288.779 638.721 288.779 638.721 276.779ZM641.721 297.779 641.721 309.779 638.721 309.779 638.721 297.779ZM641.721 318.779 641.721 330.779 638.721 330.779 638.721 318.779ZM641.721 339.779 641.721 351.779 638.721 351.779 638.721 339.779ZM641.721 360.779 641.721 372.779 638.721 372.779 638.721 360.779ZM641.721 381.779 641.721 393.779 638.721 393.779 638.721 381.779ZM641.721 402.779 641.721 414.779 638.721 414.779 638.721 402.779ZM641.721 423.779 641.721 435.779 638.721 435.779 638.721 423.779ZM641.721 444.779 641.721 456.779 638.721 456.779 638.721 444.779ZM641.721 465.779 641.721 477.779 638.721 477.779 638.721 465.779ZM641.721 486.779 641.721 498.779 638.721 498.779 638.721 486.779ZM644.721 506.096 640.221 515.096 635.721 506.096Z"/><path d="M366.5 180 378.5 180 378.5 183 366.5 183ZM387.5 180 399.5 180 399.5 183 387.5 183ZM408.5 180 420.5 180 420.5 183 408.5 183ZM429.5 180 441.5 180 441.5 183 429.5 183ZM450.5 180 462.5 180 462.5 183 450.5 183ZM471.5 180 483.5 180 483.5 183 471.5 183ZM492.5 180 504.5 180 504.5 183 492.5 183ZM513.5 180 525.5 180 525.5 183 513.5 183ZM534.5 180 546.5 180 546.5 183 534.5 183ZM555.5 180 567.5 180 567.5 183 555.5 183ZM576.5 180 588.5 180 588.5 183 576.5 183ZM597.5 180 609.5 180 609.5 183 597.5 183ZM618.5 180 630.5 180 630.5 183 618.5 183ZM639.5 180 641.721 180 641.721 192.779 638.721 192.779 638.721 181.5 640.221 183 639.5 183ZM641.721 201.779 641.721 213.779 638.721 213.779 638.721 201.779ZM641.721 222.779 641.721 234.779 638.721 234.779 638.721 222.779ZM641.721 243.779 641.721 255.779 638.721 255.779 638.721 243.779ZM641.721 264.779 641.721 276.779 638.721 276.779 638.721 264.779ZM641.721 285.779 641.721 297.779 638.721 297.779 638.721 285.779ZM641.721 306.779 641.721 318.779 638.721 318.779 638.721 306.779ZM641.721 327.779 641.721 339.779 638.721 339.779 638.721 327.779ZM641.721 348.779 641.721 360.779 638.721 360.779 638.721 348.779ZM641.721 369.779 641.721 381.779 638.721 381.779 638.721 369.779ZM641.721 390.779 641.721 402.779 638.721 402.779 638.721 390.779ZM641.721 411.779 641.721 423.779 638.721 423.779 638.721 411.779ZM641.721 432.779 641.721 444.779 638.721 444.779 638.721 432.779ZM641.721 453.779 641.721 465.779 638.721 465.779 638.721 453.779ZM641.721 474.779 641.721 486.779 638.721 486.779 638.721 474.779ZM641.721 495.779 641.721 507.779 638.721 507.779 638.721 495.779ZM644.721 506.353 640.221 515.353 635.721 506.353Z"/><path d="M366.5 252 378.5 252 378.5 255 366.5 255ZM387.5 252 399.5 252 399.5 255 387.5 255ZM408.5 252 420.5 252 420.5 255 408.5 255ZM429.5 252 441.5 252 441.5 255 429.5 255ZM450.5 252 462.5 252 462.5 255 450.5 255ZM471.5 252 483.5 252 483.5 255 471.5 255ZM492.5 252 504.5 252 504.5 255 492.5 255ZM513.5 252 525.5 252 525.5 255 513.5 255ZM534.5 252 546.5 252 546.5 255 534.5 255ZM555.5 252 567.5 252 567.5 255 555.5 255ZM576.5 252 588.5 252 588.5 255 576.5 255ZM597.5 252 609.5 252 609.5 255 597.5 255ZM618.5 252 630.5 252 630.5 255 618.5 255ZM639.5 252 641.721 252 641.721 264.779 638.721 264.779 638.721 253.5 640.221 255 639.5 255ZM641.721 273.779 641.721 285.779 638.721 285.779 638.721 273.779ZM641.721 294.779 641.721 306.779 638.721 306.779 638.721 294.779ZM641.721 315.779 641.721 327.779 638.721 327.779 638.721 315.779ZM641.721 336.779 641.721 348.779 638.721 348.779 638.721 336.779ZM641.721 357.779 641.721 369.779 638.721 369.779 638.721 357.779ZM641.721 378.779 641.721 390.779 638.721 390.779 638.721 378.779ZM641.721 399.779 641.721 411.779 638.721 411.779 638.721 399.779ZM641.721 420.779 641.721 432.779 638.721 432.779 638.721 420.779ZM641.721 441.779 641.721 453.779 638.721 453.779 638.721 441.779ZM641.721 462.779 641.721 474.779 638.721 474.779 638.721 462.779ZM641.721 483.779 641.721 495.779 638.721 495.779 638.721 483.779ZM641.721 504.779 641.721 508.11 638.721 508.11 638.721 504.779ZM644.721 506.61 640.221 515.61 635.721 506.61Z"/><path d="M366.5 323 378.5 323 378.5 326 366.5 326ZM387.5 323 399.5 323 399.5 326 387.5 326ZM408.5 323 420.5 323 420.5 326 408.5 326ZM429.5 323 441.5 323 441.5 326 429.5 326ZM450.5 323 462.5 323 462.5 326 450.5 326ZM471.5 323 483.5 323 483.5 326 471.5 326ZM492.5 323 504.5 323 504.5 326 492.5 326ZM513.5 323 525.5 323 525.5 326 513.5 326ZM534.5 323 546.5 323 546.5 326 534.5 326ZM555.5 323 567.5 323 567.5 326 555.5 326ZM576.5 323 588.5 323 588.5 326 576.5 326ZM597.5 323 609.5 323 609.5 326 597.5 326ZM618.5 323 630.5 323 630.5 326 618.5 326ZM639.5 323 641.721 323 641.721 335.779 638.721 335.779 638.721 324.5 640.221 326 639.5 326ZM641.721 344.779 641.721 356.779 638.721 356.779 638.721 344.779ZM641.721 365.779 641.721 377.779 638.721 377.779 638.721 365.779ZM641.721 386.779 641.721 398.779 638.721 398.779 638.721 386.779ZM641.721 407.779 641.721 419.779 638.721 419.779 638.721 407.779ZM641.721 428.779 641.721 440.779 638.721 440.779 638.721 428.779ZM641.721 449.779 641.721 461.779 638.721 461.779 638.721 449.779ZM641.721 470.779 641.721 482.779 638.721 482.779 638.721 470.779ZM641.721 491.779 641.721 503.779 638.721 503.779 638.721 491.779ZM644.721 505.867 640.221 514.867 635.721 505.867Z"/><path d="M366.5 395 378.5 395 378.5 398 366.5 398ZM387.5 395 399.5 395 399.5 398 387.5 398ZM408.5 395 420.5 395 420.5 398 408.5 398ZM429.5 395 441.5 395 441.5 398 429.5 398ZM450.5 395 462.5 395 462.5 398 450.5 398ZM471.5 395 483.5 395 483.5 398 471.5 398ZM492.5 395 504.5 395 504.5 398 492.5 398ZM513.5 395 525.5 395 525.5 398 513.5 398ZM534.5 395 546.5 395 546.5 398 534.5 398ZM555.5 395 567.5 395 567.5 398 555.5 398ZM576.5 395 588.5 395 588.5 398 576.5 398ZM597.5 395 609.5 395 609.5 398 597.5 398ZM618.5 395 630.5 395 630.5 398 618.5 398ZM639.5 395 641.721 395 641.721 407.779 638.721 407.779 638.721 396.5 640.221 398 639.5 398ZM641.721 416.779 641.721 428.779 638.721 428.779 638.721 416.779ZM641.721 437.779 641.721 449.779 638.721 449.779 638.721 437.779ZM641.721 458.779 641.721 470.779 638.721 470.779 638.721 458.779ZM641.721 479.779 641.721 491.779 638.721 491.779 638.721 479.779ZM641.721 500.779 641.721 507.625 638.721 507.625 638.721 500.779ZM644.721 506.125 640.221 515.125 635.721 506.125Z"/><path d="M0-1.5 12-1.5 12 1.5 0 1.5ZM21-1.5 30.993-1.5 30.993 3.50703 27.993 3.50703 27.993 0 29.493 1.5 21 1.5ZM30.993 12.507 30.993 24.507 27.993 24.507 27.993 12.507ZM30.993 33.507 30.993 45.507 27.993 45.507 27.993 33.507ZM30.993 54.507 30.993 66.507 27.993 66.507 27.993 54.507ZM30.993 75.507 30.993 87.507 27.993 87.507 27.993 75.507ZM30.993 96.507 30.993 108.507 27.993 108.507 27.993 96.507ZM30.993 117.507 30.993 129.507 27.993 129.507 27.993 117.507ZM30.993 138.507 30.993 150.507 27.993 150.507 27.993 138.507ZM30.993 159.507 30.993 171.507 27.993 171.507 27.993 159.507ZM30.993 180.507 30.993 192.507 27.993 192.507 27.993 180.507ZM30.993 201.507 30.993 213.507 27.993 213.507 27.993 201.507ZM30.993 222.507 30.993 234.507 27.993 234.507 27.993 222.507ZM30.993 243.507 30.993 255.507 27.993 255.507 27.993 243.507ZM30.993 264.507 30.993 276.507 27.993 276.507 27.993 264.507ZM30.993 285.507 30.993 296.572 29.493 295.072 30.4275 295.072 30.4275 298.072 27.993 298.072 27.993 285.507ZM39.4275 295.072 51.4275 295.072 51.4275 298.072 39.4275 298.072ZM49.9859 292.072 58.9859 296.572 49.9859 301.072Z" transform="matrix(-1 1.22465e-16 1.22465e-16 1 906.486 242.5)"/><path d="M0-1.5 12-1.5 12 1.5 0 1.5ZM21-1.5 30.9931-1.5 30.9931 3.50692 27.9931 3.50692 27.9931 0 29.4931 1.5 21 1.5ZM30.9931 12.5069 30.9931 24.5069 27.9931 24.5069 27.9931 12.5069ZM30.9931 33.5069 30.9931 45.5069 27.9931 45.5069 27.9931 33.5069ZM30.9931 54.5069 30.9931 66.5069 27.9931 66.5069 27.9931 54.5069ZM30.9931 75.5069 30.9931 87.5069 27.9931 87.5069 27.9931 75.5069ZM30.9931 96.5069 30.9931 108.507 27.9931 108.507 27.9931 96.5069ZM30.9931 117.507 30.9931 129.507 27.9931 129.507 27.9931 117.507ZM30.9931 138.507 30.9931 150.507 27.9931 150.507 27.9931 138.507ZM30.9931 159.507 30.9931 171.507 27.9931 171.507 27.9931 159.507ZM30.9931 180.507 30.9931 192.507 27.9931 192.507 27.9931 180.507ZM30.9931 201.507 30.9931 213.507 27.9931 213.507 27.9931 201.507ZM37.6025 212.897 49.6025 212.897 49.6025 215.897 37.6025 215.897ZM49.9859 209.897 58.9859 214.397 49.9859 218.897Z" transform="matrix(-1 1.22465e-16 1.22465e-16 1 906.486 324.5)"/><text font-family="Arial,Arial_MSFontService,sans-serif" font-weight="400" font-size="43" transform="translate(9.6 704)">UKB</text><text font-family="Arial,Arial_MSFontService,sans-serif" font-weight="400" font-size="43" transform="translate(109.267 704)">ICD</text><text font-family="Arial,Arial_MSFontService,sans-serif" font-weight="400" font-size="43" transform="translate(194.6 704)">Permutation</text><text font-family="Arial,Arial_MSFontService,sans-serif" font-weight="400" font-size="43" transform="translate(433.747 704)">Analysis</text><path d="M366.5 467 378.5 467 378.5 470 366.5 470ZM387.5 467 399.5 467 399.5 470 387.5 470ZM408.5 467 420.5 467 420.5 470 408.5 470ZM429.5 467 441.5 467 441.5 470 429.5 470ZM450.5 467 462.5 467 462.5 470 450.5 470ZM471.5 467 483.5 467 483.5 470 471.5 470ZM492.5 467 504.5 467 504.5 470 492.5 470ZM513.5 467 525.5 467 525.5 470 513.5 470ZM534.5 467 546.5 467 546.5 470 534.5 470ZM555.5 467 567.5 467 567.5 470 555.5 470ZM576.5 467 588.5 467 588.5 470 576.5 470ZM597.5 467 609.5 467 609.5 470 597.5 470ZM618.5 467 630.5 467 630.5 470 618.5 470ZM639.5 467 641.762 467 641.762 479.738 638.762 479.738 638.762 468.5 640.262 470 639.5 470ZM641.762 488.738 641.762 500.738 638.762 500.738 638.762 488.738ZM644.762 506.382 640.262 515.382 635.762 506.382Z"/><rect x="905.5" y="382.5" width="355" height="49" stroke="#595959" stroke-width="1.33333" stroke-miterlimit="8" fill="#C9C9C9"/><text font-family="Calibri,Calibri_MSFontService,sans-serif" font-weight="400" font-size="24" transform="translate(975.883 414)">N_PERMUTE = 10,000</text><path d="M0-1.5 12-1.5 12 1.5 0 1.5ZM21-1.5 30.5264-1.5 30.5264 3.97363 27.5264 3.97363 27.5264 0 29.0264 1.5 21 1.5ZM30.5264 12.9736 30.5264 24.9736 27.5264 24.9736 27.5264 12.9736ZM30.5264 33.9736 30.5264 45.9736 27.5264 45.9736 27.5264 33.9736ZM30.5264 54.9736 30.5264 66.9736 27.5264 66.9736 27.5264 54.9736ZM30.5264 75.9736 30.5264 87.9736 27.5264 87.9736 27.5264 75.9736ZM30.5264 96.9736 30.5264 108.974 27.5264 108.974 27.5264 96.9736ZM30.5264 117.974 30.5264 129.974 27.5264 129.974 27.5264 117.974ZM36.2574 130.243 48.2574 130.243 48.2574 133.243 36.2574 133.243ZM49.0526 127.243 58.0526 131.743 49.0526 136.243Z" transform="matrix(-1 1.22465e-16 1.22465e-16 1 905.553 407.5)"/><rect x="13.5001" y="13.5001" width="353" height="49" stroke="#595959" stroke-width="1.33333" stroke-miterlimit="8" fill="#5B9BD5"/><text fill="#FFFFFF" font-family="Calibri,Calibri_MSFontService,sans-serif" font-weight="400" font-size="24" transform="translate(67.9492 45)">Processed Antibody Data</text><rect x="13.5001" y="85.5001" width="353" height="49" stroke="#595959" stroke-width="1.33333" stroke-miterlimit="8" fill="#5B9BD5"/><text fill="#FFFFFF" font-family="Calibri,Calibri_MSFontService,sans-serif" font-weight="400" font-size="24" transform="translate(51.5826 117)">Processed Cancer Diagnoses</text><rect x="13.5001" y="228.5" width="353" height="49" stroke="#595959" stroke-width="1.33333" stroke-miterlimit="8" fill="#5B9BD5"/><text fill="#FFFFFF" font-family="Calibri,Calibri_MSFontService,sans-serif" font-weight="400" font-size="24" transform="translate(66.1426 260)">Processed Covariate Data</text><rect x="13.5001" y="156.5" width="353" height="49" stroke="#595959" stroke-width="1.33333" stroke-miterlimit="8" fill="#5B9BD5"/><text fill="#FFFFFF" font-family="Calibri,Calibri_MSFontService,sans-serif" font-weight="400" font-size="24" transform="translate(28.9159 188)">Processed non</text><text fill="#FFFFFF" font-family="Calibri,Calibri_MSFontService,sans-serif" font-weight="400" font-size="24" transform="translate(170.863 188)">-</text><text fill="#FFFFFF" font-family="Calibri,Calibri_MSFontService,sans-serif" font-weight="400" font-size="24" transform="translate(178.196 188)">Cancer Diagnoses</text><rect x="13.5001" y="300.5" width="353" height="49" stroke="#595959" stroke-width="1.33333" stroke-miterlimit="8" fill="#5B9BD5"/><text fill="#FFFFFF" font-family="Calibri,Calibri_MSFontService,sans-serif" font-weight="400" font-size="24" transform="translate(92.5226 332)">Antibody Dictionary</text><rect x="13.5001" y="372.5" width="353" height="48" stroke="#595959" stroke-width="1.33333" stroke-miterlimit="8" fill="#C9C9C9"/><text font-family="Calibri,Calibri_MSFontService,sans-serif" font-weight="400" font-size="24" transform="translate(40.3426 404)">Sex</text><text font-family="Calibri,Calibri_MSFontService,sans-serif" font-weight="400" font-size="24" transform="translate(73.3159 404)">-</text><text font-family="Calibri,Calibri_MSFontService,sans-serif" font-weight="400" font-size="24" transform="translate(80.6492 404)">specific Disease Dictionary</text><rect x="13.5001" y="443.5" width="353" height="49" stroke="#595959" stroke-width="1.33333" stroke-miterlimit="8" fill="#5B9BD5"/><text fill="#FFFFFF" font-family="Calibri,Calibri_MSFontService,sans-serif" font-weight="400" font-size="24" transform="translate(28.3093 475)">ukb_icd_results_01_17_2023.csv</text><path d="M433.5 515.5 823.5 515.5 847.5 539.5 847.5 563.5 847.5 563.5 457.5 563.5 433.5 539.5 433.5 515.5Z" stroke="#595959" stroke-width="1.33333" stroke-miterlimit="8" fill="#5B9BD5" fill-rule="evenodd"/><text fill="#FFFFFF" font-family="Calibri,Calibri_MSFontService,sans-serif" font-weight="400" font-size="24" transform="translate(455.95 546)">ukb_icd_permutation_analysis_pub.R</text><path d="M906.5 218.5 1235.5 218.5 1259.5 242.5 1259.5 266.5 1259.5 266.5 930.5 266.5 906.5 242.5 906.5 218.5Z" stroke="#595959" stroke-width="1.33333" stroke-miterlimit="8" fill="#C9C9C9" fill-rule="evenodd"/><text font-family="Calibri,Calibri_MSFontService,sans-serif" font-weight="400" font-size="24" transform="translate(965.049 250)">helper_functions_pub.R</text><path d="M906.5 300.5 1235.5 300.5 1259.5 324.5 1259.5 348.5 1259.5 348.5 930.5 348.5 906.5 324.5 906.5 300.5Z" stroke="#595959" stroke-width="1.33333" stroke-miterlimit="8" fill="#C9C9C9" fill-rule="evenodd"/><text font-family="Calibri,Calibri_MSFontService,sans-serif" font-weight="400" font-size="24" transform="translate(958.659 332)">analysis_functions_pub.R</text><rect x="442.5" y="608.5" width="396" height="49" stroke="#595959" stroke-width="1.33333" stroke-miterlimit="8" fill="#C5E0B4"/><text font-family="Calibri,Calibri_MSFontService,sans-serif" font-weight="400" font-size="24" transform="translate(459.497 640)">Files with 450K Permutations per ICD</text><path d="M642 563.5 642 575.5 639 575.5 639 563.5ZM642 584.5 642 596.5 639 596.5 639 584.5ZM645 600.266 640.5 609.266 636 600.266Z"/></g></svg>