<svg width="1280" height="720" xmlns="http://www.w3.org/2000/svg" xmlns:xlink="http://www.w3.org/1999/xlink" overflow="hidden"><g><rect x="0" y="0" width="1280" height="720" fill="#FFFFFF"/><text font-family="Arial,Arial_MSFontService,sans-serif" font-weight="400" font-size="43" transform="translate(9.6 704)">UKB</text><text font-family="Arial,Arial_MSFontService,sans-serif" font-weight="400" font-size="43" transform="translate(109.267 704)">Phecode</text><text font-family="Arial,Arial_MSFontService,sans-serif" font-weight="400" font-size="43" transform="translate(289.267 704)">Data</text><text font-family="Arial,Arial_MSFontService,sans-serif" font-weight="400" font-size="43" transform="translate(391.1 704)">Prep</text><path d="M323.5 37.0001 335.5 37.0001 335.5 40.0001 323.5 40.0001ZM344.5 37.0001 356.5 37.0001 356.5 40.0001 344.5 40.0001ZM365.5 37.0001 377.5 37.0001 377.5 40.0001 365.5 40.0001ZM386.5 37.0001 398.5 37.0001 398.5 40.0001 386.5 40.0001ZM407.5 37.0001 419.5 37.0001 419.5 40.0001 407.5 40.0001ZM428.5 37.0001 440.5 37.0001 440.5 40.0001 428.5 40.0001ZM449.5 37.0001 461.5 37.0001 461.5 40.0001 449.5 40.0001ZM470.5 37.0001 482.5 37.0001 482.5 40.0001 470.5 40.0001ZM491.5 37.0001 503.5 37.0001 503.5 40.0001 491.5 40.0001ZM512.5 37.0001 524.5 37.0001 524.5 40.0001 512.5 40.0001ZM533.5 37.0001 545.5 37.0001 545.5 40.0001 533.5 40.0001ZM554.5 37.0001 558.768 37.0001 558.768 47.7322 555.768 47.7322 555.768 38.5001 557.268 40.0001 554.5 40.0001ZM558.768 56.7322 558.768 68.7322 555.768 68.7322 555.768 56.7322ZM558.768 77.7322 558.768 89.7322 555.768 89.7322 555.768 77.7322ZM558.768 98.7322 558.768 110.732 555.768 110.732 555.768 98.7322ZM558.768 119.732 558.768 131.732 555.768 131.732 555.768 119.732ZM558.768 140.732 558.768 152.732 555.768 152.732 555.768 140.732ZM558.768 161.732 558.768 173.732 555.768 173.732 555.768 161.732ZM558.768 182.732 558.768 194.732 555.768 194.732 555.768 182.732ZM558.768 203.732 558.768 215.732 555.768 215.732 555.768 203.732ZM558.768 224.732 558.768 236.732 555.768 236.732 555.768 224.732ZM558.768 245.732 558.768 257.732 555.768 257.732 555.768 245.732ZM558.768 266.732 558.768 267.088 555.768 267.088 555.768 266.732ZM561.768 265.588 557.268 274.588 552.768 265.588Z"/><path d="M323.5 97.0001 335.5 97.0001 335.5 100 323.5 100ZM344.5 97.0001 356.5 97.0001 356.5 100 344.5 100ZM365.5 97.0001 377.5 97.0001 377.5 100 365.5 100ZM386.5 97.0001 398.5 97.0001 398.5 100 386.5 100ZM407.5 97.0001 419.5 97.0001 419.5 100 407.5 100ZM428.5 97.0001 440.5 97.0001 440.5 100 428.5 100ZM449.5 97.0001 461.5 97.0001 461.5 100 449.5 100ZM470.5 97.0001 482.5 97.0001 482.5 100 470.5 100ZM491.5 97.0001 503.5 97.0001 503.5 100 491.5 100ZM512.5 97.0001 524.5 97.0001 524.5 100 512.5 100ZM533.5 97.0001 545.5 97.0001 545.5 100 533.5 100ZM554.5 97.0001 558.768 97.0001 558.768 107.732 555.768 107.732 555.768 98.5001 557.268 100 554.5 100ZM558.768 116.732 558.768 128.732 555.768 128.732 555.768 116.732ZM558.768 137.732 558.768 149.732 555.768 149.732 555.768 137.732ZM558.768 158.732 558.768 170.732 555.768 170.732 555.768 158.732ZM558.768 179.732 558.768 191.732 555.768 191.732 555.768 179.732ZM558.768 200.732 558.768 212.732 555.768 212.732 555.768 200.732ZM558.768 221.732 558.768 233.732 555.768 233.732 555.768 221.732ZM558.768 242.732 558.768 254.732 555.768 254.732 555.768 242.732ZM558.768 263.732 558.768 267.193 555.768 267.193 555.768 263.732ZM561.768 265.693 557.268 274.693 552.768 265.693Z"/><path d="M323.5 217 335.5 217 335.5 220 323.5 220ZM344.5 217 356.5 217 356.5 220 344.5 220ZM365.5 217 377.5 217 377.5 220 365.5 220ZM386.5 217 398.5 217 398.5 220 386.5 220ZM407.5 217 419.5 217 419.5 220 407.5 220ZM428.5 217 440.5 217 440.5 220 428.5 220ZM449.5 217 461.5 217 461.5 220 449.5 220ZM470.5 217 482.5 217 482.5 220 470.5 220ZM491.5 217 503.5 217 503.5 220 491.5 220ZM512.5 217 524.5 217 524.5 220 512.5 220ZM533.5 217 545.5 217 545.5 220 533.5 220ZM554.5 217 558.768 217 558.768 227.732 555.768 227.732 555.768 218.5 557.268 220 554.5 220ZM558.768 236.732 558.768 248.732 555.768 248.732 555.768 236.732ZM558.768 257.732 558.768 267.403 555.768 267.403 555.768 257.732ZM561.768 265.903 557.268 274.903 552.768 265.903Z"/><path d="M323.5 157 335.5 157 335.5 160 323.5 160ZM344.5 157 356.5 157 356.5 160 344.5 160ZM365.5 157 377.5 157 377.5 160 365.5 160ZM386.5 157 398.5 157 398.5 160 386.5 160ZM407.5 157 419.5 157 419.5 160 407.5 160ZM428.5 157 440.5 157 440.5 160 428.5 160ZM449.5 157 461.5 157 461.5 160 449.5 160ZM470.5 157 482.5 157 482.5 160 470.5 160ZM491.5 157 503.5 157 503.5 160 491.5 160ZM512.5 157 524.5 157 524.5 160 512.5 160ZM533.5 157 545.5 157 545.5 160 533.5 160ZM554.5 157 558.768 157 558.768 167.732 555.768 167.732 555.768 158.5 557.268 160 554.5 160ZM558.768 176.732 558.768 188.732 555.768 188.732 555.768 176.732ZM558.768 197.732 558.768 209.732 555.768 209.732 555.768 197.732ZM558.768 218.732 558.768 230.732 555.768 230.732 555.768 218.732ZM558.768 239.732 558.768 251.732 555.768 251.732 555.768 239.732ZM558.768 260.732 558.768 267.298 555.768 267.298 555.768 260.732ZM561.768 265.798 557.268 274.798 552.768 265.798Z"/><path d="M764.5 298 776.5 298 776.5 301 764.5 301ZM785.5 298 797.5 298 797.5 301 785.5 301ZM806.5 298 818.5 298 818.5 301 806.5 301ZM827.5 298 839.5 298 839.5 301 827.5 301ZM847.885 301.615 847.885 313.615 844.885 313.615 844.885 301.615ZM854.432 313.069 866.432 313.069 866.432 316.069 854.432 316.069ZM875.432 313.069 887.432 313.069 887.432 316.069 875.432 316.069ZM896.432 313.069 908.432 313.069 908.432 316.069 896.432 316.069ZM917.432 313.069 920.771 313.069 920.771 316.069 917.432 316.069ZM919.271 310.069 928.271 314.569 919.271 319.069Z"/><path d="M764.5 298 776.5 298 776.5 301 764.5 301ZM785.5 298 797.5 298 797.5 301 785.5 301ZM806.5 298 818.5 298 818.5 301 806.5 301ZM827.5 298 839.5 298 839.5 301 827.5 301ZM847.885 301.615 847.885 313.615 844.885 313.615 844.885 301.615ZM847.885 322.615 847.885 334.615 844.885 334.615 844.885 322.615ZM847.885 343.615 847.885 355.615 844.885 355.615 844.885 343.615ZM847.885 364.615 847.885 374.381 846.385 372.881 848.619 372.881 848.619 375.881 844.885 375.881 844.885 364.615ZM857.619 372.881 869.619 372.881 869.619 375.881 857.619 375.881ZM878.619 372.881 890.619 372.881 890.619 375.881 878.619 375.881ZM899.619 372.881 911.619 372.881 911.619 375.881 899.619 375.881ZM920.619 372.881 920.771 372.881 920.771 375.881 920.619 375.881ZM919.271 369.881 928.271 374.381 919.271 378.881Z"/><path d="M764.5 298 776.5 298 776.5 301 764.5 301ZM785.5 298 797.5 298 797.5 301 785.5 301ZM806.5 298 818.5 298 818.5 301 806.5 301ZM827.5 298 839.5 298 839.5 301 827.5 301ZM847.926 301.574 847.926 313.574 844.926 313.574 844.926 301.574ZM847.926 322.574 847.926 334.574 844.926 334.574 844.926 322.574ZM847.926 343.574 847.926 355.574 844.926 355.574 844.926 343.574ZM847.926 364.574 847.926 376.574 844.926 376.574 844.926 364.574ZM847.926 385.574 847.926 397.574 844.926 397.574 844.926 385.574ZM847.926 406.574 847.926 418.574 844.926 418.574 844.926 406.574ZM847.926 427.574 847.926 434.194 846.426 432.694 851.807 432.694 851.807 435.694 844.926 435.694 844.926 427.574ZM860.807 432.694 872.807 432.694 872.807 435.694 860.807 435.694ZM881.807 432.694 893.807 432.694 893.807 435.694 881.807 435.694ZM902.807 432.694 914.807 432.694 914.807 435.694 902.807 435.694ZM919.352 429.694 928.352 434.194 919.352 438.694Z"/><path d="M764.5 298 776.5 298 776.5 301 764.5 301ZM785.5 298 797.5 298 797.5 301 785.5 301ZM806.5 298 818.5 298 818.5 301 806.5 301ZM827.5 298 839.5 298 839.5 301 827.5 301ZM847.885 301.615 847.885 313.615 844.885 313.615 844.885 301.615ZM847.885 322.615 847.885 334.615 844.885 334.615 844.885 322.615ZM847.885 343.615 847.885 355.615 844.885 355.615 844.885 343.615ZM847.885 364.615 847.885 376.615 844.885 376.615 844.885 364.615ZM847.885 385.615 847.885 397.615 844.885 397.615 844.885 385.615ZM847.885 406.615 847.885 418.615 844.885 418.615 844.885 406.615ZM847.885 427.615 847.885 439.615 844.885 439.615 844.885 427.615ZM847.885 448.615 847.885 460.615 844.885 460.615 844.885 448.615ZM847.885 469.615 847.885 481.615 844.885 481.615 844.885 469.615ZM847.885 490.615 847.885 494.006 846.385 492.506 854.994 492.506 854.994 495.506 844.885 495.506 844.885 490.615ZM863.994 492.506 875.994 492.506 875.994 495.506 863.994 495.506ZM884.994 492.506 896.994 492.506 896.994 495.506 884.994 495.506ZM905.994 492.506 917.994 492.506 917.994 495.506 905.994 495.506ZM919.271 489.506 928.271 494.006 919.271 498.506Z"/><rect x="2.50005" y="14.5001" width="321" height="49" stroke="#595959" stroke-width="1.33333" stroke-miterlimit="8" fill="#5B9BD5"/><text fill="#FFFFFF" font-family="Calibri,Calibri_MSFontService,sans-serif" font-weight="400" font-size="24" transform="translate(69.34 46)">Raw Antibody</text><text fill="#FFFFFF" font-family="Calibri,Calibri_MSFontService,sans-serif" font-weight="400" font-size="24" transform="translate(210.453 46)">D</text><text fill="#FFFFFF" font-family="Calibri,Calibri_MSFontService,sans-serif" font-weight="400" font-size="24" transform="translate(225.287 46)">ata</text><rect x="2.50005" y="74.5001" width="321" height="49" stroke="#595959" stroke-width="1.33333" stroke-miterlimit="8" fill="#5B9BD5"/><text fill="#FFFFFF" font-family="Calibri,Calibri_MSFontService,sans-serif" font-weight="400" font-size="24" transform="translate(52.9733 106)">Raw Cancer</text><text fill="#FFFFFF" font-family="Calibri,Calibri_MSFontService,sans-serif" font-weight="400" font-size="24" transform="translate(172.973 106)">D</text><text fill="#FFFFFF" font-family="Calibri,Calibri_MSFontService,sans-serif" font-weight="400" font-size="24" transform="translate(187.807 106)">iagnoses</text><rect x="2.50005" y="134.5" width="321" height="49" stroke="#595959" stroke-width="1.33333" stroke-miterlimit="8" fill="#5B9BD5"/><text fill="#FFFFFF" font-family="Calibri,Calibri_MSFontService,sans-serif" font-weight="400" font-size="24" transform="translate(28.8899 166)">Raw</text><text fill="#FFFFFF" font-family="Calibri,Calibri_MSFontService,sans-serif" font-weight="400" font-size="24" transform="translate(75.8899 166)">N</text><text fill="#FFFFFF" font-family="Calibri,Calibri_MSFontService,sans-serif" font-weight="400" font-size="24" transform="translate(91.3899 166)">on</text><text fill="#FFFFFF" font-family="Calibri,Calibri_MSFontService,sans-serif" font-weight="400" font-size="24" transform="translate(116.723 166)">-</text><text fill="#FFFFFF" font-family="Calibri,Calibri_MSFontService,sans-serif" font-weight="400" font-size="24" transform="translate(124.057 166)">Cancer</text><text fill="#FFFFFF" font-family="Calibri,Calibri_MSFontService,sans-serif" font-weight="400" font-size="24" transform="translate(197.057 166)">D</text><text fill="#FFFFFF" font-family="Calibri,Calibri_MSFontService,sans-serif" font-weight="400" font-size="24" transform="translate(211.89 166)">iagnoses</text><rect x="2.50005" y="194.5" width="321" height="49" stroke="#595959" stroke-width="1.33333" stroke-miterlimit="8" fill="#5B9BD5"/><text fill="#FFFFFF" font-family="Calibri,Calibri_MSFontService,sans-serif" font-weight="400" font-size="24" transform="translate(68.6166 226)">Raw Covariate data</text><path d="M350.5 275.5 740.5 275.5 764.5 299.5 764.5 323.5 764.5 323.5 374.5 323.5 350.5 299.5 350.5 275.5Z" stroke="#595959" stroke-width="1.33333" stroke-miterlimit="8" fill="#5B9BD5" fill-rule="evenodd"/><text fill="#FFFFFF" font-family="Calibri,Calibri_MSFontService,sans-serif" font-weight="400" font-size="24" transform="translate(381.249 306)">ukb_phecode_raw_data_proc.ipynb</text><rect x="928.5" y="289.5" width="350" height="49" stroke="#595959" stroke-width="1.33333" stroke-miterlimit="8" fill="#C5E0B4"/><text font-family="Calibri,Calibri_MSFontService,sans-serif" font-weight="400" font-size="24" transform="translate(981.374 321)">Processed Antibody Data</text><rect x="928.5" y="349.5" width="350" height="49" stroke="#595959" stroke-width="1.33333" stroke-miterlimit="8" fill="#C5E0B4"/><text font-family="Calibri,Calibri_MSFontService,sans-serif" font-weight="400" font-size="24" transform="translate(965.007 381)">Processed Cancer Diagnoses</text><rect x="928.5" y="469.5" width="350" height="49" stroke="#595959" stroke-width="1.33333" stroke-miterlimit="8" fill="#C5E0B4"/><text font-family="Calibri,Calibri_MSFontService,sans-serif" font-weight="400" font-size="24" transform="translate(979.567 501)">Processed Covariate Data</text><rect x="928.5" y="409.5" width="350" height="49" stroke="#595959" stroke-width="1.33333" stroke-miterlimit="8" fill="#C5E0B4"/><text font-family="Calibri,Calibri_MSFontService,sans-serif" font-weight="400" font-size="24" transform="translate(941.005 441)">Processed</text><text font-family="Calibri,Calibri_MSFontService,sans-serif" font-weight="400" font-size="24" transform="translate(1044.95 441)">N</text><text font-family="Calibri,Calibri_MSFontService,sans-serif" font-weight="400" font-size="24" transform="translate(1060.45 441)">on</text><text font-family="Calibri,Calibri_MSFontService,sans-serif" font-weight="400" font-size="24" transform="translate(1085.78 441)">-</text><text font-family="Calibri,Calibri_MSFontService,sans-serif" font-weight="400" font-size="24" transform="translate(1093.12 441)">Cancer</text><text font-family="Calibri,Calibri_MSFontService,sans-serif" font-weight="400" font-size="24" transform="translate(1166.12 441)">Diagnoses</text><rect x="2.50005" y="591.5" width="321" height="49" stroke="#595959" stroke-width="1.33333" stroke-miterlimit="8" fill="#5B9BD5"/><text fill="#FFFFFF" font-family="Calibri,Calibri_MSFontService,sans-serif" font-weight="400" font-size="24" transform="translate(28.3399 623)">Processed ICD</text><text fill="#FFFFFF" font-family="Calibri,Calibri_MSFontService,sans-serif" font-weight="400" font-size="24" transform="translate(171.453 623)">Disease Data</text><path d="M419.5 591.5 809.5 591.5 833.5 615.5 833.5 639.5 833.5 639.5 443.5 639.5 419.5 615.5 419.5 591.5Z" stroke="#595959" stroke-width="1.33333" stroke-miterlimit="8" fill="#5B9BD5" fill-rule="evenodd"/><text fill="#FFFFFF" font-family="Calibri,Calibri_MSFontService,sans-serif" font-weight="400" font-size="24" transform="translate(466.325 623)">ukb_phecode_translation_pub.R</text><rect x="928.5" y="591.5" width="350" height="49" stroke="#595959" stroke-width="1.33333" stroke-miterlimit="8" fill="#C5E0B4"/><text font-family="Calibri,Calibri_MSFontService,sans-serif" font-weight="400" font-size="24" transform="translate(983.571 623)">Processed</text><text font-family="Calibri,Calibri_MSFontService,sans-serif" font-weight="400" font-size="24" transform="translate(1087.52 623)">Phecode</text><text font-family="Calibri,Calibri_MSFontService,sans-serif" font-weight="400" font-size="24" transform="translate(1177.32 623)">Dat</text><text font-family="Calibri,Calibri_MSFontService,sans-serif" font-weight="400" font-size="24" transform="translate(1211.14 623)">a</text><path d="M323.5 614 335.5 614 335.5 617 323.5 617ZM344.5 614 356.5 614 356.5 617 344.5 617ZM365.5 614 377.5 614 377.5 617 365.5 617ZM386.5 614 398.5 614 398.5 617 386.5 617ZM407.5 614 411.376 614 411.376 617 407.5 617ZM409.876 611 418.876 615.5 409.876 620Z"/><path d="M833.5 614 845.5 614 845.5 617 833.5 617ZM854.5 614 866.5 614 866.5 617 854.5 617ZM875.5 614 887.5 614 887.5 617 875.5 617ZM896.5 614 908.5 614 908.5 617 896.5 617ZM917.5 614 921.336 614 921.336 617 917.5 617ZM919.836 611 928.836 615.5 919.836 620Z"/></g></svg>