<svg width="1280" height="720" xmlns="http://www.w3.org/2000/svg" xmlns:xlink="http://www.w3.org/1999/xlink" overflow="hidden"><g><rect x="0" y="0" width="1280" height="720" fill="#FFFFFF"/><text font-family="Arial,Arial_MSFontService,sans-serif" font-weight="400" font-size="43" transform="translate(9.6 704)">UKB</text><text font-family="Arial,Arial_MSFontService,sans-serif" font-weight="400" font-size="43" transform="translate(109.267 704)">ICD</text><text font-family="Arial,Arial_MSFontService,sans-serif" font-weight="400" font-size="43" transform="translate(192.247 704)">Analysis</text><path d="M364.5 37.0001 376.5 37.0001 376.5 40.0001 364.5 40.0001ZM385.5 37.0001 397.5 37.0001 397.5 40.0001 385.5 40.0001ZM406.5 37.0001 418.5 37.0001 418.5 40.0001 406.5 40.0001ZM427.5 37.0001 439.5 37.0001 439.5 40.0001 427.5 40.0001ZM448.5 37.0001 460.5 37.0001 460.5 40.0001 448.5 40.0001ZM469.5 37.0001 481.5 37.0001 481.5 40.0001 469.5 40.0001ZM490.5 37.0001 502.5 37.0001 502.5 40.0001 490.5 40.0001ZM511.5 37.0001 523.5 37.0001 523.5 40.0001 511.5 40.0001ZM532.5 37.0001 544.5 37.0001 544.5 40.0001 532.5 40.0001ZM553.5 37.0001 565.5 37.0001 565.5 40.0001 553.5 40.0001ZM574.5 37.0001 586.5 37.0001 586.5 40.0001 574.5 40.0001ZM595.5 37.0001 607.5 37.0001 607.5 40.0001 595.5 40.0001ZM616.5 37.0001 623.706 37.0001 623.706 44.7937 620.706 44.7937 620.706 38.5001 622.206 40.0001 616.5 40.0001ZM623.706 53.7937 623.706 65.7937 620.706 65.7937 620.706 53.7937ZM623.706 74.7937 623.706 86.7937 620.706 86.7937 620.706 74.7937ZM623.706 95.7937 623.706 107.794 620.706 107.794 620.706 95.7937ZM623.706 116.794 623.706 128.794 620.706 128.794 620.706 116.794ZM623.706 137.794 623.706 149.794 620.706 149.794 620.706 137.794ZM623.706 158.794 623.706 170.794 620.706 170.794 620.706 158.794ZM623.706 179.794 623.706 191.794 620.706 191.794 620.706 179.794ZM623.706 200.794 623.706 212.794 620.706 212.794 620.706 200.794ZM623.706 221.794 623.706 233.794 620.706 233.794 620.706 221.794ZM623.706 242.794 623.706 254.794 620.706 254.794 620.706 242.794ZM623.706 263.794 623.706 275.794 620.706 275.794 620.706 263.794ZM623.706 284.794 623.706 296.794 620.706 296.794 620.706 284.794ZM623.706 305.794 623.706 317.794 620.706 317.794 620.706 305.794ZM623.706 326.794 623.706 338.794 620.706 338.794 620.706 326.794ZM623.706 347.794 623.706 359.794 620.706 359.794 620.706 347.794ZM623.706 368.794 623.706 380.794 620.706 380.794 620.706 368.794ZM623.706 389.794 623.706 401.794 620.706 401.794 620.706 389.794ZM623.706 410.794 623.706 422.794 620.706 422.794 620.706 410.794ZM623.706 431.794 623.706 443.794 620.706 443.794 620.706 431.794ZM623.706 452.794 623.706 464.794 620.706 464.794 620.706 452.794ZM623.706 473.794 623.706 485.794 620.706 485.794 620.706 473.794ZM626.706 485.986 622.206 494.986 617.706 485.986Z"/><path d="M364.5 109 376.5 109 376.5 112 364.5 112ZM385.5 109 397.5 109 397.5 112 385.5 112ZM406.5 109 418.5 109 418.5 112 406.5 112ZM427.5 109 439.5 109 439.5 112 427.5 112ZM448.5 109 460.5 109 460.5 112 448.5 112ZM469.5 109 481.5 109 481.5 112 469.5 112ZM490.5 109 502.5 109 502.5 112 490.5 112ZM511.5 109 523.5 109 523.5 112 511.5 112ZM532.5 109 544.5 109 544.5 112 532.5 112ZM553.5 109 565.5 109 565.5 112 553.5 112ZM574.5 109 586.5 109 586.5 112 574.5 112ZM595.5 109 607.5 109 607.5 112 595.5 112ZM616.5 109 623.706 109 623.706 116.794 620.706 116.794 620.706 110.5 622.206 112 616.5 112ZM623.706 125.794 623.706 137.794 620.706 137.794 620.706 125.794ZM623.706 146.794 623.706 158.794 620.706 158.794 620.706 146.794ZM623.706 167.794 623.706 179.794 620.706 179.794 620.706 167.794ZM623.706 188.794 623.706 200.794 620.706 200.794 620.706 188.794ZM623.706 209.794 623.706 221.794 620.706 221.794 620.706 209.794ZM623.706 230.794 623.706 242.794 620.706 242.794 620.706 230.794ZM623.706 251.794 623.706 263.794 620.706 263.794 620.706 251.794ZM623.706 272.794 623.706 284.794 620.706 284.794 620.706 272.794ZM623.706 293.794 623.706 305.794 620.706 305.794 620.706 293.794ZM623.706 314.794 623.706 326.794 620.706 326.794 620.706 314.794ZM623.706 335.794 623.706 347.794 620.706 347.794 620.706 335.794ZM623.706 356.794 623.706 368.794 620.706 368.794 620.706 356.794ZM623.706 377.794 623.706 389.794 620.706 389.794 620.706 377.794ZM623.706 398.794 623.706 410.794 620.706 410.794 620.706 398.794ZM623.706 419.794 623.706 431.794 620.706 431.794 620.706 419.794ZM623.706 440.794 623.706 452.794 620.706 452.794 620.706 440.794ZM623.706 461.794 623.706 473.794 620.706 473.794 620.706 461.794ZM623.706 482.794 623.706 487.843 620.706 487.843 620.706 482.794ZM626.706 486.343 622.206 495.343 617.706 486.343Z"/><path d="M364.5 180 376.5 180 376.5 183 364.5 183ZM385.5 180 397.5 180 397.5 183 385.5 183ZM406.5 180 418.5 180 418.5 183 406.5 183ZM427.5 180 439.5 180 439.5 183 427.5 183ZM448.5 180 460.5 180 460.5 183 448.5 183ZM469.5 180 481.5 180 481.5 183 469.5 183ZM490.5 180 502.5 180 502.5 183 490.5 183ZM511.5 180 523.5 180 523.5 183 511.5 183ZM532.5 180 544.5 180 544.5 183 532.5 183ZM553.5 180 565.5 180 565.5 183 553.5 183ZM574.5 180 586.5 180 586.5 183 574.5 183ZM595.5 180 607.5 180 607.5 183 595.5 183ZM616.5 180 623.788 180 623.788 187.713 620.788 187.713 620.788 181.5 622.288 183 616.5 183ZM623.788 196.713 623.788 208.713 620.788 208.713 620.788 196.713ZM623.788 217.713 623.788 229.713 620.788 229.713 620.788 217.713ZM623.788 238.713 623.788 250.713 620.788 250.713 620.788 238.713ZM623.788 259.713 623.788 271.713 620.788 271.713 620.788 259.713ZM623.788 280.713 623.788 292.713 620.788 292.713 620.788 280.713ZM623.788 301.713 623.788 313.713 620.788 313.713 620.788 301.713ZM623.788 322.713 623.788 334.713 620.788 334.713 620.788 322.713ZM623.788 343.713 623.788 355.713 620.788 355.713 620.788 343.713ZM623.788 364.713 623.788 376.713 620.788 376.713 620.788 364.713ZM623.788 385.713 623.788 397.713 620.788 397.713 620.788 385.713ZM623.788 406.713 623.788 418.713 620.788 418.713 620.788 406.713ZM623.788 427.713 623.788 439.713 620.788 439.713 620.788 427.713ZM623.788 448.713 623.788 460.713 620.788 460.713 620.788 448.713ZM623.788 469.713 623.788 481.713 620.788 481.713 620.788 469.713ZM626.788 485.7 622.288 494.7 617.788 485.7Z"/><path d="M364.5 252 376.5 252 376.5 255 364.5 255ZM385.5 252 397.5 252 397.5 255 385.5 255ZM406.5 252 418.5 252 418.5 255 406.5 255ZM427.5 252 439.5 252 439.5 255 427.5 255ZM448.5 252 460.5 252 460.5 255 448.5 255ZM469.5 252 481.5 252 481.5 255 469.5 255ZM490.5 252 502.5 252 502.5 255 490.5 255ZM511.5 252 523.5 252 523.5 255 511.5 255ZM532.5 252 544.5 252 544.5 255 532.5 255ZM553.5 252 565.5 252 565.5 255 553.5 255ZM574.5 252 586.5 252 586.5 255 574.5 255ZM595.5 252 607.5 252 607.5 255 595.5 255ZM616.5 252 623.706 252 623.706 259.794 620.706 259.794 620.706 253.5 622.206 255 616.5 255ZM623.706 268.794 623.706 280.794 620.706 280.794 620.706 268.794ZM623.706 289.794 623.706 301.794 620.706 301.794 620.706 289.794ZM623.706 310.794 623.706 322.794 620.706 322.794 620.706 310.794ZM623.706 331.794 623.706 343.794 620.706 343.794 620.706 331.794ZM623.706 352.794 623.706 364.794 620.706 364.794 620.706 352.794ZM623.706 373.794 623.706 385.794 620.706 385.794 620.706 373.794ZM623.706 394.794 623.706 406.794 620.706 406.794 620.706 394.794ZM623.706 415.794 623.706 427.794 620.706 427.794 620.706 415.794ZM623.706 436.794 623.706 448.794 620.706 448.794 620.706 436.794ZM623.706 457.794 623.706 469.794 620.706 469.794 620.706 457.794ZM623.706 478.794 623.706 487.557 620.706 487.557 620.706 478.794ZM626.706 486.057 622.206 495.057 617.706 486.057Z"/><path d="M364.5 324 376.5 324 376.5 327 364.5 327ZM385.5 324 397.5 324 397.5 327 385.5 327ZM406.5 324 418.5 324 418.5 327 406.5 327ZM427.5 324 439.5 324 439.5 327 427.5 327ZM448.5 324 460.5 324 460.5 327 448.5 327ZM469.5 324 481.5 324 481.5 327 469.5 327ZM490.5 324 502.5 324 502.5 327 490.5 327ZM511.5 324 523.5 324 523.5 327 511.5 327ZM532.5 324 544.5 324 544.5 327 532.5 327ZM553.5 324 565.5 324 565.5 327 553.5 327ZM574.5 324 586.5 324 586.5 327 574.5 327ZM595.5 324 607.5 324 607.5 327 595.5 327ZM616.5 324 623.706 324 623.706 331.794 620.706 331.794 620.706 325.5 622.206 327 616.5 327ZM623.706 340.794 623.706 352.794 620.706 352.794 620.706 340.794ZM623.706 361.794 623.706 373.794 620.706 373.794 620.706 361.794ZM623.706 382.794 623.706 394.794 620.706 394.794 620.706 382.794ZM623.706 403.794 623.706 415.794 620.706 415.794 620.706 403.794ZM623.706 424.794 623.706 436.794 620.706 436.794 620.706 424.794ZM623.706 445.794 623.706 457.794 620.706 457.794 620.706 445.794ZM623.706 466.794 623.706 478.794 620.706 478.794 620.706 466.794ZM623.706 487.794 623.706 487.914 620.706 487.914 620.706 487.794ZM626.706 486.414 622.206 495.414 617.706 486.414Z"/><path d="M364.5 395 376.5 395 376.5 398 364.5 398ZM385.5 395 397.5 395 397.5 398 385.5 398ZM406.5 395 418.5 395 418.5 398 406.5 398ZM427.5 395 439.5 395 439.5 398 427.5 398ZM448.5 395 460.5 395 460.5 398 448.5 398ZM469.5 395 481.5 395 481.5 398 469.5 398ZM490.5 395 502.5 395 502.5 398 490.5 398ZM511.5 395 523.5 395 523.5 398 511.5 398ZM532.5 395 544.5 395 544.5 398 532.5 398ZM553.5 395 565.5 395 565.5 398 553.5 398ZM574.5 395 586.5 395 586.5 398 574.5 398ZM595.5 395 607.5 395 607.5 398 595.5 398ZM616.5 395 623.706 395 623.706 402.794 620.706 402.794 620.706 396.5 622.206 398 616.5 398ZM623.706 411.794 623.706 423.794 620.706 423.794 620.706 411.794ZM623.706 432.794 623.706 444.794 620.706 444.794 620.706 432.794ZM623.706 453.794 623.706 465.794 620.706 465.794 620.706 453.794ZM623.706 474.794 623.706 486.794 620.706 486.794 620.706 474.794ZM626.706 485.771 622.206 494.771 617.706 485.771Z"/><path d="M0-1.5 12-1.5 12 1.5 0 1.5ZM21-1.5 33-1.5 33 1.5 21 1.5ZM42-1.5 44.4002-1.5 44.4002 11.0998 41.4002 11.0998 41.4002 0 42.9002 1.5 42 1.5ZM44.4002 20.0998 44.4002 32.0998 41.4002 32.0998 41.4002 20.0998ZM44.4002 41.0998 44.4002 53.0998 41.4002 53.0998 41.4002 41.0998ZM44.4002 62.0998 44.4002 74.0998 41.4002 74.0998 41.4002 62.0998ZM44.4002 83.0998 44.4002 95.0998 41.4002 95.0998 41.4002 83.0998ZM44.4002 104.1 44.4002 116.1 41.4002 116.1 41.4002 104.1ZM44.4002 125.1 44.4002 137.1 41.4002 137.1 41.4002 125.1ZM44.4002 146.1 44.4002 158.1 41.4002 158.1 41.4002 146.1ZM44.4002 167.1 44.4002 179.1 41.4002 179.1 41.4002 167.1ZM44.4002 188.1 44.4002 200.1 41.4002 200.1 41.4002 188.1ZM44.4002 209.1 44.4002 221.1 41.4002 221.1 41.4002 209.1ZM44.4002 230.1 44.4002 242.1 41.4002 242.1 41.4002 230.1ZM44.4002 251.1 44.4002 263.1 41.4002 263.1 41.4002 251.1ZM44.4002 272.1 44.4002 284.1 41.4002 284.1 41.4002 272.1ZM44.4002 293.1 44.4002 305.1 41.4002 305.1 41.4002 293.1ZM44.4002 314.1 44.4002 315.397 42.9002 313.897 53.6026 313.897 53.6026 316.897 41.4002 316.897 41.4002 314.1ZM62.6026 313.897 74.6026 313.897 74.6026 316.897 62.6026 316.897ZM76.8003 310.897 85.8003 315.397 76.8003 319.897Z" transform="matrix(-1 1.22465e-16 1.22465e-16 1 885.3 203.5)"/><path d="M0-1.5 12-1.5 12 1.5 0 1.5ZM21-1.5 33-1.5 33 1.5 21 1.5ZM42-1.5 44.4003-1.5 44.4003 11.0997 41.4003 11.0997 41.4003 0 42.9003 1.5 42 1.5ZM44.4003 20.0997 44.4003 32.0997 41.4003 32.0997 41.4003 20.0997ZM44.4003 41.0997 44.4003 53.0997 41.4003 53.0997 41.4003 41.0997ZM44.4003 62.0997 44.4003 74.0997 41.4003 74.0997 41.4003 62.0997ZM44.4003 83.0997 44.4003 95.0997 41.4003 95.0997 41.4003 83.0997ZM44.4003 104.1 44.4003 116.1 41.4003 116.1 41.4003 104.1ZM44.4003 125.1 44.4003 137.1 41.4003 137.1 41.4003 125.1ZM44.4003 146.1 44.4003 158.1 41.4003 158.1 41.4003 146.1ZM44.4003 167.1 44.4003 179.1 41.4003 179.1 41.4003 167.1ZM44.4003 188.1 44.4003 200.1 41.4003 200.1 41.4003 188.1ZM44.4003 209.1 44.4003 221.1 41.4003 221.1 41.4003 209.1ZM44.4003 230.1 44.4003 233.456 42.9003 231.956 51.5445 231.956 51.5445 234.956 41.4003 234.956 41.4003 230.1ZM60.5445 231.956 72.5445 231.956 72.5445 234.956 60.5445 234.956ZM76.8003 228.956 85.8003 233.456 76.8003 237.956Z" transform="matrix(-1 1.22465e-16 1.22465e-16 1 885.3 285.5)"/><path d="M624 543.5 624 555.5 621 555.5 621 543.5ZM624 564.5 624 576.5 621 576.5 621 564.5ZM624 585.5 624 597.5 621 597.5 621 585.5ZM624 606.5 624 610.63 621 610.63 621 606.5ZM627 609.13 622.5 618.13 618 609.13Z"/><rect x="22.5001" y="14.5001" width="342" height="48" stroke="#595959" stroke-width="1.33333" stroke-miterlimit="8" fill="#5B9BD5"/><text fill="#FFFFFF" font-family="Calibri,Calibri_MSFontService,sans-serif" font-weight="400" font-size="24" transform="translate(71.3227 46)">Processed Antibody Data</text><rect x="22.5001" y="85.5001" width="342" height="49" stroke="#595959" stroke-width="1.33333" stroke-miterlimit="8" fill="#5B9BD5"/><text fill="#FFFFFF" font-family="Calibri,Calibri_MSFontService,sans-serif" font-weight="400" font-size="24" transform="translate(54.956 117)">Processed Cancer Diagnoses</text><rect x="22.5001" y="228.5" width="342" height="49" stroke="#595959" stroke-width="1.33333" stroke-miterlimit="8" fill="#5B9BD5"/><text fill="#FFFFFF" font-family="Calibri,Calibri_MSFontService,sans-serif" font-weight="400" font-size="24" transform="translate(69.516 261)">Processed Covariate Data</text><rect x="22.5001" y="157.5" width="342" height="49" stroke="#595959" stroke-width="1.33333" stroke-miterlimit="8" fill="#5B9BD5"/><text fill="#FFFFFF" font-family="Calibri,Calibri_MSFontService,sans-serif" font-weight="400" font-size="24" transform="translate(32.2893 189)">Processed non</text><text fill="#FFFFFF" font-family="Calibri,Calibri_MSFontService,sans-serif" font-weight="400" font-size="24" transform="translate(174.236 189)">-</text><text fill="#FFFFFF" font-family="Calibri,Calibri_MSFontService,sans-serif" font-weight="400" font-size="24" transform="translate(181.569 189)">Cancer Diagnoses</text><rect x="22.5001" y="300.5" width="342" height="49" stroke="#595959" stroke-width="1.33333" stroke-miterlimit="8" fill="#5B9BD5"/><text fill="#FFFFFF" font-family="Calibri,Calibri_MSFontService,sans-serif" font-weight="400" font-size="24" transform="translate(95.896 332)">Antibody Dictionary</text><rect x="22.5001" y="372.5" width="342" height="49" stroke="#595959" stroke-width="1.33333" stroke-miterlimit="8" fill="#C9C9C9"/><text font-family="Calibri,Calibri_MSFontService,sans-serif" font-weight="400" font-size="24" transform="translate(43.716 404)">Sex</text><text font-family="Calibri,Calibri_MSFontService,sans-serif" font-weight="400" font-size="24" transform="translate(76.6893 404)">-</text><text font-family="Calibri,Calibri_MSFontService,sans-serif" font-weight="400" font-size="24" transform="translate(84.0227 404)">specific Disease Dictionary</text><path d="M445.5 495.5 775.5 495.5 799.5 519.5 799.5 543.5 799.5 543.5 469.5 543.5 445.5 519.5 445.5 495.5Z" stroke="#595959" stroke-width="1.33333" stroke-miterlimit="8" fill="#5B9BD5" fill-rule="evenodd"/><text fill="#FFFFFF" font-family="Calibri,Calibri_MSFontService,sans-serif" font-weight="400" font-size="24" transform="translate(505.356 526)">ukb_icd_analysis_pub.R</text><rect x="443.5" y="617.5" width="358" height="49" stroke="#595959" stroke-width="1.33333" stroke-miterlimit="8" fill="#C5E0B4"/><text font-family="Calibri,Calibri_MSFontService,sans-serif" font-weight="400" font-size="24" transform="translate(460.749 649)">ukb_icd_results_01_17_2023.csv</text><path d="M885.5 179.5 1214.5 179.5 1238.5 203.5 1238.5 227.5 1238.5 227.5 909.5 227.5 885.5 203.5 885.5 179.5Z" stroke="#595959" stroke-width="1.33333" stroke-miterlimit="8" fill="#C9C9C9" fill-rule="evenodd"/><text font-family="Calibri,Calibri_MSFontService,sans-serif" font-weight="400" font-size="24" transform="translate(943.629 211)">helper_functions_pub.R</text><path d="M885.5 261.5 1214.5 261.5 1238.5 285.5 1238.5 309.5 1238.5 309.5 909.5 309.5 885.5 285.5 885.5 261.5Z" stroke="#595959" stroke-width="1.33333" stroke-miterlimit="8" fill="#C9C9C9" fill-rule="evenodd"/><text font-family="Calibri,Calibri_MSFontService,sans-serif" font-weight="400" font-size="24" transform="translate(937.239 293)">analysis_functions_pub.R</text></g></svg>